<svg width="116" height="25" viewBox="0 0 116 25" fill="none" xmlns="http://www.w3.org/2000/svg">
<path fill-rule="evenodd" clip-rule="evenodd" d="M9.27449 23.9106L8.69245 19.5275L4.98662 19.506L4.35355 23.8819L0.769043 23.8611L4.82523 0.118896L9.07796 0.143464L12.859 23.9314L9.27449 23.9106ZM8.31676 16.1981L6.94404 6.71758L6.88318 6.7172L5.40048 16.1811L8.31676 16.1981Z" fill="white"/>
<path fill-rule="evenodd" clip-rule="evenodd" d="M14.043 23.9382L14.1809 0.17334L17.6437 0.193368L17.5851 10.2764L17.6762 10.2768L21.3193 0.214535L24.843 0.234946L20.6466 11.4484L25.2523 24.0033L21.7283 23.9828L17.694 12.4836L17.5723 12.4833L17.5061 23.9583L14.043 23.9382Z" fill="white"/>
<path fill-rule="evenodd" clip-rule="evenodd" d="M26.4668 24.0104L26.6047 0.245117L30.0675 0.26515L30.0093 10.3482L30.1001 10.3489L33.7435 0.286317L37.2668 0.306724L33.0708 11.5206L37.6761 24.075L34.1521 24.0546L30.1178 12.5558L29.9965 12.555L29.93 24.0304L26.4668 24.0104Z" fill="white"/>
<path fill-rule="evenodd" clip-rule="evenodd" d="M39.0286 0.316895L47.8984 0.368296L47.8791 3.69542L42.4721 3.66405L42.4392 9.36773L46.6311 9.39192L46.6118 12.7194L42.4199 12.6948L42.3731 20.7751L48.2359 20.8091L48.2162 24.1362L38.8906 24.0822L39.0286 0.316895Z" fill="white"/>
<path fill-rule="evenodd" clip-rule="evenodd" d="M57.7371 24.1915C57.2265 23.1699 57.2322 22.2193 57.2371 21.3704L57.2677 16.0405C57.2715 15.3954 57.2458 14.6485 56.7624 14.1701C56.3995 13.8288 55.8836 13.7917 55.5189 13.7895L54.1519 13.7815L54.1726 10.2167L55.7219 10.2257C56.1474 10.2284 56.6335 10.197 56.9997 9.89352C57.488 9.48911 57.5224 8.7763 57.5251 8.33485L57.5394 5.89062C57.5451 4.87204 57.3954 4.49749 57.2753 4.29339C56.9744 3.78202 56.519 3.74574 56.1542 3.74347L54.2101 3.73214L54.2293 0.405396L56.4774 0.418245C58.3607 0.429205 59.5415 1.11519 60.1141 1.89907C60.7475 2.75173 61.0121 4.21327 61.0056 5.29951L60.9902 8.01547C60.9852 8.86435 60.8575 9.98385 60.0619 10.8962C59.6953 11.3014 59.1461 11.7054 58.3861 11.8029L58.3857 11.905C58.5675 11.9738 59.1737 12.1809 59.687 12.693C60.6538 13.6496 60.7384 14.7702 60.7328 15.7548L60.7033 20.8473C60.6908 22.9862 60.8084 23.6321 61.6569 24.0444L61.6557 24.2141L57.7371 24.1915Z" fill="white"/>
<path fill-rule="evenodd" clip-rule="evenodd" d="M68.7943 24.2554L66.4067 6.3491L66.2552 6.34834L66.4192 9.50689L66.3338 24.2414L62.8706 24.2213L63.0086 0.456055L68.4764 0.487801L70.4225 15.8452L70.5442 15.8459L72.6683 0.511991L78.1361 0.543738L77.9985 24.309L74.5354 24.289L74.6208 9.55451L74.8215 6.39823L74.6695 6.3971L72.0749 24.2746L68.7943 24.2554Z" fill="white"/>
<path fill-rule="evenodd" clip-rule="evenodd" d="M87.688 24.365L87.1055 19.9819L83.3997 19.9603L82.7666 24.3366L79.1821 24.3159L83.2387 0.573242L87.4914 0.598188L91.2725 24.3858L87.688 24.365ZM86.7302 16.6525L85.3571 7.1723L85.2966 7.17192L83.8139 16.6359L86.7302 16.6525Z" fill="white"/>
<path fill-rule="evenodd" clip-rule="evenodd" d="M99.352 24.4326L95.8185 10.3901L95.6968 10.4234L95.8333 13.1065L95.7679 24.4118L92.3047 24.3918L92.4423 0.626465L96.2698 0.648763L99.7462 14.0797L99.8373 14.0801L99.6695 11.5667L99.733 0.668795L103.196 0.688828L103.058 24.4541L99.352 24.4326Z" fill="white"/>
<path fill-rule="evenodd" clip-rule="evenodd" d="M111.809 24.5048L108.276 10.4624L108.154 10.4956L108.29 13.1787L108.225 24.4841L104.762 24.464L104.899 0.69873L108.727 0.721033L112.203 14.152L112.294 14.1523L112.127 11.639L112.19 0.741061L115.653 0.761094L115.515 24.5264L111.809 24.5048Z" fill="white"/>
<path fill-rule="evenodd" clip-rule="evenodd" d="M51.1731 20.7431L51.1648 22.1747L50.6481 22.1721C50.469 22.171 50.345 22.1857 50.283 22.2159C50.2207 22.2541 50.1859 22.3157 50.1855 22.4004C50.1848 22.4926 50.212 22.5542 50.2668 22.5852C50.322 22.6166 50.4459 22.6328 50.6455 22.6339L52.7533 22.646C52.9117 22.6468 53.0289 22.6245 53.112 22.5788C53.188 22.533 53.2296 22.4639 53.2303 22.3792C53.2307 22.2715 53.1899 22.202 53.1075 22.163C53.0251 22.1241 52.8667 22.1078 52.6392 22.1063L52.1089 22.1033L52.1169 20.7483C52.4752 20.7506 52.7367 20.7676 52.9155 20.7994C53.0942 20.8236 53.2802 20.9094 53.465 21.0488C53.6502 21.1962 53.787 21.3818 53.8819 21.6131C53.9772 21.8368 54.0236 22.1222 54.0217 22.4609C54.0195 22.8842 53.9552 23.2304 53.8161 23.476C53.6839 23.7293 53.5036 23.9054 53.2621 24.0116C53.0274 24.1102 52.6895 24.1624 52.2556 24.1597L50.9879 24.1526C50.6024 24.1503 50.3201 24.1023 50.1277 24.0165C49.9353 23.9307 49.7641 23.7527 49.6144 23.467C49.4644 23.1888 49.3907 22.8498 49.393 22.4495C49.3952 22.0568 49.4731 21.7185 49.6262 21.4347C49.7792 21.1505 49.9663 20.9668 50.1942 20.8757C50.4289 20.785 50.7528 20.7404 51.1731 20.7431ZM51.8156 16.8592L51.8043 18.8299L52.7685 18.8355C52.9752 18.8367 53.106 18.8219 53.1611 18.7913C53.2235 18.7531 53.2515 18.6919 53.2522 18.5997C53.2526 18.484 53.2118 18.4066 53.1362 18.368C53.0606 18.3211 52.9094 18.3049 52.6887 18.3038L52.0965 18.3003L52.1048 16.8607L52.4355 16.8626C52.711 16.8641 52.9246 16.8808 53.0689 16.9201C53.2201 16.9673 53.3781 17.0527 53.5425 17.2001C53.7141 17.3396 53.8369 17.5252 53.925 17.7489C54.0066 17.9647 54.0463 18.2421 54.0444 18.5732C54.0425 18.8888 53.9995 19.1734 53.9155 19.4195C53.8313 19.6651 53.713 19.8571 53.5678 19.9947C53.4223 20.1323 53.2632 20.2237 53.0909 20.2767C52.9181 20.322 52.6634 20.3515 52.3327 20.3492L51.0238 20.3417C50.6383 20.3394 50.3284 20.2763 50.102 20.1595C49.8824 20.0427 49.704 19.8492 49.5887 19.579C49.4731 19.3087 49.413 19.0007 49.4149 18.6465C49.4175 18.2232 49.4886 17.8695 49.6345 17.5932C49.7807 17.3169 49.975 17.1253 50.2165 17.0191C50.4512 16.9049 50.7891 16.8532 51.2234 16.8554L51.8156 16.8592ZM51.0835 18.3714L50.7596 18.3695C50.5257 18.368 50.3741 18.3827 50.3118 18.4054C50.243 18.4357 50.2082 18.4973 50.2074 18.5819C50.2067 18.6896 50.2339 18.7592 50.2891 18.7822C50.3507 18.8057 50.5023 18.8223 50.7574 18.8238L51.0809 18.8257L51.0835 18.3714ZM49.5196 14.8519L49.9467 14.8772C49.7751 14.7608 49.6519 14.6138 49.5634 14.4517C49.4814 14.2895 49.4413 14.1047 49.4425 13.8968C49.4447 13.4886 49.6118 13.1742 49.9576 12.9451C49.7864 12.8132 49.6632 12.6738 49.5744 12.5116C49.4927 12.3495 49.4527 12.1722 49.4538 11.9723C49.4553 11.7183 49.5116 11.5029 49.6228 11.3343C49.7407 11.1654 49.879 11.0584 50.0377 11.0134C50.2033 10.9681 50.4652 10.9465 50.8303 10.9484L54.0059 10.9669L53.9972 12.4372L51.0835 12.4205C50.7048 12.4183 50.4705 12.4323 50.3806 12.4625C50.291 12.4852 50.2426 12.5543 50.2418 12.6621C50.2411 12.7698 50.2823 12.8393 50.3715 12.8703C50.4607 12.9017 50.7018 12.9187 51.0805 12.9209L53.9945 12.9376L53.9858 14.4082L51.1478 14.3916C50.7139 14.3893 50.452 14.3953 50.3624 14.4256C50.2728 14.4483 50.2313 14.5095 50.2305 14.6172C50.2301 14.6867 50.2505 14.7404 50.2982 14.7948C50.3462 14.8413 50.4013 14.8648 50.4633 14.8727C50.5321 14.8806 50.6701 14.8814 50.8904 14.8829L53.9828 14.9007L53.9745 16.3709L49.5109 16.3452L49.5196 14.8519ZM51.8727 6.98973L51.8614 8.96075L52.8255 8.96605C53.0323 8.96718 53.163 8.95281 53.2186 8.9222C53.2806 8.88403 53.3086 8.8228 53.3093 8.73021C53.3101 8.61493 53.2689 8.53782 53.1933 8.49852C53.1181 8.45203 52.9665 8.43578 52.7462 8.43464L52.1535 8.43086L52.1622 6.99162L52.4926 6.99352C52.7681 6.99503 52.9816 7.01165 53.126 7.05096C53.2772 7.0982 53.4352 7.18362 53.6 7.33102C53.7712 7.47049 53.894 7.65606 53.9824 7.87981C54.0637 8.09562 54.1034 8.37303 54.1015 8.70412C54.0996 9.01971 54.0569 9.30432 53.9726 9.55036C53.8887 9.79603 53.7704 9.98765 53.6249 10.1256C53.4794 10.2632 53.3206 10.3546 53.1479 10.4076C52.9756 10.4529 52.7205 10.482 52.3897 10.4801L51.0813 10.4726C50.6954 10.4703 50.3858 10.4072 50.1591 10.2904C49.9395 10.1736 49.7615 9.98009 49.6458 9.70986C49.5305 9.43962 49.4701 9.13159 49.4723 8.77745C49.4746 8.35414 49.5457 8.00038 49.6919 7.72409C49.8382 7.44781 50.0321 7.25619 50.2736 7.14998C50.5087 7.03584 50.8466 6.98406 51.2805 6.98633L51.8727 6.98973ZM51.1406 8.5023L50.8171 8.50041C50.5828 8.4989 50.4312 8.51363 50.3692 8.53631C50.3 8.56655 50.2653 8.62816 50.2645 8.71282C50.2641 8.82054 50.2914 8.8897 50.3462 8.91351C50.4081 8.93656 50.5597 8.9532 50.8144 8.95433L51.138 8.95622L51.1406 8.5023ZM49.577 4.94425L49.9901 4.96958C49.8257 4.86073 49.7025 4.72164 49.6205 4.55949C49.5389 4.40491 49.4988 4.22009 49.4999 4.01222C49.5014 3.7503 49.5577 3.53525 49.6689 3.37424C49.78 3.20529 49.9183 3.09833 50.0839 3.05336C50.2498 3.008 50.5321 2.98645 50.9248 2.98872L54.052 3.00686L54.0433 4.52359L50.9505 4.50545C50.6474 4.50394 50.4542 4.51036 50.3923 4.53304C50.3231 4.55572 50.2883 4.61733 50.288 4.72504C50.2872 4.83276 50.328 4.9023 50.4036 4.93367C50.4792 4.95711 50.6859 4.97373 51.0234 4.97562L54.0403 4.993L54.0316 6.50973L49.568 6.48365L49.577 4.94425ZM49.0082 0.860471L49.7108 0.864628L49.7135 0.441322L50.4229 0.445479L50.4202 0.868785L52.8036 0.882769C53.0999 0.884281 53.2651 0.869919 53.2999 0.831746C53.3274 0.801132 53.349 0.654863 53.3505 0.400879L54.0671 0.40504L54.0633 1.02072C54.0614 1.36731 54.0463 1.61335 54.0176 1.75962C53.9964 1.90588 53.9333 2.03628 53.8366 2.15118C53.7462 2.26608 53.6423 2.33486 53.5183 2.3651C53.4012 2.3874 53.1188 2.40101 52.6777 2.39836L50.4115 2.38551L50.4097 2.70866L49.7002 2.7045L49.7021 2.38136L48.9995 2.3772L49.0082 0.860471Z" fill="white"/>
</svg>
