<svg width="681" height="350" viewBox="0 0 681 429" fill="none" xmlns="http://www.w3.org/2000/svg">
<path fill-rule="evenodd" clip-rule="evenodd" d="M247.885 427.74H251.391V400.865C251.391 398.498 251.001 398.024 251.001 395.802C251.288 396.216 251.044 395.736 251.411 396.561L265.411 427.741H267.359L281.77 395.804C281.77 398.025 281.38 398.498 281.38 400.865V427.741H284.886V389.181H280.991C280.754 390.199 279.819 392.236 279.304 393.338C276.055 400.303 269.892 413.39 267.197 420.177L266.191 422.287C265.916 418.996 252.571 392.579 251.78 389.182H247.886V427.741L247.885 427.74V427.74ZM464.241 197.143L426.402 219.462L423.44 208.404C425.448 205.049 426.2 201.176 425.259 197.382C424.056 192.523 420.337 188.842 415.497 187.026C412.064 190.891 410.493 195.882 411.697 200.741C412.698 204.783 415.438 208.008 419.116 210.025L422.294 221.882L421.116 222.58H421.117L398.487 235.929V205.878V187.145L417.202 178.358L429.82 185.795C430.913 186.441 432.322 186.08 432.966 184.987C433.612 183.895 433.248 182.487 432.157 181.841L420.954 175.236L435.895 159.156C435.954 159.1 436.007 159.04 436.06 158.978L451.28 142.597C455.431 142.705 459.387 141.335 462.306 138.416C465.893 134.83 467.141 129.678 466.186 124.527C461.034 123.571 455.884 124.819 452.297 128.406C449.417 131.287 448.046 135.175 448.112 139.261L434.742 153.649L427.079 140.238L430.299 132.798L430.375 132.622L441.788 106.24C441.833 106.153 441.871 106.066 441.903 105.975L452.65 81.1364C456.563 79.6545 459.735 76.8701 461.358 73.0358C463.36 68.3049 462.572 62.9954 459.716 58.5258C454.519 59.5874 450.159 62.718 448.157 67.4488C446.528 71.2957 446.744 75.5261 448.419 79.3774L439.577 99.8156L423.343 67.8657C423.133 61.2066 420.188 55.1404 414.762 51.6432C409.322 48.1362 402.558 47.9669 396.394 50.5498C396.589 57.2298 399.534 63.3205 404.975 66.8271C409.133 69.5079 414.065 70.2366 418.911 69.2793L437.209 105.289L427.973 126.635L425.121 121.526C425.778 118.681 425.488 115.747 424.082 113.164C422.122 109.564 418.414 107.419 414.206 106.982C412.287 110.756 412.077 115.034 414.036 118.633C415.602 121.508 418.282 123.455 421.441 124.345L425.679 131.938L422.49 139.307C422.131 139.981 422.116 140.819 422.523 141.531L431.464 157.178L415.941 173.885L398.486 182.08V134.379L398.486 134.32V109.19C398.486 108.545 398.22 107.963 397.794 107.545L387.96 96.7561L392.225 76.3957C394.748 74.6197 396.542 72.0738 397.111 69.0396C397.851 65.0946 396.363 61.1714 393.439 58.2362C389.649 59.9125 386.841 63.0295 386.1 66.9745C385.557 69.8772 386.218 72.77 387.773 75.2649L384.146 92.5717L359.181 65.18C358.329 64.2427 356.875 64.1739 355.938 65.0269C355 65.8803 354.932 67.3332 355.784 68.2713L367.513 81.1406L355.276 81.2664C352.302 78.4129 348.478 76.7744 344.384 76.9755C339.373 77.22 335.034 80.1666 332.313 84.5754C335.452 88.6981 340.058 91.207 345.068 90.9617C349.064 90.7663 352.633 88.8538 355.294 85.8506L371.652 85.6828L393.885 110.076V130.406L318.2 86.7093L356.144 44.1042L384.159 37.8774C388.122 41.0288 393.001 42.5471 397.945 41.714C403.794 40.7291 408.478 36.6669 411.058 31.1117C406.801 26.7093 401.045 24.4057 395.195 25.3906C390.335 26.21 386.279 29.1547 383.565 33.3148L356.715 39.2815L352.72 19.0853C353.654 13.9848 352.439 8.88129 348.927 5.27071C345.345 1.58907 340.144 0.251862 334.914 1.14837C333.873 6.35164 335.066 11.5855 338.647 15.2702C341.186 17.8796 344.538 19.3113 348.137 19.6053L352.439 41.3546L333.943 62.1231L320.456 43.7792C320.015 37.1386 316.92 31.1612 311.437 27.7181C305.783 24.1687 298.806 24.0788 292.479 26.8159C292.762 33.7037 295.876 39.9483 301.53 43.4976C305.94 46.2657 311.154 46.9309 316.236 45.7906L330.821 65.629L313.753 84.7916L294.522 81.3526L289.308 57.4444C291.596 53.759 292.534 49.4817 291.639 45.2252C290.461 39.6183 286.357 35.256 280.897 32.9799C276.811 37.2618 274.811 42.9061 275.989 48.5142C277.052 53.5708 280.495 57.6153 285.167 60.0289L289.626 80.4773L264.98 76.0699C264.973 75.8379 264.962 75.6039 264.946 75.3711C260.286 73.9304 255.386 74.5302 251.68 77.4604C247.975 80.3899 246.264 85.0221 246.592 89.8883C251.253 91.3294 256.153 90.7304 259.859 87.8001C262.18 85.9636 263.719 83.4612 264.463 80.6515L313.84 89.4831L393.884 135.695V169.171V185.693L393.884 239.671C393.884 241.716 396.333 242.515 397.812 241.647L467.573 200.498L467.581 200.502C468.304 200.114 468.795 199.351 468.795 198.474V186.227C471.585 183.509 473.272 179.962 473.272 176.08C473.272 171.223 470.629 166.889 466.494 164.049C462.36 166.889 459.716 171.223 459.716 176.08C459.716 179.976 461.415 183.534 464.22 186.253L464.241 197.142V197.143V197.143ZM249.676 117.326C253.495 118.349 256.599 120.876 257.875 124.486C259.151 128.096 258.327 132.011 256.001 135.209C252.182 134.185 249.078 131.659 247.801 128.049C246.524 124.439 247.349 120.524 249.677 117.326H249.676V117.326ZM418.197 48.0157C415.196 47.1467 412.782 45.1035 411.831 42.2326C410.877 39.3601 411.591 36.2798 413.479 33.7899C416.479 34.658 418.893 36.702 419.844 39.5737C420.798 42.4454 420.084 45.5268 418.197 48.0157V48.0157ZM431.11 63.3061C427.008 60.8139 424.254 56.8144 423.997 52.175C423.738 47.5338 426.033 43.2546 429.831 40.3236C433.931 42.8158 436.686 46.8153 436.945 51.4546C437.202 56.094 434.907 60.3747 431.11 63.3061ZM444.87 63.7717C442.2 62.1492 440.408 59.5447 440.24 56.5237C440.071 53.5028 441.565 50.7158 444.038 48.8075C446.709 50.4308 448.503 53.0345 448.67 56.0555C448.839 59.0764 447.343 61.8635 444.87 63.7717V63.7717ZM439.62 82.6966C442.386 80.1261 443.875 76.6059 443.34 72.9896C442.804 69.3722 440.356 66.4359 436.965 64.7771C434.199 67.3491 432.708 70.8693 433.245 74.4856C433.78 78.1022 436.227 81.0393 439.62 82.6966V82.6955V82.6966ZM372.42 96.4117C370.087 93.2116 366.608 91.2213 362.773 91.3287C358.94 91.4356 355.577 93.6171 353.428 96.9439C355.759 100.144 359.238 102.135 363.073 102.028C366.906 101.921 370.27 99.7385 372.42 96.4117ZM379.505 77.3728C376.583 76.2661 374.343 74.0343 373.625 71.0954C372.908 68.1556 373.867 65.1426 375.949 62.8136C378.871 63.9203 381.111 66.1536 381.828 69.0922C382.547 72.0304 381.587 75.0438 379.505 77.3728V77.3728ZM371.807 55.0921C369.162 56.7543 366.03 57.1946 363.253 55.9942C360.476 54.7931 358.652 52.2102 358.049 49.145C360.695 47.482 363.827 47.042 366.603 48.2428C369.381 49.4432 371.205 52.0269 371.807 55.0921ZM390.598 53.0598C387.109 55.2519 382.978 55.8317 379.315 54.2485C375.653 52.6652 373.247 49.2587 372.454 45.215C375.943 43.0236 380.074 42.4431 383.735 44.0264C387.398 45.6115 389.804 49.0161 390.598 53.0598V53.0598ZM381.128 15.932C382.43 19.7134 382.069 23.7447 379.765 26.8567C377.462 29.9699 373.713 31.4946 369.716 31.3528C368.414 27.5729 368.773 23.5421 371.079 20.4281C373.382 17.3168 377.131 15.7922 381.128 15.932ZM369.048 6.44197C370.352 10.2219 369.991 14.2539 367.687 17.3671C365.383 20.4791 361.633 22.003 357.637 21.8632C356.334 18.0814 356.695 14.0513 358.999 10.9381C361.301 7.8249 365.051 6.30024 369.048 6.44197ZM335.796 22.6792C339.597 26.382 341.576 31.3733 340.705 36.4382C339.834 41.5005 336.303 45.545 331.482 47.7643C327.682 44.0642 325.702 39.071 326.574 34.0068C327.444 28.9438 330.977 24.8982 335.796 22.6792ZM322.402 10.1633C325.268 12.953 326.759 16.7159 326.103 20.5328C325.445 24.3486 322.783 27.3979 319.151 29.0693C316.285 26.2796 314.794 22.5175 315.451 18.7013C316.108 14.8839 318.77 11.8361 322.402 10.1633ZM308.177 57.0718C304.247 57.8129 300.925 60.126 299.365 63.6705C297.804 67.2134 298.338 71.2261 300.442 74.6273C304.372 73.8842 307.693 71.5712 309.255 68.0267C310.817 64.4838 310.28 60.4718 308.177 57.0706V57.0718ZM230.397 62.2244C235.132 60.095 240.39 60.0909 244.687 62.7055C248.982 65.3191 251.394 69.9895 251.68 75.1742C246.943 77.3047 241.687 77.3097 237.39 74.6954C233.093 72.0814 230.682 67.4103 230.397 62.2244ZM263.65 43.3075C266.719 43.2077 269.594 44.3873 271.356 46.7832C273.116 49.1794 273.384 52.2756 272.374 55.1748C269.306 55.2739 266.43 54.0935 264.67 51.6984C262.908 49.3026 262.641 46.206 263.65 43.3075ZM247.767 51.7317C252.215 51.0786 256.595 52.3149 259.555 55.5093C262.516 58.7019 263.421 63.161 262.435 67.5475C257.985 68.2025 253.606 66.9643 250.644 63.7717C247.684 60.5792 246.779 56.1201 247.767 51.7317ZM267.422 58.6958C271.419 58.5677 275.163 60.1034 277.458 63.223C279.752 66.3437 280.1 70.3765 278.785 74.1522C274.788 74.2815 271.044 72.7459 268.75 69.6251C266.455 66.5055 266.107 62.4723 267.422 58.6958V58.6958ZM230.379 100.102C234.281 99.1288 238.288 99.8451 241.202 102.427C244.119 105.008 245.315 108.897 244.823 112.889C240.922 113.862 236.914 113.145 233.998 110.564C231.083 107.982 229.887 104.092 230.379 100.102V100.102ZM230.832 82.4309C234.598 81.9717 238.268 83.1086 240.699 85.8631C243.131 88.6191 243.801 92.4016 242.876 96.0825C239.109 96.5402 235.44 95.4049 233.008 92.6496C230.578 89.8936 229.907 86.1118 230.832 82.4309V82.4309ZM272.335 162.313C269.554 160.907 266.405 160.76 263.757 162.208C261.111 163.658 259.538 166.391 259.224 169.491C262.003 170.896 265.154 171.045 267.8 169.595C270.448 168.147 272.021 165.414 272.335 162.313ZM288.125 146.1C290.68 146.929 292.697 148.752 293.437 151.247C294.176 153.742 293.479 156.371 291.786 158.458C289.232 157.629 287.214 155.806 286.474 153.311C285.735 150.815 286.432 148.188 288.125 146.1ZM317.376 113.354C314.308 111.429 312.273 108.379 312.129 104.875C311.988 101.37 313.766 98.1636 316.666 95.993C319.733 97.919 321.768 100.969 321.912 104.473C322.056 107.979 320.275 111.186 317.376 113.354V113.354ZM295.655 102.059C295.83 98.8598 297.316 95.9779 299.966 94.3651C302.615 92.7509 305.858 92.7536 308.78 94.0654C308.605 97.2648 307.12 100.147 304.469 101.759C301.82 103.374 298.577 103.371 295.655 102.059ZM283.018 107.881C286.327 106.771 289.068 104.56 290.564 101.421C292.427 97.5176 291.963 93.0215 289.728 89.1547C285.317 89.8524 281.531 92.3211 279.669 96.2258C278.291 99.1194 278.187 102.339 279.138 105.387L270.21 123.595L260.706 110.571L260.615 110.453C261.255 107.626 260.961 104.716 259.563 102.151C257.603 98.5525 253.896 96.4068 249.687 95.9714C247.768 99.7434 247.558 104.021 249.517 107.621C251.111 110.545 253.854 112.509 257.084 113.376L267.93 128.242L259.551 145.329L255.188 142.81C252.401 138.645 248.144 135.893 243.265 135.661C238.171 135.419 233.493 137.976 230.309 142.172C233.081 146.65 237.495 149.638 242.59 149.881C246.227 150.053 249.651 148.799 252.471 146.542L259.377 150.529L269.417 156.327L269.469 156.357L298.383 173.05V212.58L278.432 201.062C277.334 200.431 275.934 200.809 275.304 201.906C274.673 203.003 275.052 204.404 276.148 205.034L298.382 217.871V235.928L258.693 212.518L258.686 212.455L256.72 196.868L264.181 191.366C268.778 192.622 273.566 192.165 277.599 189.682C282.504 186.663 285.235 181.301 285.534 175.362C280.097 172.951 274.078 172.976 269.174 175.995C265.03 178.545 262.436 182.768 261.553 187.6L256.06 191.649L252.932 166.852C252.775 165.595 251.626 164.706 250.37 164.865C249.114 165.023 248.227 166.17 248.386 167.425L251.986 195.972C251.993 196.054 252.002 196.137 252.017 196.218L253.701 209.573L231.532 196.497C230.441 195.857 229.036 196.224 228.396 197.316C227.756 198.407 228.121 199.812 229.214 200.453L299.055 241.648C300.534 242.515 302.984 241.718 302.984 239.673V216.554V171.728V171.685V135.697L335.392 116.987C336.49 116.356 336.867 114.954 336.237 113.859C335.606 112.762 334.206 112.383 333.11 113.014L301.295 131.383L292.162 119.312C291.398 118.299 289.957 118.098 288.944 118.862C287.932 119.626 287.731 121.067 288.496 122.08L298.382 135.148V167.749L271.718 152.354L263.53 147.627L272.638 129.05L272.641 129.046L272.665 128.997L283.019 107.881L283.018 107.881V107.881ZM305.311 123.574C302.619 121.836 300.854 119.117 300.767 116.016C300.68 112.915 302.289 110.1 304.878 108.213C307.568 109.951 309.334 112.671 309.422 115.772C309.509 118.872 307.899 121.687 305.311 123.574ZM276.204 133.526C279.814 134.696 282.662 137.272 283.707 140.796C284.752 144.319 283.767 148.031 281.378 150.981C277.768 149.809 274.919 147.234 273.873 143.71C272.829 140.186 273.814 136.475 276.204 133.526V133.526ZM270.6 108.893C273.036 106.267 274.198 102.832 273.436 99.4463C272.673 96.0599 270.151 93.4539 266.823 92.1242C264.388 94.7506 263.225 98.1862 263.988 101.573C264.75 104.958 267.272 107.564 270.6 108.893ZM243.277 129.996C243.819 126.361 242.814 122.779 240.21 120.355C237.605 117.929 233.96 117.183 230.373 117.982C229.831 121.617 230.836 125.199 233.44 127.625C236.045 130.05 239.69 130.797 243.277 129.996ZM240.674 158.732C241.362 155.604 243.292 153 246.167 151.834C249.042 150.666 252.242 151.191 254.915 152.957C254.226 156.085 252.296 158.69 249.421 159.856C246.546 161.023 243.347 160.497 240.674 158.732V158.732ZM243.272 173.664C243.911 170.139 243.043 166.619 240.579 164.174C238.114 161.731 234.586 160.892 231.066 161.561C230.426 165.087 231.297 168.608 233.761 171.052C236.223 173.494 239.752 174.334 243.272 173.664V173.664ZM286.884 199.412C284.833 196.952 283.958 193.831 284.798 190.844C285.638 187.857 288.013 185.65 291.047 184.62C293.098 187.08 293.973 190.202 293.132 193.188C292.292 196.174 289.917 198.383 286.884 199.412ZM230.097 176.76C234.727 176.163 239.25 177.531 242.263 180.902C245.276 184.273 246.13 188.918 245.023 193.453C240.393 194.047 235.87 192.681 232.857 189.311C229.844 185.94 228.99 181.292 230.097 176.76ZM444.985 181.377C448.705 180.426 452.532 181.086 455.33 183.534C458.128 185.981 459.292 189.687 458.845 193.5C455.127 194.452 451.298 193.791 448.499 191.344C445.702 188.895 444.538 185.189 444.985 181.377ZM444.733 114.95C445.281 109.925 447.868 105.512 452.181 103.195C456.493 100.878 461.601 101.158 466.093 103.475C465.546 108.501 462.958 112.913 458.645 115.23C454.333 117.547 449.225 117.268 444.733 114.95ZM432.026 209.219C429.943 205.793 429.437 201.767 431.031 198.225C432.625 194.683 435.974 192.391 439.919 191.677C442.003 195.104 442.507 199.131 440.915 202.672C439.321 206.214 435.972 208.506 432.026 209.219ZM466.495 84.3358C466.426 87.8802 464.895 91.1242 462.03 93.0132C459.162 94.9007 455.576 95.0262 452.294 93.6894C452.363 90.1449 453.893 86.9002 456.76 85.0127C459.627 83.1244 463.212 82.9997 466.495 84.3358ZM427.849 97.9398C425.862 100.875 422.81 102.764 419.379 102.787C415.947 102.81 412.87 100.963 410.844 98.0539C412.832 95.1176 415.882 93.2301 419.316 93.2075C422.747 93.1848 425.823 95.033 427.848 97.9398H427.849ZM421.788 84.7481C419.95 80.653 416.555 77.6324 412.279 76.8557C408.002 76.0798 403.764 77.7136 400.602 80.9013C402.441 84.9942 405.834 88.0151 410.113 88.7918C414.389 89.5674 418.628 87.9346 421.788 84.7481V84.7481ZM423.986 153.815C421.509 156.95 417.924 158.823 414.063 158.565C410.202 158.308 406.895 155.976 404.857 152.539C407.333 149.402 410.919 147.532 414.781 147.788C418.642 148.045 421.948 150.377 423.986 153.815V153.815ZM419.551 137.883C416.425 139.551 412.845 139.796 409.799 138.214C406.754 136.632 404.896 133.562 404.463 130.044C407.591 128.376 411.17 128.131 414.216 129.713C417.261 131.295 419.119 134.364 419.551 137.883V137.883ZM435.663 170.168C437.743 167.297 440.851 165.507 444.283 165.593C447.715 165.679 450.728 167.622 452.662 170.594C450.583 173.465 447.475 175.256 444.043 175.17C440.611 175.083 437.595 173.14 435.663 170.168V170.168ZM444.894 157.656C446.732 153.562 450.126 150.541 454.402 149.764C458.681 148.988 462.918 150.622 466.079 153.809C464.241 157.904 460.847 160.923 456.571 161.7C452.294 162.478 448.054 160.843 444.894 157.656ZM356.555 155.826H364.416C367.009 155.826 369.132 157.948 369.132 160.542V168.402C369.132 170.996 367.009 173.119 364.415 173.119H356.555C353.961 173.119 351.839 170.996 351.839 168.402V160.542C351.839 157.948 353.961 155.826 356.555 155.826V155.826ZM356.555 178.619H364.416C367.009 178.619 369.132 180.741 369.132 183.335V191.195C369.132 193.789 367.009 195.911 364.415 195.911H356.555C353.961 195.911 351.839 193.789 351.839 191.195V183.335C351.839 180.741 353.961 178.619 356.555 178.619V178.619ZM332.452 178.619H340.312C342.906 178.619 345.028 180.741 345.028 183.335V191.195C345.028 193.789 342.906 195.911 340.312 195.911H332.452C329.858 195.911 327.737 193.789 327.737 191.195V183.335C327.737 180.741 329.858 178.619 332.452 178.619ZM332.452 155.826H340.312C342.906 155.826 345.028 157.948 345.028 160.542V168.402C345.028 170.996 342.906 173.119 340.312 173.119H332.452C329.858 173.119 327.737 170.996 327.737 168.402V160.542C327.737 157.948 329.858 155.826 332.452 155.826ZM332.637 349.073H312.906C313.358 334.218 313.596 321.359 313.596 310.454H278.467C278.467 320.235 278.681 333.116 279.158 349.073H259.428C260.022 334.263 260.331 318.995 260.331 303.267C260.331 287.356 260.022 273.418 259.428 261.478H279.158C278.611 274.085 278.325 285.749 278.325 296.47H313.74C313.74 287.01 313.453 275.347 312.906 261.478H332.637C331.995 272.89 331.661 286.804 331.661 303.267C331.661 320.441 331.995 335.71 332.637 349.073ZM436.81 303.658C436.81 317.434 432.454 328.845 423.697 337.915C414.961 346.96 404.155 351.484 391.28 351.484C378.999 351.484 368.741 347.329 360.458 339.017C352.176 330.704 348.059 320.12 348.059 307.308C348.059 293.532 352.415 282.121 361.148 273.051C369.907 264.004 380.712 259.481 393.589 259.481C405.846 259.481 416.126 263.615 424.41 271.925C432.669 280.215 436.81 290.8 436.81 303.658H436.81V303.658ZM417.58 305.609C417.58 296.241 415.08 288.64 410.106 282.809C405.131 276.977 398.991 274.061 391.708 274.061C384.902 274.061 379.142 276.999 374.405 282.877C369.67 288.756 367.29 296.171 367.29 305.149C367.29 314.472 369.789 322.072 374.788 327.926C379.785 333.759 385.901 336.697 393.16 336.697C399.943 336.697 405.703 333.759 410.463 327.857C415.199 321.957 417.579 314.54 417.579 305.609H417.58V305.609ZM527.607 261.478C527.179 276.563 526.989 291.625 526.989 306.688C526.989 336.467 514.327 351.369 489.051 351.369C476.532 351.369 467.132 348.063 460.8 341.474C454.493 334.882 451.328 323.036 451.328 305.953C451.328 290.891 451.114 276.059 450.685 261.478H470.439C469.821 276.656 469.512 291.258 469.512 305.357C469.512 317.687 471.155 326.135 474.415 330.704C477.652 335.274 482.673 337.57 489.456 337.57C496.572 337.57 501.714 335.297 504.879 330.751C508.044 326.181 509.615 317.687 509.615 305.219C509.615 291.535 509.306 276.955 508.71 261.478H527.607V261.478V261.478ZM605.411 325.194C605.411 342.736 592.344 351.484 566.235 351.484C557.357 351.484 549.099 350.474 541.483 348.408L544.886 333.392C552.432 335.916 559.523 337.157 566.236 337.157C573.661 337.157 579.016 336.468 582.252 335.091C585.514 333.69 587.155 331.349 587.155 328.087C587.155 324.666 585.61 321.797 582.539 319.477C579.897 317.41 574.519 314.724 566.427 311.394C559.095 308.364 553.622 305.035 550.052 301.454C545.553 296.931 543.292 291.328 543.292 284.692C543.292 276.978 546.244 270.962 552.17 266.6C558.097 262.26 566.617 260.079 577.732 260.079C586.846 260.079 594.487 260.813 600.675 262.305L598.08 277.23C591.821 275.026 585.039 273.947 577.732 273.947C566.76 273.947 561.285 276.772 561.285 282.42C561.285 285.428 562.547 287.861 565.117 289.743C567.355 291.351 572.209 293.623 579.683 296.54C587.632 299.64 593.582 303.037 597.533 306.757C602.793 311.741 605.411 317.894 605.411 325.195V325.194V325.194ZM680.739 334.263L680.167 349.073H620.832C621.428 335.526 621.737 320.258 621.737 303.267C621.737 286.943 621.428 273.004 620.832 261.478H677.454L676.692 276.219C662.745 275.507 650.083 275.14 638.754 275.14C639.207 281.387 639.445 288.734 639.445 297.205C649.156 297.205 659.556 296.953 670.623 296.47V310.523C659.747 310.087 649.346 309.856 639.445 309.856C639.445 318.949 639.635 327.491 640.015 335.412C652.748 335.412 666.315 335.045 680.739 334.263V334.263ZM0.423828 262.601V265.716C0.423828 268.505 8.46931 265.66 9.97054 269.022C11.6052 272.68 11.2941 338.585 10.2472 341.362C9.14055 344.302 4.70717 343.585 4.70717 347.508C4.70717 349.4 8.81552 348.287 10.5503 348.287L63.9086 348.676C63.4168 346.83 59.2526 343.478 58.4566 340.497L29.2454 340.886C29.2454 338.415 28.8557 337.633 28.8557 335.043V307.78C28.8557 306.884 29.1271 306.612 30.0243 306.612H48.3301V299.99H36.2564C33.1995 299.99 31.8272 299.601 28.8557 299.601C28.8557 293.658 28.5167 274.025 29.635 269.222C32.4247 269.222 33.6803 268.815 36.6434 268.83L58.8462 268.832C60.5901 265.537 63.8492 263.118 64.299 261.432L35.8645 261.43C34.1327 261.524 33.9962 261.813 31.9882 261.837L3.51737 261.409C1.86307 261.383 0.424585 261.025 0.424585 262.601H0.423828V262.601ZM59.2348 304.274C59.2348 314.639 63.1931 327.465 69.8692 335.315L72.7666 338.65C73.4874 339.28 73.5887 339.238 74.3034 339.838C75.0464 340.461 75.2313 340.712 75.9755 341.283C79.8464 344.25 82.7862 345.772 87.5461 347.627C90.4155 348.748 93.7698 349.465 97.2323 350.014C111.271 352.248 124.108 350.58 136.244 344.672C138.358 343.643 138.002 343.769 138.417 341.004C138.648 339.475 139.079 337.826 139.079 335.822C125.765 342.867 104.628 345.858 92.441 334.944L87.9566 330.471C76.5167 317.661 74.5679 290.964 87.7642 277.887C94.9536 270.761 101.863 268.053 112.594 268.053C121.12 268.053 124.422 271.38 129.341 274.675C129.341 277.156 128.562 278.616 128.562 281.295C141.223 281.295 135.746 280.841 139.964 270.498C140.551 269.059 141.279 267.744 141.415 266.105L135.244 263.709C133.168 262.935 131.117 262.312 128.596 261.788C107.125 257.337 81.449 260.138 68.1885 277.396C62.5105 284.787 59.2348 294.671 59.2348 304.274ZM190.101 267.274C218.152 267.274 221.315 300.004 217.016 320.674C213.985 335.246 206.416 343.612 190.879 343.612C173.457 343.612 165.723 328.36 164.035 313.203C161.884 293.886 164.423 267.274 190.1 267.274H190.101V267.274ZM144.142 305.833C144.142 312.906 145.329 320.078 147.308 325.256C160.068 358.636 208.877 357.119 226.987 335.71C238.577 322.009 240.628 299.028 233.951 283.015C232.801 280.258 231.602 278.724 230.063 276.385C225.799 269.9 218.582 265.491 211.364 262.758C197.308 257.439 176.059 259.43 163.633 266.902C162.434 267.625 161.319 268.403 160.161 269.274C154.541 273.508 150.011 279.175 147.591 285.915C145.591 291.492 144.142 298.167 144.142 305.833V305.833ZM150.515 427.74H169.6V424.623H154.021V389.181H150.515V427.74ZM358.497 392.297H369.402V427.74H372.908V392.297H383.812V389.181H358.497V392.297V392.297ZM640.479 414.108V427.74H643.984V414.108C643.984 412.374 646.185 409.21 646.972 407.748L656.447 389.181H652.553C652.068 391.266 648.787 397.103 647.62 399.438C646.638 401.403 645.883 402.659 644.893 404.499C644.016 406.127 643.358 408.467 642.038 409.434C641.238 406.005 633.268 391.662 632.691 389.181H628.406C630.522 393.18 632.423 397.217 634.507 401.384C635.526 403.42 640.479 412.519 640.479 414.109V414.108V414.108ZM402.897 408.655C402.897 418.651 409.306 428.129 418.087 428.129H423.612C427.301 427.99 431.33 427.419 431.33 425.403C431.33 422.968 431.37 423.017 429.914 423.506C429.007 423.812 428.343 424.16 427.28 424.47C423.156 425.666 419.258 425.736 415.402 424.193C404.842 419.97 404.81 403.33 410.588 396.872C415.027 391.915 418.747 391.908 424.319 391.908C427.483 391.908 428.79 393.254 431.33 393.465C431.33 390.03 431.564 389.851 428.629 389.156C418.571 386.774 408.552 390.361 404.668 400.299C403.928 402.193 402.898 406.301 402.898 408.655H402.897V408.655ZM62.1031 427.74H81.5775V424.623H65.6082V409.824H79.6295V406.708H65.6082V392.297H80.7981V389.181H62.1031V427.74V427.74ZM123.251 427.74H142.725V424.623H126.756V409.824H140.777V406.708H126.756V392.297H141.946V389.181H123.251V427.74ZM294.622 427.74H314.485C314.485 423.441 316.387 424.623 298.127 424.623V409.824H312.148V406.708H298.127V392.297H313.317V389.181H294.622V427.74ZM99.4932 427.74H102.998C103.188 425.46 116.457 393.274 117.409 389.181H113.514L104.332 414.273C103.538 416.344 101.61 421.019 101.44 423.066C101.388 422.984 101.332 422.748 101.315 422.802C101.064 423.592 101.117 422.358 101.079 422.259L98.489 414.723C97.8665 413.118 97.6125 411.982 96.9919 410.377C96.377 408.789 96.0073 407.761 95.4521 406.076L89.3659 389.181H85.4711L95.9378 418.052C96.5554 419.77 97.0444 421.035 97.6869 422.924C98.1787 424.373 98.921 426.549 99.4932 427.741V427.74V427.74ZM537.267 409.434H531.425V392.297H536.099C542.523 392.297 546.201 394.229 546.502 400.165C546.788 405.827 542.952 409.434 537.267 409.434ZM527.92 427.74H531.425V412.94C540.845 412.94 550.12 411.745 550.12 399.698C550.12 393.486 545.341 389.181 539.215 389.181H527.92V427.74V427.74ZM226.463 409.434H221.011V392.297C228.438 392.297 236.2 391.456 236.2 400.865C236.2 406.641 232.254 409.434 226.463 409.434ZM217.505 427.74H221.011V412.94C229.005 412.94 237.234 412.455 239.462 403.738C241.628 395.274 236.632 389.181 228.41 389.181H217.505V427.74V427.74ZM569.984 394.245H570.762C570.908 395.994 571.766 397.643 572.264 398.975C572.868 400.588 573.367 401.983 573.928 403.543C574.952 406.393 576.112 410.286 577.384 412.94H563.364L568.378 399.259C568.945 397.681 569.83 396.092 569.984 394.245V394.245ZM554.404 427.74H558.299C558.475 425.617 560.52 421.372 561.264 419.021C561.678 417.717 561.652 416.445 562.973 416.445H577.773C579.209 416.445 579.606 419.21 580.613 421.783C581.372 423.723 582.026 426.052 582.837 427.74H586.731L574.102 394.022C573.537 392.546 572.64 390.554 572.321 389.181H568.816L557.851 417.945C557.081 420.011 554.551 425.999 554.405 427.74H554.404V427.74ZM34.0597 424.623H28.2181V392.297C41.0315 392.297 50.808 392.65 50.808 409.045C50.808 414.137 48.9356 417.859 46.2415 420.447C43.5422 423.041 39.2169 424.623 34.059 424.623H34.0597ZM24.7122 427.74C34.8088 427.74 42.3316 429.053 49.3543 422.003C50.9848 420.366 52.0771 418.63 53.0447 416.345C57.5635 405.653 53.488 389.181 36.3962 389.181H24.7122V427.74ZM440.676 408.655C440.676 400.098 445.648 391.908 453.919 391.908C458.623 391.908 462.649 391.984 466.229 396.734C470.772 402.758 470.688 415.199 465.703 420.829C461.662 425.392 454.288 426.595 448.737 423.963C443.421 421.442 440.677 415.256 440.677 408.655H440.676V408.655ZM458.593 428.129H452.786C448.759 427.953 445.276 426.983 441.564 422.568C437.152 417.318 437.171 412.722 437.171 406.708C437.171 387.409 460.748 383.607 468.728 394.235C470.093 396.052 471.241 397.671 472.089 400.221C473.794 405.344 473.749 410.756 472.141 415.973C470.359 421.761 464.647 428.129 458.593 428.129H458.593V428.129ZM177.388 408.655C177.388 404.134 178.858 399.981 180.831 397.296C187.94 387.619 206.21 390.615 206.21 406.708C206.21 414.032 205.238 420.792 197.916 424.119C194.172 425.821 189.118 425.697 185.449 423.964C183.845 423.205 182.315 421.699 181.185 420.438C179.037 418.038 177.388 413.084 177.388 408.655V408.655ZM195.304 428.129H189.817C185.604 427.964 181.808 427 178.101 422.355C174.293 417.585 173.883 413.037 173.883 407.097C173.883 399.913 178.064 392.547 184.722 389.893C205.784 381.494 216.642 406.969 206.221 421.52C204.372 424.101 199.593 428.129 195.305 428.129H195.304V428.129ZM322.275 427.74H325.78V395.023C326.058 395.344 326.15 395.439 326.478 395.883L339.874 415.204C341.32 417.337 347.947 426.154 348.369 427.741H352.265V389.182H348.759V421.897L343.152 413.873C341.226 410.954 339.305 408.516 337.387 405.617C336.202 403.827 326.56 390.643 326.169 389.181H322.275V427.74V427.74ZM592.573 427.74H596.079V394.635C596.596 395.229 596.236 394.795 596.727 395.543C602.773 404.764 610.276 414.553 616.413 423.763C619.414 428.266 618.594 427.74 622.564 427.74V389.181H619.059V421.508L598.969 392.912C596.004 388.836 597.724 389.181 592.574 389.181V427.74H592.573V427.74ZM480.793 427.74H484.298V396.192C484.586 396.606 484.342 396.127 484.709 396.95L495.258 420.285C499.007 429.543 499.502 429.497 501.83 424.24L514.678 396.192V427.74H518.182V389.181C513.964 389.181 514.371 387.912 510.838 396.637C509.103 400.921 500.108 419.125 499.877 421.897C498.564 420.936 499.542 421.871 498.802 420.245L495.928 413.774C493.515 407.827 488.926 399.025 486.409 392.912C484.662 388.664 485.362 389.181 480.793 389.181V427.74V427.74Z" fill="#fff"/>
</svg>
