<svg width="350" height="80" viewBox="0 0 415 129" fill="none" xmlns="http://www.w3.org/2000/svg">
<path d="M0.602539 7.16861C0.602539 3.48622 3.62239 0.5 7.34636 0.5C11.0699 0.5 14.0898 3.48545 14.0879 7.16747C14.0879 10.8506 11.0699 13.8361 7.34636 13.8361C3.6205 13.8361 0.602539 10.8506 0.602539 7.16861Z" fill="#fff"/>
<path d="M35.8402 7.10094C34.6179 5.89263 32.9886 5.23538 31.1751 5.23273C27.4478 5.22782 24.4279 8.214 24.4336 11.9013C24.437 13.6921 25.1041 15.3433 26.3033 16.5309L45.4304 35.444C46.6436 36.5918 48.4306 37.4196 50.2417 37.4218C53.971 37.4267 56.9889 34.4417 56.984 30.7544C56.9818 28.9629 56.1276 27.216 54.9654 26.0148L35.8402 7.10094Z" fill="#fff"/>
<path d="M48.208 54.2438C48.208 50.561 51.2271 47.5752 54.9529 47.5752C58.675 47.5752 61.6945 50.5606 61.6945 54.2427C61.693 57.9266 58.675 60.9116 54.9511 60.9116C51.2256 60.9116 48.208 57.9266 48.208 54.2438Z" fill="#fff"/>
<path d="M16.7544 25.9748L16.7521 25.9763C15.5298 24.768 13.9005 24.1104 12.0894 24.1081C8.35972 24.1021 5.34213 27.0875 5.34742 30.7763C5.34893 32.5667 6.01792 34.2183 7.21716 35.4055L26.3442 54.3175C27.5555 55.4668 29.3425 56.2945 31.154 56.2961C34.8829 56.3006 37.9028 53.3155 37.8978 49.6274C37.8944 47.8375 37.0399 46.0894 35.8773 44.8898L16.7544 25.9748Z" fill="#fff"/>
<path d="M121.23 0.5C124.954 0.5 127.974 3.48622 127.974 7.16861C127.974 10.8506 124.956 13.8361 121.23 13.8361C117.506 13.8361 114.488 10.8506 114.488 7.16747C114.486 3.48545 117.506 0.5 121.23 0.5Z" fill="#fff"/>
<path d="M121.299 35.3462V35.3446C122.52 34.1352 123.185 32.5243 123.188 30.7344C123.194 27.0455 120.174 24.0597 116.443 24.0654C114.633 24.0684 112.963 24.7287 111.762 25.9151L92.6351 44.8282C91.4748 46.029 90.6399 47.7955 90.6365 49.5863C90.6327 53.2736 93.6506 56.2587 97.3799 56.2537C99.1899 56.2522 100.958 55.4052 102.172 54.2574L121.299 35.3462Z" fill="#fff"/>
<path d="M73.6234 47.5752C77.3492 47.5752 80.3691 50.561 80.3691 54.2438C80.3691 57.9266 77.3507 60.9116 73.6253 60.9116C69.9017 60.9116 66.8833 57.9266 66.8818 54.2427C66.8818 50.5606 69.9017 47.5752 73.6234 47.5752Z" fill="#fff"/>
<path d="M102.213 16.4712L102.211 16.4697C103.434 15.2617 104.099 13.6494 104.101 11.8594C104.106 8.17211 101.086 5.18513 97.3568 5.1908C95.5453 5.19345 93.8774 5.85411 92.6759 7.04126L73.5492 25.9533C72.3885 27.1544 71.5502 28.921 71.5483 30.7113C71.5446 34.3983 74.5644 37.3837 78.2918 37.3795C80.1018 37.3773 81.871 36.5318 83.0842 35.3828L102.213 16.4712Z" fill="#fff"/>
<path d="M127.974 121.203C127.974 124.885 124.954 127.871 121.23 127.871C117.506 127.871 114.486 124.885 114.488 121.204C114.488 117.522 117.506 114.536 121.23 114.536C124.956 114.536 127.974 117.521 127.974 121.203Z" fill="#fff"/>
<path d="M92.7362 121.271C93.9589 122.48 95.5879 123.137 97.4013 123.139C101.129 123.144 104.148 120.158 104.143 116.471C104.139 114.679 103.472 113.028 102.273 111.841L83.1464 92.9284C81.9328 91.7801 80.1458 90.9532 78.3347 90.9506C74.6054 90.9453 71.5875 93.9303 71.5928 97.6191C71.5947 99.4088 72.4492 101.158 73.611 102.358L92.7362 121.271Z" fill="#fff"/>
<path d="M80.3691 74.1282C80.3691 77.8114 77.3492 80.7965 73.6234 80.7965C69.9017 80.7965 66.8818 77.8114 66.8818 74.1286C66.8833 70.447 69.9017 67.4604 73.6253 67.4604C77.3507 67.4604 80.3691 70.4455 80.3691 74.1282Z" fill="#fff"/>
<path d="M111.822 102.398L111.824 102.396C113.048 103.604 114.676 104.262 116.487 104.265C120.217 104.269 123.235 101.284 123.229 97.5965C123.227 95.8053 122.558 94.1544 121.36 92.9669L102.232 74.0534C101.021 72.9056 99.2338 72.0786 97.4223 72.0756C93.6934 72.0703 90.6736 75.0569 90.6785 78.7442C90.6819 80.5338 91.5364 82.2825 92.699 83.4825L111.822 102.398Z" fill="#fff"/>
<path d="M7.43288 127.871C3.70929 127.871 0.689453 124.885 0.689453 121.203C0.689453 117.521 3.70703 114.536 7.431 114.536C11.1569 114.536 14.1748 117.522 14.1767 121.204C14.1767 124.885 11.1569 127.871 7.43288 127.871Z" fill="#fff"/>
<path d="M7.36362 93.0274C6.14321 94.2357 5.4784 95.8473 5.47462 97.6392C5.46933 101.326 8.48916 104.312 12.218 104.307C14.0296 104.305 15.6994 103.644 16.9005 102.457L36.0257 83.5434C37.1883 82.3427 38.0232 80.5761 38.0266 78.7861C38.0322 75.0988 35.0124 72.1134 31.2827 72.1179C29.4716 72.121 27.7047 72.9664 26.4911 74.115L7.36362 93.0274Z" fill="#fff"/>
<path d="M55.0376 80.7965C51.314 80.7965 48.2942 77.8114 48.2942 74.1282C48.2942 70.4455 51.314 67.4604 55.0376 67.4604C58.7616 67.4604 61.7814 70.447 61.7814 74.1286C61.7814 77.8114 58.7616 80.7965 55.0376 80.7965Z" fill="#fff"/>
<path d="M26.45 111.901L26.4519 111.903C25.2296 113.111 24.5644 114.722 24.5625 116.513C24.5576 120.201 27.5774 123.187 31.3044 123.181C33.1179 123.178 34.7858 122.519 35.9873 121.331L55.1121 102.418C56.2743 101.217 57.1114 99.4511 57.1129 97.6611C57.1182 93.9727 54.0984 90.9872 50.371 90.9929C48.5599 90.9951 46.7922 91.8406 45.5786 92.9892L26.45 111.901Z" fill="#fff"/>
<path d="M226.26 8.73677H169.798V43.2121H221.641V50.7931H169.798V87.843H227.451V95.9974H159.817V0.581299H226.26V8.73677Z" fill="#fff"/>
<path d="M304.321 27.9046C303.725 15.1612 294.786 8.31078 278.995 8.31078C264.245 8.31078 254.86 15.1612 254.86 25.8486C254.86 33.9315 259.776 38.3157 271.247 40.5071L289.869 44.2068C299.553 46.1246 305.214 48.4543 309.536 52.1541C314.151 56.4004 316.536 61.8814 316.536 68.4593C316.536 85.0371 302.085 95.9973 280.186 95.9973C266.48 95.9973 255.902 91.8867 249.198 84.0782C244.877 78.8719 242.94 72.9804 242.644 63.6624H252.624C252.923 79.556 262.605 88.187 280.633 88.187C296.424 88.187 306.553 80.7889 306.553 69.1431C306.553 60.1002 300.744 55.3047 285.995 52.4288L268.119 48.8666C252.329 45.7134 244.877 38.3157 244.877 25.8486C244.877 10.2289 257.988 0.5 279.291 0.5C301.043 0.5 313.11 9.95449 314.301 27.9046H304.321Z" fill="#fff"/>
<path d="M404.277 95.802L346.477 12.1463C346.923 17.5703 347.071 22.1378 347.071 27.1351L347.222 38.6978V95.802H338.283V0.581299H348.561L406.364 83.9516C405.919 76.2437 405.62 56.9703 405.62 44.8362V0.581299H414.559V95.802H404.277Z" fill="#fff"/>
<path d="M167.786 127.663H163.806V113.359H158.448V109.964H173.146V113.359H167.786V127.663Z" fill="#fff"/>
<path d="M188.855 113.359H179.647V116.81H187.688V119.94H179.647V124.266H189.015V127.663H175.667V109.964H188.855V113.359Z" fill="#fff"/>
<path d="M199.098 113.918L196.949 120.843H200.955L199.098 113.918ZM195.967 124.107L194.852 127.663H190.527L196.708 109.964H201.672L207.298 127.663H202.787L201.831 124.107H195.967Z" fill="#fff"/>
<path d="M221.069 115.615C220.67 113.918 219.371 112.936 217.488 112.936C214.568 112.936 212.897 115.085 212.897 118.8C212.897 122.488 214.568 124.691 217.381 124.691C219.424 124.691 220.645 123.682 221.122 121.558H225.342C224.864 125.566 221.866 128.06 217.488 128.06C212.26 128.06 208.916 124.452 208.916 118.8C208.916 113.121 212.206 109.566 217.461 109.566C221.733 109.566 224.65 111.848 225.13 115.615H221.069Z" fill="#fff"/>
<path d="M232.4 120.021V127.663H228.42V109.964H232.4V116.625H238.901V109.964H242.882V127.663H238.901V120.021H232.4Z" fill="#fff"/>
<path d="M260.316 113.359H251.108V116.81H259.148V119.94H251.108V124.266H260.475V127.663H247.127V109.964H260.316V113.359Z" fill="#fff"/>
<path d="M271.671 117.447C273.133 117.447 273.929 116.704 273.929 115.403C273.929 114.102 273.133 113.359 271.671 113.359H267.772V117.447H271.671ZM267.772 127.663H263.872V109.964H271.594C273.875 109.964 275.149 110.255 276.211 111.026C277.299 111.82 277.909 113.147 277.909 114.74C277.909 116.889 276.954 118.269 274.963 119.012C276.715 119.568 277.325 120.498 277.458 122.834L277.59 125.355C277.67 126.522 277.801 126.92 278.305 127.663H274.404C273.929 127.291 273.796 127.025 273.741 126.123L273.583 123.708C273.424 121.533 272.469 120.578 270.426 120.578H267.772V127.663Z" fill="#fff"/>
<path d="M301.471 115.615C301.075 113.918 299.773 112.936 297.89 112.936C294.97 112.936 293.299 115.085 293.299 118.8C293.299 122.488 294.97 124.691 297.783 124.691C299.827 124.691 301.048 123.682 301.524 121.558H305.743C305.267 125.566 302.267 128.06 297.89 128.06C292.662 128.06 289.319 124.452 289.319 118.8C289.319 113.121 292.608 109.566 297.862 109.566C302.134 109.566 305.055 111.848 305.531 115.615H301.471Z" fill="#fff"/>
<path d="M312.246 118.8C312.246 122.488 313.971 124.691 316.862 124.691C319.703 124.691 321.452 122.488 321.452 118.879C321.452 115.138 319.754 112.936 316.837 112.936C313.971 112.936 312.246 115.138 312.246 118.8ZM325.62 118.959C325.62 124.345 322.036 128.06 316.862 128.06C311.609 128.06 308.08 124.345 308.08 118.8C308.08 115.908 309.062 113.413 310.812 111.82C312.432 110.335 314.5 109.566 316.837 109.566C322.169 109.566 325.62 113.254 325.62 118.959Z" fill="#fff"/>
<path d="M335.834 113.918L333.685 120.843H337.692L335.834 113.918ZM332.703 124.107L331.59 127.663H327.263L333.446 109.964H338.408L344.034 127.663H339.523L338.568 124.107H332.703Z" fill="#fff"/>
<path d="M357.806 115.615C357.408 113.918 356.108 112.936 354.225 112.936C351.305 112.936 349.635 115.085 349.635 118.8C349.635 122.488 351.305 124.691 354.118 124.691C356.161 124.691 357.383 123.682 357.859 121.558H362.078C361.6 125.566 358.602 128.06 354.225 128.06C348.996 128.06 345.655 124.452 345.655 118.8C345.655 113.121 348.943 109.566 354.197 109.566C358.469 109.566 361.388 111.848 361.866 115.615H357.806Z" fill="#fff"/>
<path d="M369.137 120.021V127.663H365.156V109.964H369.137V116.625H375.638V109.964H379.618V127.663H375.638V120.021H369.137Z" fill="#fff"/>
<path d="M397.052 113.359H387.844V116.81H395.885V119.94H387.844V124.266H397.212V127.663H383.864V109.964H397.052V113.359Z" fill="#fff"/>
<path d="M410.32 115.509V115.217C410.32 113.731 409.151 112.883 407.136 112.883C405.251 112.883 404.111 113.572 404.111 114.686C404.111 115.429 404.641 115.934 405.729 116.2L409.312 117.022C411.275 117.499 412.363 117.978 413.211 118.774C414.049 119.537 414.498 120.574 414.559 121.843V122.453C414.403 125.932 411.622 128.06 407.162 128.06C402.385 128.06 399.626 125.777 399.6 121.825H403.58C403.659 123.841 404.801 124.743 407.215 124.743C409.259 124.743 410.506 124 410.506 122.754C410.506 121.878 409.869 121.267 408.595 120.949L405.382 120.152C403.5 119.702 402.333 119.197 401.537 118.507C400.634 117.765 400.13 116.464 400.13 115.032C400.13 111.609 402.757 109.566 407.242 109.566C410.106 109.566 412.125 110.414 413.265 112.087C413.849 112.962 414.141 113.918 414.3 115.509H410.32Z" fill="#fff"/>
</svg>
