<svg width="98" height="40" viewBox="0 0 98 40" fill="none" xmlns="http://www.w3.org/2000/svg">
<path d="M1.49858 1.24761C0.0479988 2.69782 0.0479988 4.95457 1.49858 6.45769C3.00246 7.90827 5.2577 7.90827 6.70866 6.45769C8.21291 4.95457 8.21291 2.69782 6.76233 1.24761C5.31175 -0.257017 2.94916 -0.257017 1.49858 1.24761Z" fill="#FEFEFE"/>
<path d="M1.229 38.4211H7.03134V11.5615H1.229V38.4211Z" fill="#FEFEFE"/>
<path d="M54.1672 10.8631C50.0305 10.8631 46.5927 12.2063 43.9591 14.9457C41.8448 17.1031 40.5783 19.6837 40.1558 22.7013C40.1527 22.721 40.1361 22.7353 40.1164 22.7353H37.6375C37.6148 22.7353 37.597 22.7172 37.597 22.6953L37.5963 0.858676C37.5963 0.836377 37.5777 0.818237 37.5554 0.818237H31.834C31.8121 0.818237 31.7935 0.836377 31.7935 0.858676V15.2594C31.7935 15.2976 31.7463 15.312 31.7232 15.281C29.5247 12.336 26.433 10.8631 22.3935 10.8631C18.6861 10.8631 15.5714 12.2063 12.9394 14.9457C10.3058 17.6855 9.0166 21.0157 9.0166 24.9921C9.0166 28.913 10.3058 32.2975 12.9394 35.0373C15.5714 37.7767 18.6861 39.1196 22.3935 39.1196C26.4327 39.1196 29.5247 37.6471 31.7229 34.6511C31.7459 34.6201 31.7935 34.634 31.7935 34.673V38.3807C31.7935 38.403 31.8121 38.4211 31.834 38.4211H37.5554C37.5777 38.4211 37.5963 38.403 37.5963 38.3807L37.597 27.5028C37.597 27.4805 37.6148 27.4628 37.6375 27.4628H40.1414C40.161 27.4628 40.1773 27.4771 40.1803 27.4964C40.6305 30.4762 41.8985 33.0304 44.0128 35.145C46.6989 37.7767 50.2444 39.1196 54.5962 39.1196C59.79 39.1196 63.7041 37.1981 66.3358 33.3021C66.3494 33.2821 66.3433 33.2545 66.3226 33.2424L61.6106 30.4894C61.5932 30.4792 61.5706 30.4841 61.5588 30.5008C60.0009 32.6827 57.6977 33.8018 54.6499 33.8018C50.2097 33.8018 46.9419 31.5639 46.065 27.5142C46.0594 27.4885 46.0794 27.4628 46.1059 27.4628H67.3997C67.4198 27.4628 67.4371 27.4465 67.4402 27.4265C67.5974 26.4223 67.6499 25.6297 67.6499 25.0446C67.6499 21.1234 66.3607 17.7392 63.8364 14.9994C61.3109 12.26 58.0881 10.8631 54.1672 10.8631ZM37.5838 27.4223C37.5838 27.4446 37.5656 27.4628 37.5433 27.4628H31.5135C31.4995 27.4734 31.4897 27.4809 31.4761 27.4915C31.1049 28.8801 30.408 30.1031 29.3773 31.1697C27.765 32.7806 25.7236 33.5867 23.3059 33.5867C22.2861 33.5867 21.3382 33.4344 20.4572 33.1468C20.4183 33.0928 20.3896 33.0535 20.351 32.999V29.955C20.351 29.8707 20.283 29.8031 20.1987 29.8031H14.8514C14.7547 29.8031 14.6757 29.7237 14.6757 29.6273V27.1604C14.6757 27.0739 14.7456 27.0036 14.8322 27.0036H20.1987C20.283 27.0036 20.351 26.9359 20.351 26.852V23.3465C20.351 23.2626 20.283 23.1945 20.1991 23.1945H14.8514C14.7547 23.1945 14.6757 23.1156 14.6757 23.0188V20.5519C14.6757 20.4654 14.7456 20.3954 14.8322 20.3954H20.1987C20.283 20.3954 20.351 20.3274 20.351 20.2435V16.9882C20.3896 16.9338 20.4179 16.8945 20.4565 16.8404C21.3382 16.5486 22.2861 16.3963 23.3059 16.3963C25.7236 16.3963 27.765 17.2025 29.3773 18.867C30.4598 19.9502 31.1699 21.233 31.5244 22.7051C31.5388 22.7164 31.5483 22.724 31.5626 22.7353H37.5433C37.5656 22.7353 37.5838 22.7535 37.5838 22.7758V27.4223ZM61.7452 22.7353H46.0526C46.0269 22.7353 46.0068 22.7104 46.0118 22.6851C46.8312 18.6323 49.8332 16.1272 54.1132 16.1272C57.912 16.1272 60.9658 18.3662 61.7856 22.6851C61.7909 22.7104 61.7709 22.7353 61.7452 22.7353Z" fill="#FEFEFE"/>
<path d="M91.937 15.3767C89.7343 12.3678 86.6188 10.8632 82.5362 10.8632C78.8292 10.8632 75.7138 12.2064 73.0824 14.9458C70.4485 17.6856 69.1597 21.0157 69.1597 24.9922C69.1597 28.913 70.4485 32.2976 73.0824 35.0374C75.7138 37.7768 78.8292 39.1197 82.5362 39.1197C86.6188 39.1197 89.7343 37.6154 91.937 34.554V38.4212H97.7389V11.5616H91.937V15.3767ZM89.52 31.1698C87.908 32.7806 85.8667 33.5868 83.4486 33.5868C81.0319 33.5868 78.9906 32.7806 77.3783 31.1698C75.7682 29.5042 74.962 27.4628 74.962 24.9922C74.962 22.5204 75.7682 20.4787 77.3783 18.8671C78.9906 17.2026 81.0319 16.3964 83.4486 16.3964C85.8667 16.3964 87.908 17.2026 89.52 18.8671C91.1308 20.4787 91.937 22.5204 91.937 24.9922C91.937 27.4628 91.1308 29.5042 89.52 31.1698Z" fill="#FEFEFE"/>
</svg>
