<svg width="577" height="280" viewBox="0 0 577 325" fill="none" xmlns="http://www.w3.org/2000/svg">
<path d="M36.0382 285.372H40.0112L32.0375 322.127H31.2272L10.4455 293.345L4.865 322.127H0.86438L8.86526 285.372H9.64082L29.6175 314.127L36.0382 285.372ZM332.22 302.248C329.771 304.366 328.54 306.647 328.54 310.126C328.54 312.242 329.155 314.338 330.368 316.427L330.434 316.539L330.501 316.651L330.569 316.763L330.638 316.875L330.708 316.987L330.779 317.099L330.852 317.21L330.926 317.322C333.346 318.938 335.731 319.742 338.121 319.742C340.541 319.742 342.927 318.938 345.32 318.127C346.927 317.322 348.515 315.742 350.125 313.322C351.713 311.741 352.518 309.349 352.518 306.936C352.518 303.739 351.713 302.15 350.125 299.738C347.712 298.15 345.32 297.345 342.124 297.345C338.926 297.345 335.73 298.15 333.346 301.348L333.197 301.46L333.05 301.572L332.906 301.684L332.765 301.797L332.625 301.909L332.488 302.022L332.353 302.135L332.22 302.248ZM296.201 303.673C295.356 305.232 294.169 307.385 294.169 310.126L291.776 322.127H287.776L293.386 294.954H297.359L295.777 298.955C298.975 295.765 302.975 294.15 306.975 294.15C310.171 294.15 312.558 294.954 314.144 296.542C315.754 298.15 316.559 300.543 316.559 303.739C316.559 304.543 315.754 306.936 315.754 309.349L312.558 322.127H309.36L311.753 309.349C312.558 306.936 312.558 304.543 312.558 303.739C312.558 301.348 312.558 300.543 310.949 298.955C310.171 298.15 308.556 297.345 306.17 297.345C304.555 297.345 302.171 297.345 300.555 298.955C298.975 299.738 297.359 300.543 296.582 302.955L296.543 303.03L296.504 303.106L296.463 303.184L296.422 303.262L296.38 303.342L296.247 303.589L296.201 303.673ZM263.324 297.662C261.047 298.12 259.105 299.149 257.518 301.2L257.405 301.348C254.21 303.739 253.405 306.151 252.628 310.126C252.628 312.544 253.405 314.937 255.015 317.322L255.127 317.397L255.239 317.471L255.351 317.544L255.464 317.616L255.576 317.686L255.688 317.755L255.8 317.823L255.913 317.89L256.026 317.955L256.138 318.02L256.252 318.083L256.365 318.145L256.478 318.206L256.592 318.266C257.997 318.994 259.464 319.453 261.15 319.643L261.285 319.657H261.287L261.423 319.671H261.426L261.563 319.683H261.565L261.703 319.695H261.705L261.844 319.705H261.846L261.987 319.713H261.989L262.13 319.721H262.132L262.275 319.728H262.276L262.421 319.733H262.422L262.568 319.737L262.716 319.74L262.865 319.742L263.016 319.742C265.409 319.742 266.989 318.938 269.409 318.127C270.989 317.322 272.604 315.742 274.185 313.322C275.802 311.741 276.578 309.349 276.578 306.936C276.578 303.739 275.802 302.15 274.185 299.738C271.8 298.15 269.409 297.345 266.989 297.345L266.803 297.346L266.618 297.348L266.435 297.351L266.253 297.355L266.072 297.361L265.891 297.368L265.712 297.376L265.534 297.386L265.358 297.397L265.182 297.41L265.007 297.425L264.834 297.44L264.662 297.458L264.491 297.478L264.321 297.499L264.152 297.521H264.15L263.984 297.546H263.983L263.817 297.572H263.816L263.652 297.6H263.651L263.488 297.629H263.486L263.324 297.662ZM100.514 294.164C101.44 294.213 102.258 294.385 103.073 294.625L103.166 294.653H103.167L103.26 294.682H103.261L103.354 294.712L103.448 294.741L103.636 294.802L103.731 294.834L103.825 294.865L104.015 294.93L104.11 294.964L104.206 294.997L104.302 295.031L104.399 295.066L104.496 295.1L104.594 295.135L104.691 295.171L104.889 295.242L104.989 295.279L105.089 295.315L105.191 295.352L105.293 295.389L105.499 295.463L105.603 295.5L105.814 295.576L105.922 295.613L106.03 295.651L106.139 295.689L106.249 295.727L106.36 295.765C107.165 296.542 107.948 298.15 108.753 300.543C110.361 298.15 111.948 296.542 113.558 295.765C115.951 294.954 117.531 294.15 119.952 294.15C122.337 294.15 124.729 294.954 126.337 296.542C127.925 298.15 128.73 300.543 128.73 302.955C128.73 303.739 128.73 305.348 127.925 306.936L125.532 322.127H121.532L123.952 309.349C124.729 306.151 124.729 304.543 124.729 302.955C125.532 301.348 124.729 299.738 123.952 298.955C122.337 298.15 120.754 297.345 119.147 297.345C117.531 297.345 115.146 298.15 113.558 298.955C111.948 300.543 110.361 301.348 109.558 302.955C108.753 304.543 108.753 306.936 107.948 309.349L105.557 322.127H101.555L104.752 306.936C104.752 305.348 105.557 304.543 105.557 302.955C105.557 301.348 104.752 299.738 103.975 298.955C102.359 298.15 101.555 297.345 99.1638 297.345C98.3592 297.345 96.779 297.345 95.1636 298.15C93.5815 298.955 92.7768 299.738 91.1614 301.348C90.3859 302.15 89.5809 303.739 89.5809 305.348C88.7762 306.151 87.9655 307.739 87.9655 309.349L85.5806 322.127H81.58L87.1608 294.954H91.1614L90.3859 298.955C91.1614 297.345 92.7768 295.765 95.1636 294.954L95.2392 294.917L95.3148 294.881L95.3904 294.846L95.466 294.813L95.5412 294.78L95.6167 294.749L95.6923 294.718L95.7676 294.689L95.8431 294.66L95.9184 294.633L95.9936 294.607L96.0688 294.581L96.144 294.557L96.2192 294.533L96.294 294.511L96.3693 294.489L96.4445 294.469L96.5197 294.449L96.5945 294.43L96.6693 294.411L96.7446 294.394L96.8194 294.377L96.8942 294.361L96.9694 294.346L97.0443 294.332L97.1191 294.318L97.1939 294.305L97.2688 294.293L97.4184 294.27L97.4933 294.26H97.4944L97.5681 294.251H97.5693L97.643 294.241L97.7178 294.232H97.7189L97.7926 294.224H97.7938L97.8675 294.217H97.8686L97.9423 294.21H97.9438L98.0171 294.204H98.0186L98.092 294.198H98.0935L98.1664 294.192H98.1687L98.2412 294.187H98.2431L98.3161 294.182H98.3184L98.3909 294.178H98.3932L98.4658 294.175H98.4684L98.5406 294.171H98.5436L98.6154 294.168H98.6184L98.6903 294.165H98.6933L98.7655 294.162H98.7685L98.8403 294.16H98.8437L98.9151 294.158H98.9189L98.99 294.156H98.9938L99.0648 294.155H99.0694L99.14 294.154H99.1446L99.2152 294.153H99.2198L99.2901 294.152H99.295L99.3649 294.152H99.3706L99.4401 294.151H99.4458L99.5153 294.15H99.5214L99.5905 294.15H99.6722L99.7406 294.15H99.9746L100.078 294.15H100.086L100.189 294.152H100.196L100.298 294.155H100.305L100.407 294.159H100.413L100.514 294.164ZM69.1105 319.293C68.1052 320.134 66.9831 320.856 65.6039 321.323C64.6318 321.65 63.6552 321.978 62.6245 322.252H62.6234L62.5051 322.283H62.5039L62.3856 322.314H62.3845L62.2654 322.345H62.2643L62.1445 322.374H62.1434L62.0232 322.404L61.7786 322.46L61.6558 322.488L61.5318 322.515L61.4075 322.541L61.2828 322.567L61.1569 322.592L61.0303 322.616L60.9033 322.639L60.7756 322.662L60.6471 322.684L60.5174 322.705L60.3874 322.725L60.2566 322.745L60.1251 322.764L59.9924 322.782L59.859 322.799L59.7249 322.815L59.5895 322.83L59.4535 322.845L59.3167 322.858L59.1787 322.87L59.0396 322.882L58.9002 322.892L58.7592 322.902L58.6174 322.91L58.4746 322.917L58.3306 322.924L58.1858 322.929L58.0396 322.933L57.8925 322.936L57.7444 322.938L57.5951 322.938C53.5948 322.938 50.4049 321.323 48.014 318.938C45.6212 316.518 44.8161 313.322 44.8161 310.126C44.8161 306.936 46.4258 304.543 48.014 302.15C49.6214 299.738 51.2096 297.345 54.4052 296.542C56.7923 294.954 59.9879 294.15 63.2111 294.15C66.4086 294.15 69.6042 294.954 71.989 297.345C74.3819 299.738 75.1869 302.955 75.1869 306.936C75.1869 307.739 75.1869 308.544 75.1869 309.349H48.8167C48.8167 312.544 49.6214 314.937 51.2096 316.518C52.8174 318.938 55.2102 319.742 58.4077 319.742C59.9879 319.742 62.4083 318.938 63.9885 318.127L64.0637 318.089L64.2149 318.014C65.4459 317.396 66.6656 316.758 67.8913 315.749L68.0413 315.624L68.1165 315.56L68.1918 315.495L68.2666 315.429L68.3418 315.362L68.417 315.293L68.4926 315.224L68.5674 315.154L68.643 315.083L68.7182 315.01L68.7934 314.937L71.1863 317.322L71.0381 317.473L70.8892 317.625L70.8147 317.7L70.7399 317.775L70.6651 317.85L70.5902 317.925L70.515 318L70.4398 318.074L70.3638 318.148L70.2882 318.223L70.2119 318.296L70.1356 318.37L70.0588 318.443L69.9821 318.516L69.905 318.588L69.8271 318.661L69.7493 318.732L69.6711 318.804L69.5921 318.875L69.5131 318.946L69.4337 319.016L69.3536 319.086L69.2731 319.156L69.1922 319.224L69.1105 319.293ZM451.627 283.756C452.432 283.756 453.208 283.756 454.013 284.567C454.823 284.567 454.823 285.372 454.823 286.149C454.823 286.952 454.013 287.757 454.013 288.567C453.208 288.567 452.432 289.372 451.627 289.372C450.823 289.372 450.012 288.567 449.208 288.567C449.208 287.757 448.432 286.952 448.432 286.149C448.432 285.372 449.208 284.567 450.012 284.567C450.012 283.756 450.823 283.756 451.627 283.756ZM448.432 294.954H451.627L446.012 322.127H442.822L448.432 294.954ZM433.233 284.567H437.233L434.841 294.954H440.429V298.15H434.036L429.233 322.127H425.258L430.84 298.15H425.258L426.035 294.954H430.84L433.233 284.567ZM407.668 294.954H411.668L410.864 298.15C411.668 296.542 413.257 295.765 414.864 294.954C415.642 294.15 417.257 294.15 418.839 294.15C419.642 294.15 421.257 294.15 422.062 294.954L420.455 298.15C419.642 297.345 418.839 297.345 418.062 297.345C416.452 297.345 415.642 298.15 414.061 298.955C412.452 299.738 411.668 300.543 410.864 302.15C410.061 303.739 409.256 306.936 408.473 310.126L406.058 322.127H402.058L407.668 294.954ZM392.469 322.127H388.469L389.274 318.127C386.084 321.323 382.083 322.938 378.102 322.938C374.102 322.938 370.912 321.323 368.492 318.938C366.099 316.518 364.519 313.322 364.519 310.126C365.296 305.348 366.912 302.151 370.912 298.955C374.102 295.765 378.102 294.15 382.886 294.15C385.271 294.15 386.886 294.15 389.274 295.765C390.889 296.542 392.469 298.15 393.274 299.738L394.084 294.954H398.085L392.469 322.127ZM378.102 319.742C380.495 319.742 382.886 318.938 385.271 318.127C386.886 317.322 388.469 315.742 390.084 313.322C391.665 311.741 391.664 309.349 392.469 306.936C392.469 303.739 391.665 302.15 390.084 299.738C387.691 298.15 385.271 297.345 382.083 297.345C378.886 297.345 375.69 298.15 373.297 301.348C370.102 303.739 368.492 306.151 368.492 310.126C368.492 312.544 369.296 314.937 370.912 317.322C373.297 318.938 375.69 319.742 378.102 319.742ZM352.518 322.127H349.32L350.125 318.127C346.124 321.323 342.124 322.938 338.121 322.938L337.934 322.937L337.749 322.933L337.564 322.927L337.381 322.919L337.198 322.909L337.018 322.896L336.838 322.881L336.659 322.864L336.482 322.845L336.305 322.823L336.13 322.799L335.956 322.773L335.783 322.745L335.612 322.715L335.441 322.683L335.272 322.648L335.104 322.612L334.937 322.574L334.772 322.533L334.607 322.49L334.444 322.446L334.281 322.4L334.121 322.351L333.961 322.301L333.802 322.249L333.645 322.195L333.488 322.139L333.334 322.081L333.18 322.022C331.391 321.316 329.841 320.242 328.532 318.938C327.004 317.387 325.793 315.518 325.332 313.536L325.3 313.39L325.27 313.244L325.243 313.098L325.219 312.952L325.198 312.805L325.18 312.658L325.164 312.511L325.151 312.363L325.142 312.215L325.135 312.067L325.132 311.919L325.132 311.77L325.134 311.621L325.14 311.472L325.149 311.323L325.161 311.174L325.177 311.024L325.196 310.875L325.219 310.725L325.245 310.575L325.274 310.425L325.307 310.276L325.343 310.126C325.343 305.348 326.952 302.151 330.926 298.955C334.121 295.765 338.121 294.15 342.927 294.15C345.32 294.15 346.927 294.15 348.515 295.765C350.929 296.542 352.518 298.15 353.32 299.738L356.518 284.567H360.518L352.518 322.127ZM276.578 322.127H273.382L274.185 318.127C270.184 321.323 266.211 322.938 262.211 322.938C258.211 322.938 255.015 321.323 252.628 318.938C250.21 316.518 248.627 313.322 249.432 310.126C249.432 305.348 251.012 302.151 255.015 298.955C258.21 295.765 262.211 294.15 266.989 294.15C269.409 294.15 270.989 294.15 273.382 295.765C274.989 296.542 276.578 298.15 277.382 299.738L278.187 294.954H282.187L276.578 322.127ZM237.429 284.567H241.431L239.038 294.954H245.432L244.621 298.15H239.038L233.429 322.127H230.233L235.038 298.15H230.233V294.954H235.843L237.429 284.567ZM222.259 298.15L219.839 300.543C218.257 298.15 216.641 297.345 214.257 297.345C213.446 297.345 211.866 298.15 211.061 298.955C210.25 298.955 209.446 300.543 209.446 301.348C209.446 302.15 209.446 302.955 210.25 302.955C211.061 303.739 211.866 304.543 213.446 306.151C216.641 307.739 218.257 309.349 219.034 310.126C219.839 311.741 219.839 313.322 219.839 314.937C219.839 317.322 219.034 318.938 217.446 320.52C215.061 322.127 213.446 322.938 210.25 322.938C207.06 322.938 203.863 321.323 201.472 318.127L203.863 315.742C206.248 318.127 207.863 319.742 211.061 319.742C212.641 319.742 213.446 318.938 215.061 318.127C215.839 317.322 216.641 315.742 216.641 314.937C216.641 314.127 215.839 312.544 215.061 311.741C215.061 310.937 213.446 310.126 211.061 308.544C208.668 306.936 207.863 306.151 207.06 304.543C206.248 303.739 205.473 302.955 205.473 301.348C206.248 299.738 207.06 297.345 208.668 296.542C210.25 294.954 212.641 294.15 215.061 294.15C216.641 294.15 217.446 294.15 219.034 294.954C219.839 295.765 221.447 296.542 222.259 298.15ZM167.906 298.15L166.296 300.543C164.708 298.15 162.296 297.345 159.903 297.345C159.098 297.345 157.518 298.15 156.707 298.955C155.902 298.955 155.098 300.543 155.098 301.348C155.098 302.15 155.902 302.955 155.902 302.955C156.707 303.739 157.518 304.543 159.903 306.151C162.296 307.739 163.903 309.349 164.708 310.126C165.492 311.741 166.296 313.322 166.296 314.937C165.492 317.322 164.708 318.938 163.101 320.52C161.518 322.127 159.098 322.938 155.902 322.938C152.707 322.938 149.517 321.323 147.124 318.127L149.517 315.742C151.902 318.127 154.322 319.742 156.707 319.742C158.296 319.742 159.098 318.938 160.708 318.127C161.518 317.322 162.296 315.742 162.296 314.937C162.296 314.127 162.296 312.544 161.518 311.741C160.708 310.937 159.098 310.126 157.518 308.544C155.098 306.936 153.518 306.151 152.707 304.543C151.902 303.739 151.902 302.955 151.902 301.348C151.902 299.738 152.707 297.345 154.322 296.542C155.902 294.954 158.296 294.15 160.708 294.15C162.296 294.15 163.903 294.15 164.708 294.954C165.492 295.765 167.101 296.542 167.906 298.15ZM143.929 283.756C145.517 283.756 145.517 283.756 146.32 284.567C147.124 284.567 147.124 285.372 147.124 286.149C147.124 286.952 147.124 287.757 146.32 288.567C145.517 288.567 144.704 289.372 143.929 289.372C143.124 289.372 142.319 288.567 141.509 288.567C141.509 287.757 140.731 286.952 141.509 286.149C141.509 285.372 141.509 284.567 142.319 284.567C143.124 283.756 143.124 283.756 143.929 283.756ZM140.731 294.954H143.929L139.123 322.127H135.123L140.731 294.954ZM71.1863 306.151C71.989 303.739 70.382 301.348 68.7934 299.738L68.7182 299.664L68.643 299.591L68.4922 299.45L68.4163 299.38L68.3407 299.312L68.2647 299.245L68.1887 299.179L68.1124 299.115L68.0356 299.051L67.9585 298.989L67.8032 298.868C66.8406 298.134 65.7736 297.664 64.2909 297.461H64.2886L64.1696 297.445H64.1673L64.0464 297.43H64.0445L63.9213 297.417H63.9194L63.7943 297.404H63.7924L63.6654 297.393H63.6631L63.5342 297.383H63.5327L63.4012 297.374H63.3997L63.2659 297.366H63.2644L63.1283 297.36H63.1272L62.9888 297.355H62.9877L62.8471 297.351L62.7031 297.347L62.5568 297.346L62.4083 297.345C59.9879 297.345 56.7923 298.15 54.4052 299.738C52.0142 301.348 50.4049 303.739 49.6214 306.151H71.1863Z" fill="#fff"/>
<path fill-rule="evenodd" clip-rule="evenodd" d="M510.751 79.951H576.297L569.912 115.127H543.542L537.149 147.888H561.104L555.516 181.456H531.539L505.976 324.52H466.799L510.751 79.951ZM497.17 79.951H457.211L433.233 208.629C431.645 217.434 430.036 223.023 428.455 225.408C427.645 227.828 426.035 228.605 422.84 228.605C421.257 228.605 419.642 227.828 419.642 225.408C418.839 223.828 419.642 219.015 421.257 211.041L446.012 79.951H405.256L386.084 183.868C382.886 203.04 380.495 215.825 379.69 222.212C379.69 228.605 380.495 234.214 382.886 239.802C385.271 245.412 389.274 250.196 395.665 253.386C402.863 256.583 410.061 258.198 419.642 258.198C427.645 258.198 434.841 257.394 442.039 254.198C448.432 251.001 454.013 247 458.826 241.412C463.602 235.802 466.799 230.213 468.407 224.632C470.8 219.015 472.409 210.236 474.8 196.655L497.17 79.951ZM334.121 192.652C335.731 172.67 338.121 148.693 342.124 119.127C331.73 152.693 324.532 176.67 321.342 192.652H334.121ZM374.885 79.951L362.099 255.001H326.148L329.343 223.023H315.754L306.975 255.001H267.8L323.755 79.951H374.885ZM291.776 79.951H258.211L243.816 159.086L235.843 79.951H202.247L169.492 255.001H203.06L218.257 175.063L223.839 255.001H259.015L291.776 79.951ZM184.691 81.5603L151.902 160.696L159.903 255.001H123.147L115.951 192.652L104.753 255.001H66.4086L106.36 0.0400391H144.704L124.729 139.914L149.517 81.5603H184.691Z" fill="#fff"/>
</svg>
