<svg width="400" height="50" viewBox="0 0 347 39" fill="none" xmlns="http://www.w3.org/2000/svg">
<path d="M184.065 7.72627H185.611L185.227 0.737171H183.163L182.416 3.06007C182.188 3.83789 181.95 4.76049 181.753 5.56969H181.722C181.566 4.75029 181.348 3.87911 181.131 3.07029L180.446 0.737171H178.341L177.895 7.72627H179.357L179.482 5.07193C179.534 4.20075 179.565 3.12208 179.606 2.17871H179.627C179.793 3.09108 180.031 4.08658 180.259 4.90598L181.006 7.61252H182.24L183.09 4.8852C183.36 4.0658 183.65 3.0703 183.868 2.17871H183.9C183.9 3.19464 183.931 4.21096 183.962 5.05115L184.065 7.72627ZM186.824 0.737171V7.72627H188.628L190.049 5.20646C190.463 4.47021 190.909 3.54726 191.231 2.71766H191.262C191.169 3.63041 191.148 4.58435 191.148 5.66303V7.72627H192.6V0.737171H190.982L189.478 3.48526C189.063 4.23172 188.597 5.1547 188.234 5.9741H188.192C188.255 5.04056 188.275 3.93125 188.275 2.811V0.737171H186.824ZM193.979 0.737171V7.72627H195.565V4.80205H198.168V7.72627H199.744V0.737171H198.168V3.42292H195.565V0.737171H193.979ZM201.124 0.737171V7.72627H202.928L204.349 5.20646C204.764 4.47021 205.21 3.54726 205.531 2.71766H205.562C205.469 3.63041 205.448 4.58435 205.448 5.66303V7.72627H206.9V0.737171H205.282L203.778 3.48526C203.364 4.23172 202.897 5.1547 202.534 5.9741H202.493C202.555 5.04056 202.576 3.93125 202.576 2.811V0.737171H201.124ZM213.174 6.29536C212.862 6.41971 212.334 6.52365 211.857 6.52365C210.447 6.52365 209.617 5.64225 209.617 4.24231C209.617 2.68666 210.592 1.9296 211.846 1.9296C212.406 1.9296 212.852 2.05396 213.174 2.18889L213.495 0.934083C213.215 0.788949 212.593 0.623047 211.774 0.623047C209.658 0.623047 207.958 1.9504 207.958 4.33566C207.958 6.32633 209.202 7.83021 211.618 7.83021C212.469 7.83021 213.122 7.67449 213.412 7.52936L213.174 6.29536ZM215.994 7.72627H217.581V2.06455H219.489V0.737171H214.117V2.06455H215.994V7.72627ZM224.487 3.48526H221.916V2.03317H224.643V0.737171H220.329V7.72627H224.788V6.43027H221.916V4.77108H224.487V3.48526ZM225.867 7.72627H227.433V5.22724C227.578 5.24803 227.764 5.25825 227.971 5.25825C228.905 5.25825 229.703 5.03036 230.243 4.52201C230.657 4.12819 230.885 3.54726 230.885 2.86279C230.885 2.17869 230.585 1.59779 230.139 1.24516C229.672 0.871738 228.978 0.685387 228.003 0.685387C227.038 0.685387 226.354 0.747402 225.867 0.830552V7.72627ZM227.433 1.9402C227.546 1.90883 227.764 1.87786 228.086 1.87786C228.874 1.87786 229.32 2.26145 229.32 2.90435C229.32 3.61981 228.801 4.04503 227.961 4.04503C227.733 4.04503 227.567 4.03483 227.433 4.00384V1.9402ZM236.755 6.29536C236.444 6.41971 235.915 6.52365 235.438 6.52365C234.028 6.52365 233.198 5.64225 233.198 4.24231C233.198 2.68666 234.173 1.9296 235.428 1.9296C235.987 1.9296 236.433 2.05396 236.755 2.18889L237.076 0.934083C236.796 0.788949 236.174 0.623047 235.355 0.623047C233.239 0.623047 231.539 1.9504 231.539 4.33566C231.539 6.32633 232.783 7.83021 235.199 7.83021C236.05 7.83021 236.703 7.67449 236.994 7.52936L236.755 6.29536ZM239.575 7.72627H241.162V2.06455H243.07V0.737171H237.698V2.06455H239.575V7.72627ZM243.91 7.6953C244.263 7.74708 244.843 7.79924 245.621 7.79924C247.011 7.79924 247.861 7.57095 248.369 7.16654C248.805 6.81391 249.095 6.31614 249.095 5.68344C249.095 4.78127 248.504 4.17995 247.705 3.96224V3.94146C248.494 3.6512 248.856 3.07029 248.856 2.44818C248.856 1.81549 248.504 1.33849 248.017 1.07921C247.509 0.778738 246.917 0.685387 245.953 0.685387C245.165 0.685387 244.325 0.747402 243.91 0.830552V7.6953ZM245.476 1.87786C245.611 1.85707 245.808 1.83626 246.15 1.83626C246.866 1.83626 247.27 2.11634 247.27 2.64509C247.27 3.16365 246.824 3.50608 245.995 3.50608H245.476V1.87786ZM245.476 4.63614H246.015C246.803 4.63614 247.436 4.91621 247.436 5.62147C247.436 6.35772 246.803 6.62718 246.088 6.62718C245.818 6.62718 245.632 6.62719 245.476 6.6064V4.63614ZM253.212 0.623047C251.148 0.623047 249.811 2.18889 249.811 4.2835C249.811 6.27456 251.024 7.84043 253.098 7.84043C255.141 7.84043 256.53 6.45106 256.53 4.15916C256.53 2.23046 255.359 0.623047 253.212 0.623047ZM253.17 1.87786C254.259 1.87786 254.861 2.95614 254.861 4.21094C254.861 5.56968 254.249 6.58562 253.181 6.58562C252.123 6.58562 251.48 5.62148 251.48 4.25254C251.48 2.89418 252.102 1.87786 253.17 1.87786ZM259.662 0.737171V7.72627H261.249V2.03317H263.727V7.72627H265.314V0.737171H259.662ZM269.762 0.623047C267.699 0.623047 266.361 2.18889 266.361 4.2835C266.361 6.27456 267.574 7.84043 269.648 7.84043C271.691 7.84043 273.081 6.45106 273.081 4.15916C273.081 2.23046 271.909 0.623047 269.762 0.623047ZM269.721 1.87786C270.81 1.87786 271.411 2.95614 271.411 4.21094C271.411 5.56968 270.799 6.58562 269.731 6.58562C268.674 6.58562 268.031 5.62148 268.031 4.25254C268.031 2.89418 268.653 1.87786 269.721 1.87786ZM276.213 7.72627H277.778V5.22724C277.924 5.24803 278.11 5.25825 278.317 5.25825C279.251 5.25825 280.049 5.03036 280.589 4.52201C281.004 4.12819 281.231 3.54726 281.231 2.86279C281.231 2.17869 280.931 1.59779 280.485 1.24516C280.018 0.871738 279.324 0.685387 278.349 0.685387C277.384 0.685387 276.7 0.747402 276.213 0.830552V7.72627ZM277.778 1.9402C277.892 1.90883 278.11 1.87786 278.432 1.87786C279.22 1.87786 279.666 2.26145 279.666 2.90435C279.666 3.61981 279.147 4.04503 278.307 4.04503C278.079 4.04503 277.913 4.03483 277.778 4.00384V1.9402ZM285.234 5.93251L285.774 7.72627H287.474L285.307 0.737171H283.233L281.096 7.72627H282.735L283.233 5.93251H285.234ZM283.461 4.7503L283.876 3.26757C283.99 2.86278 284.094 2.33403 284.197 1.91942H284.218C284.322 2.33403 284.446 2.85258 284.571 3.26757L285.006 4.7503H283.461ZM288.563 2.31324C288.957 2.11633 289.559 1.89864 290.098 1.89864C290.772 1.89864 291.155 2.20969 291.155 2.66587C291.155 3.21542 290.616 3.54727 289.901 3.54727H289.247V4.7087H289.911C290.565 4.7087 291.373 4.86443 291.373 5.64225C291.373 6.22279 290.886 6.55462 290.087 6.55462C289.434 6.55462 288.708 6.30593 288.397 6.14001L288.065 7.35323C288.646 7.68507 289.434 7.84043 290.16 7.84043C291.467 7.84043 293.043 7.30147 293.043 5.74582C293.043 4.80207 292.276 4.20073 291.404 4.08659V4.06581C292.213 3.8689 292.804 3.28798 292.804 2.41718C292.804 1.39028 291.902 0.623047 290.367 0.623047C289.403 0.623047 288.677 0.892502 288.19 1.18315L288.563 2.31324ZM294.09 7.6953C294.443 7.74708 295.023 7.79924 295.801 7.79924C297.191 7.79924 298.041 7.57095 298.549 7.16654C298.985 6.81391 299.275 6.31614 299.275 5.68344C299.275 4.78127 298.684 4.17995 297.886 3.96224V3.94146C298.674 3.6512 299.037 3.07029 299.037 2.44818C299.037 1.81549 298.684 1.33849 298.197 1.07921C297.689 0.778738 297.098 0.685387 296.133 0.685387C295.345 0.685387 294.505 0.747402 294.09 0.830552V7.6953ZM295.656 1.87786C295.791 1.85707 295.988 1.83626 296.33 1.83626C297.046 1.83626 297.45 2.11634 297.45 2.64509C297.45 3.16365 297.004 3.50608 296.175 3.50608H295.656V1.87786ZM295.656 4.63614H296.195C296.983 4.63614 297.616 4.91621 297.616 5.62147C297.616 6.35772 296.983 6.62718 296.268 6.62718C295.998 6.62718 295.812 6.62719 295.656 6.6064V4.63614ZM300.354 0.737171V7.72627H302.158L303.579 5.20646C303.994 4.47021 304.439 3.54726 304.761 2.71766H304.792C304.698 3.63041 304.678 4.58435 304.678 5.66303V7.72627H306.13V0.737171H304.512L303.008 3.48526C302.594 4.23172 302.127 5.1547 301.764 5.9741H301.723C301.785 5.04056 301.805 3.93125 301.805 2.811V0.737171H300.354ZM308.857 7.72627H310.444V2.06455H312.352V0.737171H306.98V2.06455H308.857V7.72627ZM313.191 0.737171V7.72627H314.996L316.417 5.20646C316.832 4.47021 317.278 3.54726 317.599 2.71766H317.63C317.536 3.63041 317.516 4.58435 317.516 5.66303V7.72627H318.968V0.737171H317.35L315.846 3.48526C315.432 4.23172 314.965 5.1547 314.602 5.9741H314.56C314.623 5.04056 314.643 3.93125 314.643 2.811V0.737171H313.191ZM320.347 0.737171V7.72627H321.923V4.79186H322.722C322.887 6.56521 323.987 7.84043 325.718 7.84043C327.585 7.84043 328.871 6.46127 328.871 4.15916C328.871 2.23046 327.793 0.623047 325.822 0.623047C324.184 0.623047 323.043 1.78448 322.763 3.46448H321.923V0.737171H320.347ZM325.771 6.59621C324.816 6.59621 324.267 5.5591 324.267 4.24231C324.267 2.94594 324.795 1.86726 325.781 1.86726C326.755 1.86726 327.274 2.95614 327.274 4.21094C327.274 5.56968 326.735 6.59621 325.771 6.59621ZM178.051 11.016V18.0051H179.855L181.276 15.4853C181.69 14.749 182.136 13.8261 182.458 12.9965H182.489C182.396 13.9092 182.375 14.8632 182.375 15.9415V18.0051H183.827V11.016H182.209L180.705 13.7637C180.29 14.5105 179.824 15.4335 179.461 16.2525H179.42C179.482 15.3194 179.502 14.2097 179.502 13.0898V11.016H178.051ZM185.206 11.016V18.0051H186.793V15.0809H189.395V18.0051H190.972V11.016H189.395V13.7017H186.793V11.016H185.206ZM195.026 10.7253V11.3372C193.678 11.4514 192.029 12.3328 192.029 14.5415C192.029 16.6883 193.492 17.5489 195.006 17.663V18.2954H196.488V17.663C198.033 17.5179 199.486 16.6467 199.486 14.4897C199.486 12.312 197.992 11.4412 196.509 11.3372V10.7253H195.026ZM195.016 16.5636C194.394 16.4808 193.616 15.8795 193.616 14.5105C193.616 13.038 194.404 12.4987 195.016 12.4159V16.5636ZM196.499 12.4159C197.152 12.4987 197.899 13.0172 197.899 14.4897C197.899 15.9725 197.11 16.491 196.499 16.5636V12.4159ZM203.613 10.9018C201.549 10.9018 200.211 12.4677 200.211 14.5623C200.211 16.5534 201.424 18.1192 203.499 18.1192C205.541 18.1192 206.931 16.7295 206.931 14.438C206.931 12.5089 205.759 10.9018 203.613 10.9018ZM203.571 12.1567C204.66 12.1567 205.261 13.2349 205.261 14.4897C205.261 15.8481 204.65 16.8644 203.581 16.8644C202.524 16.8644 201.881 15.8999 201.881 14.5313C201.881 13.173 202.503 12.1567 203.571 12.1567ZM207.968 18.0051H209.534V15.5061C209.679 15.5269 209.866 15.537 210.073 15.537C211.006 15.537 211.805 15.3092 212.344 14.8008C212.759 14.4066 212.987 13.8261 212.987 13.1416C212.987 12.4571 212.686 11.8766 212.24 11.524C211.774 11.1505 211.079 10.9638 210.104 10.9638C209.14 10.9638 208.456 11.0262 207.968 11.1089V18.0051ZM209.534 12.2186C209.648 12.1876 209.866 12.1567 210.187 12.1567C210.975 12.1567 211.421 12.5402 211.421 13.1831C211.421 13.8986 210.903 14.3238 210.063 14.3238C209.835 14.3238 209.669 14.3136 209.534 14.2822V12.2186ZM219.873 18.0051H221.418L221.034 11.016H218.971L218.224 13.3385C217.996 14.1163 217.757 15.0393 217.56 15.8481H217.529C217.374 15.0291 217.156 14.1579 216.938 13.3491L216.254 11.016H214.149L213.703 18.0051H215.165L215.289 15.3504C215.341 14.4796 215.372 13.4008 215.414 12.4571H215.434C215.6 13.3699 215.839 14.3654 216.067 15.1844L216.814 17.8909H218.048L218.898 15.1636C219.167 14.3446 219.458 13.3491 219.676 12.4571H219.707C219.707 13.4734 219.738 14.4897 219.769 15.3295L219.873 18.0051ZM226.26 16.2113L226.8 18.0051H228.501L226.333 11.016H224.259L222.123 18.0051H223.761L224.259 16.2113H226.26ZM224.488 15.0291L224.902 13.546C225.016 13.1416 225.12 12.6128 225.224 12.1979H225.244C225.348 12.6128 225.472 13.1314 225.597 13.546L226.033 15.0291H224.488ZM229.434 11.016V18.0051H234.393L234.475 19.7784H235.68L235.752 16.802L235.044 16.7609V11.016H233.468V16.7091H231.02V11.016H229.434ZM236.63 11.016V18.0051H238.435L239.855 15.4853C240.27 14.749 240.716 13.8261 241.038 12.9965H241.069C240.976 13.9092 240.955 14.8632 240.955 15.9415V18.0051H242.407V11.016H240.789L239.285 13.7637C238.87 14.5105 238.404 15.4335 238.041 16.2525H237.999C238.062 15.3194 238.082 14.2097 238.082 13.0898V11.016H236.63ZM246.866 10.9018C244.802 10.9018 243.464 12.4677 243.464 14.5623C243.464 16.5534 244.678 18.1192 246.752 18.1192C248.794 18.1192 250.184 16.7295 250.184 14.438C250.184 12.5089 249.012 10.9018 246.866 10.9018ZM246.824 12.1567C247.913 12.1567 248.514 13.2349 248.514 14.4897C248.514 15.8481 247.902 16.8644 246.835 16.8644C245.777 16.8644 245.134 15.8999 245.134 14.5313C245.134 13.173 245.756 12.1567 246.824 12.1567ZM251.221 11.016V18.0051H252.807V15.0809H255.41V18.0051H256.987V11.016H255.41V13.7017H252.807V11.016H251.221ZM258.366 11.016V18.0051H259.953V15.0809H262.555V18.0051H264.132V11.016H262.555V13.7017H259.953V11.016H258.366ZM265.511 11.016V17.9741C265.864 18.0259 266.444 18.0776 267.201 18.0776C268.228 18.0776 269.4 17.8705 270.073 17.1861C270.416 16.8228 270.634 16.3357 270.634 15.6822C270.634 14.1061 269.306 13.3907 267.865 13.3907C267.605 13.3907 267.284 13.4217 267.087 13.4527V11.016H265.511ZM267.077 14.6455C267.232 14.6247 267.419 14.6039 267.637 14.6039C268.238 14.6039 268.974 14.9252 268.974 15.7238C268.974 16.491 268.311 16.8954 267.616 16.8954C267.398 16.8954 267.211 16.8852 267.077 16.8542V14.6455ZM271.277 11.016V18.0051H272.853V11.016H271.277ZM279.852 18.0051L277.778 14.4274L279.749 11.016H277.944L277.353 12.2912C277.177 12.6956 277.042 13.0071 276.876 13.4527H276.856C276.69 13.0588 276.534 12.7164 276.327 12.2912L275.715 11.016H273.9L275.85 14.469L273.827 18.0051H275.632L276.213 16.7401C276.43 16.2525 276.607 15.8897 276.752 15.4853H276.772C276.97 15.8897 277.136 16.2525 277.395 16.7401L278.027 18.0051H279.852ZM284.145 18.0051H285.732V12.343H287.64V11.016H282.269V12.343H284.145V18.0051ZM292.638 13.7637H290.067V12.312H292.794V11.016H288.48V18.0051H292.939V16.7091H290.067V15.0499H292.638V13.7637ZM299.524 18.0051L297.45 14.4274L299.42 11.016H297.616L297.025 12.2912C296.849 12.6956 296.714 13.0071 296.548 13.4527H296.527C296.361 13.0588 296.206 12.7164 295.998 12.2912L295.387 11.016H293.572L295.521 14.469L293.499 18.0051H295.304L295.884 16.7401C296.102 16.2525 296.278 15.8897 296.424 15.4853H296.444C296.641 15.8897 296.807 16.2525 297.067 16.7401L297.699 18.0051H299.524ZM300.374 11.016V18.0051H301.961V15.0809H304.564V18.0051H306.14V11.016H304.564V13.7017H301.961V11.016H300.374ZM310.599 10.9018C308.535 10.9018 307.198 12.4677 307.198 14.5623C307.198 16.5534 308.411 18.1192 310.485 18.1192C312.528 18.1192 313.918 16.7295 313.918 14.438C313.918 12.5089 312.746 10.9018 310.599 10.9018ZM310.558 12.1567C311.647 12.1567 312.248 13.2349 312.248 14.4897C312.248 15.8481 311.636 16.8644 310.568 16.8644C309.511 16.8644 308.867 15.8999 308.867 14.5313C308.867 13.173 309.49 12.1567 310.558 12.1567ZM315.411 11.016V14.0748C315.411 15.1327 315.307 16.0246 314.882 16.46C314.706 16.6467 314.426 16.7918 314.083 16.8334L314.281 18.109C314.841 18.109 315.317 17.9635 315.67 17.7666C316.728 17.1445 316.956 15.7653 316.956 13.9712V12.312H318.543V18.0051H320.119V11.016H315.411ZM324.578 10.9018C322.515 10.9018 321.177 12.4677 321.177 14.5623C321.177 16.5534 322.39 18.1192 324.464 18.1192C326.507 18.1192 327.896 16.7295 327.896 14.438C327.896 12.5089 326.725 10.9018 324.578 10.9018ZM324.536 12.1567C325.625 12.1567 326.227 13.2349 326.227 14.4897C326.227 15.8481 325.615 16.8644 324.547 16.8644C323.489 16.8644 322.846 15.8999 322.846 14.5313C322.846 13.173 323.468 12.1567 324.536 12.1567ZM328.933 11.016V18.0051H330.52V12.312H333.164V11.016H328.933ZM334.004 11.016V18.0051H335.809L337.229 15.4853C337.644 14.749 338.09 13.8261 338.412 12.9965H338.442C338.349 13.9092 338.328 14.8632 338.328 15.9415V18.0051H339.78V11.016H338.162L336.659 13.7637C336.244 14.5105 335.778 15.4335 335.414 16.2525H335.373C335.435 15.3194 335.456 14.2097 335.456 13.0898V11.016H334.004ZM341.159 11.016V18.0051H342.964L344.384 15.4853C344.799 14.749 345.245 13.8261 345.567 12.9965H345.598C345.505 13.9092 345.484 14.8632 345.484 15.9415V18.0051H346.935V11.016H345.318L343.814 13.7637C343.399 14.5105 342.933 15.4335 342.57 16.2525H342.528C342.591 15.3194 342.611 14.2097 342.611 13.0898V11.016H341.159ZM342.507 9.41875C342.591 10.2899 343.109 10.6943 344.021 10.6943C344.944 10.6943 345.525 10.3107 345.587 9.41875H344.53C344.488 9.82316 344.364 10.0515 344.042 10.0515C343.71 10.0515 343.596 9.82316 343.586 9.41875H342.507ZM178.051 21.2944V28.2839H179.855L181.276 25.7641C181.69 25.0278 182.136 24.1049 182.458 23.2753H182.489C182.396 24.1876 182.375 25.1416 182.375 26.2203V28.2839H183.827V21.2944H182.209L180.705 24.0425C180.29 24.7893 179.824 25.7119 179.461 26.5313H179.42C179.482 25.5982 179.502 24.4885 179.502 23.3686V21.2944H178.051ZM187.301 21.2944V28.2839H188.867V25.3597H189.167C190.017 25.3597 190.339 25.961 190.578 26.749C190.743 27.2676 190.878 27.8069 191.117 28.2839H192.817C192.485 27.5892 192.258 26.8322 192.009 26.0853C191.718 25.2455 191.314 24.6234 190.412 24.3951L192.849 21.2944H190.93L189.002 24.1982H188.867V21.2944H187.301ZM196.478 21.1803C194.415 21.1803 193.077 22.7461 193.077 24.8411C193.077 26.8322 194.29 28.398 196.364 28.398C198.407 28.398 199.797 27.0083 199.797 24.7164C199.797 22.7877 198.625 21.1803 196.478 21.1803ZM196.437 22.4351C197.526 22.4351 198.127 23.5137 198.127 24.7685C198.127 26.1269 197.515 27.1432 196.447 27.1432C195.389 27.1432 194.746 26.1787 194.746 24.8097C194.746 23.4514 195.369 22.4351 196.437 22.4351ZM206.796 28.2839H208.341L207.958 21.2944H205.894L205.147 23.6173C204.919 24.3951 204.681 25.3181 204.484 26.1269H204.453C204.297 25.3075 204.079 24.4367 203.861 23.6279L203.177 21.2944H201.072L200.626 28.2839H202.088L202.213 25.6292C202.265 24.758 202.296 23.6797 202.337 22.7359H202.358C202.524 23.6487 202.762 24.6438 202.99 25.4632L203.737 28.1698H204.971L205.822 25.4424C206.091 24.6234 206.381 23.6279 206.599 22.7359H206.63C206.63 23.7522 206.661 24.7685 206.692 25.6083L206.796 28.2839ZM215.569 28.2839H217.114L216.731 21.2944H214.667L213.92 23.6173C213.692 24.3951 213.454 25.3181 213.257 26.1269H213.226C213.07 25.3075 212.852 24.4367 212.634 23.6279L211.95 21.2944H209.845L209.399 28.2839H210.861L210.986 25.6292C211.038 24.758 211.069 23.6797 211.11 22.7359H211.131C211.297 23.6487 211.535 24.6438 211.763 25.4632L212.51 28.1698H213.744L214.594 25.4424C214.864 24.6234 215.154 23.6279 215.372 22.7359H215.403C215.403 23.7522 215.434 24.7685 215.465 25.6083L215.569 28.2839ZM217.591 21.2944L219.945 26.0959C219.997 26.2097 220.028 26.303 219.966 26.4172C219.842 26.7388 219.51 27.0707 219.022 27.0707C218.794 27.0707 218.628 27.0499 218.504 27.0189L218.39 28.2839C218.587 28.3564 218.805 28.398 219.167 28.398C219.987 28.398 220.567 28.0454 221.024 27.4751C221.542 26.8322 221.978 25.7743 222.403 24.6854L223.71 21.2944H222.05L221.293 23.7315C221.117 24.3226 221.003 24.7893 220.91 25.0898H220.878C220.723 24.6646 220.578 24.25 220.391 23.7522L219.375 21.2944H217.591ZM224.342 21.2944V28.2839H225.929V25.3597H228.532V28.2839H230.108V21.2944H228.532V23.9802H225.929V21.2944H224.342ZM231.487 21.2944V28.2839H233.292L234.712 25.7641C235.127 25.0278 235.573 24.1049 235.894 23.2753H235.925C235.832 24.1876 235.811 25.1416 235.811 26.2203V28.2839H237.263V21.2944H235.645L234.142 24.0425C233.727 24.7893 233.26 25.7119 232.897 26.5313H232.856C232.918 25.5982 232.939 24.4885 232.939 23.3686V21.2944H231.487ZM238.642 21.2944V28.2839H240.208V25.3597H240.509C241.359 25.3597 241.681 25.961 241.919 26.749C242.085 27.2676 242.22 27.8069 242.458 28.2839H244.159C243.827 27.5892 243.599 26.8322 243.35 26.0853C243.06 25.2455 242.655 24.6234 241.753 24.3951L244.19 21.2944H242.272L240.343 24.1982H240.208V21.2944H238.642ZM248.67 26.4897L249.209 28.2839H250.91L248.743 21.2944H246.669L244.532 28.2839H246.171L246.669 26.4897H248.67ZM246.897 25.3075L247.312 23.8248C247.425 23.4204 247.529 22.8916 247.633 22.4767H247.654C247.757 22.8916 247.882 23.4098 248.006 23.8248L248.442 25.3075H246.897ZM251.843 21.2944V28.2839H256.802L256.885 30.0573H258.089L258.162 27.0809L257.453 27.0393V21.2944H255.877V26.9875H253.43V21.2944H251.843ZM259.04 21.2944V28.2839H260.844L262.265 25.7641C262.68 25.0278 263.126 24.1049 263.447 23.2753H263.478C263.385 24.1876 263.364 25.1416 263.364 26.2203V28.2839H264.816V21.2944H263.198L261.695 24.0425C261.28 24.7893 260.813 25.7119 260.45 26.5313H260.409C260.471 25.5982 260.492 24.4885 260.492 23.3686V21.2944H259.04ZM266.195 21.2944V28.2839H268L269.42 25.7641C269.835 25.0278 270.281 24.1049 270.602 23.2753H270.634C270.54 24.1876 270.52 25.1416 270.52 26.2203V28.2839H271.971V21.2944H270.354L268.85 24.0425C268.435 24.7893 267.968 25.7119 267.605 26.5313H267.564C267.626 25.5982 267.647 24.4885 267.647 23.3686V21.2944H266.195ZM267.543 19.6976C267.626 20.5687 268.145 20.9731 269.057 20.9731C269.98 20.9731 270.561 20.5895 270.623 19.6976H269.566C269.524 20.102 269.4 20.3303 269.078 20.3303C268.746 20.3303 268.632 20.102 268.622 19.6976H267.543ZM178.051 38.5627H179.617V36.0633C179.762 36.0841 179.948 36.0947 180.156 36.0947C181.089 36.0947 181.888 35.8664 182.427 35.358C182.842 34.9642 183.07 34.3833 183.07 33.6992C183.07 33.0147 182.769 32.4338 182.323 32.0812C181.856 31.7082 181.162 31.5214 180.187 31.5214C179.222 31.5214 178.538 31.5834 178.051 31.6666V38.5627ZM179.617 32.7762C179.731 32.7449 179.948 32.7139 180.27 32.7139C181.058 32.7139 181.504 33.0975 181.504 33.7404C181.504 34.4562 180.985 34.8811 180.145 34.8811C179.917 34.8811 179.751 34.8708 179.617 34.8398V32.7762ZM188.234 34.3213H185.662V32.8696H188.39V31.5732H184.076V38.5627H188.535V37.2663H185.662V35.6071H188.234V34.3213ZM194.508 37.1314C194.197 37.2557 193.668 37.3597 193.191 37.3597C191.781 37.3597 190.951 36.4783 190.951 35.0784C190.951 33.5227 191.926 32.7656 193.181 32.7656C193.74 32.7656 194.186 32.89 194.508 33.0249L194.829 31.7701C194.549 31.625 193.927 31.4591 193.108 31.4591C190.993 31.4591 189.292 32.7864 189.292 35.1717C189.292 37.1627 190.536 38.6662 192.952 38.6662C193.803 38.6662 194.456 38.5105 194.746 38.3654L194.508 37.1314ZM195.783 31.5732V38.5627H197.37V32.8696H199.848V38.5627H201.435V31.5732H195.783ZM202.12 31.5732L204.473 36.3744C204.525 36.4885 204.556 36.5818 204.494 36.696C204.37 37.0176 204.038 37.3491 203.55 37.3491C203.322 37.3491 203.156 37.3287 203.032 37.2973L202.918 38.5627C203.115 38.6352 203.333 38.6765 203.696 38.6765C204.515 38.6765 205.096 38.3242 205.552 37.7539C206.07 37.1106 206.506 36.0531 206.931 34.9642L208.238 31.5732H206.579L205.822 34.0103C205.645 34.6014 205.531 35.0678 205.438 35.3686H205.407C205.251 34.9434 205.106 34.5288 204.919 34.031L203.903 31.5732H202.12ZM208.87 31.5732V38.5313C209.223 38.5835 209.793 38.6353 210.571 38.6353C211.639 38.6353 212.738 38.4278 213.412 37.8264C213.817 37.4632 214.076 36.9345 214.076 36.25C214.076 35.4828 213.754 34.9332 213.267 34.5806C212.738 34.1864 212.002 34.0103 211.297 34.0103C211.017 34.0103 210.685 34.0311 210.447 34.062V32.859H213.516V31.5732H208.87ZM210.436 35.2235C210.633 35.1925 210.82 35.1819 210.996 35.1819C211.369 35.1819 211.763 35.2753 212.043 35.493C212.272 35.6695 212.417 35.9288 212.417 36.281C212.417 36.6234 212.282 36.9035 212.074 37.0898C211.815 37.3287 211.432 37.453 211.048 37.453C210.83 37.453 210.612 37.4424 210.436 37.4114V35.2235ZM215.725 31.5732V34.6324C215.725 35.6903 215.621 36.5818 215.196 37.0176C215.019 37.2039 214.74 37.3491 214.397 37.3907L214.595 38.6662C215.154 38.6662 215.631 38.5211 215.984 38.3242C217.042 37.7017 217.27 36.3226 217.27 34.5288V32.8696H218.856V38.5627H220.433V31.5732H215.725ZM221.812 31.5732V38.5627H223.616L225.037 36.0425C225.452 35.3062 225.898 34.3833 226.219 33.5537H226.25C226.157 34.4665 226.136 35.4204 226.136 36.4991V38.5627H227.588V31.5732H225.97L224.467 34.3213C224.052 35.0678 223.585 35.9907 223.222 36.8101H223.181C223.243 35.8766 223.264 34.7673 223.264 33.647V31.5732H221.812ZM228.967 31.5732V38.5627H230.533V35.6381H230.834C231.684 35.6381 232.006 36.2398 232.244 37.0278C232.41 37.5464 232.545 38.0853 232.783 38.5627H234.484C234.152 37.8676 233.924 37.1106 233.675 36.3641C233.385 35.5239 232.98 34.9018 232.078 34.6739L234.515 31.5732H232.596L230.668 34.4767H230.533V31.5732H228.967ZM235.241 31.5732V38.5627H237.045L238.466 36.0425C238.881 35.3062 239.327 34.3833 239.648 33.5537H239.679C239.586 34.4665 239.565 35.4204 239.565 36.4991V38.5627H241.017V31.5732H239.399L237.896 34.3213C237.481 35.0678 237.014 35.9907 236.651 36.8101H236.61C236.672 35.8766 236.693 34.7673 236.693 33.647V31.5732H235.241ZM243.838 31.5732L246.191 36.3744C246.244 36.4885 246.275 36.5818 246.212 36.696C246.088 37.0176 245.756 37.3491 245.268 37.3491C245.041 37.3491 244.875 37.3287 244.75 37.2973L244.636 38.5627C244.833 38.6352 245.051 38.6765 245.414 38.6765C246.233 38.6765 246.814 38.3242 247.27 37.7539C247.789 37.1106 248.224 36.0531 248.649 34.9642L249.956 31.5732H248.297L247.54 34.0103C247.363 34.6014 247.249 35.0678 247.156 35.3686H247.125C246.969 34.9434 246.824 34.5288 246.637 34.031L245.621 31.5732H243.838ZM250.806 33.1493C251.2 32.9524 251.802 32.7347 252.341 32.7347C253.015 32.7347 253.399 33.0457 253.399 33.5019C253.399 34.0515 252.859 34.3833 252.144 34.3833H251.491V35.5447H252.154C252.807 35.5447 253.616 35.7005 253.616 36.4783C253.616 37.0588 253.129 37.3907 252.331 37.3907C251.677 37.3907 250.951 37.142 250.64 36.976L250.308 38.1893C250.889 38.5211 251.677 38.6765 252.403 38.6765C253.71 38.6765 255.286 38.1375 255.286 36.5819C255.286 35.6381 254.518 35.0368 253.648 34.9226V34.9018C254.456 34.7049 255.048 34.1244 255.048 33.2532C255.048 32.2263 254.145 31.4591 252.611 31.4591C251.646 31.4591 250.92 31.7289 250.433 32.0192L250.806 33.1493ZM256.333 31.5732V38.5313C256.686 38.5835 257.256 38.6353 258.034 38.6353C259.102 38.6353 260.201 38.4278 260.875 37.8264C261.28 37.4632 261.539 36.9345 261.539 36.25C261.539 35.4828 261.218 34.9332 260.73 34.5806C260.201 34.1864 259.465 34.0103 258.76 34.0103C258.48 34.0103 258.148 34.0311 257.909 34.062V32.859H260.979V31.5732H256.333ZM257.899 35.2235C258.096 35.1925 258.283 35.1819 258.459 35.1819C258.832 35.1819 259.227 35.2753 259.507 35.493C259.735 35.6695 259.88 35.9288 259.88 36.281C259.88 36.6234 259.745 36.9035 259.538 37.0898C259.278 37.3287 258.895 37.453 258.511 37.453C258.293 37.453 258.075 37.4424 257.899 37.4114V35.2235ZM266.745 34.3213H264.173V32.8696H266.9V31.5732H262.587V38.5627H267.045V37.2663H264.173V35.6071H266.745V34.3213ZM268.124 31.5732V38.5627H269.69V35.6381H269.991C270.841 35.6381 271.162 36.2398 271.401 37.0278C271.567 37.5464 271.702 38.0853 271.94 38.5627H273.641C273.309 37.8676 273.081 37.1106 272.832 36.3641C272.542 35.5239 272.137 34.9018 271.235 34.6739L273.672 31.5732H271.754L269.825 34.4767H269.69V31.5732H268.124ZM274.398 31.5732V38.5627H276.202L277.623 36.0425C278.038 35.3062 278.484 34.3833 278.805 33.5537H278.836C278.743 34.4665 278.722 35.4204 278.722 36.4991V38.5627H280.174V31.5732H278.556L277.052 34.3213C276.638 35.0678 276.171 35.9907 275.808 36.8101H275.767C275.829 35.8766 275.85 34.7673 275.85 33.647V31.5732H274.398ZM286.448 37.1314C286.136 37.2557 285.608 37.3597 285.131 37.3597C283.72 37.3597 282.891 36.4783 282.891 35.0784C282.891 33.5227 283.866 32.7656 285.12 32.7656C285.68 32.7656 286.126 32.89 286.448 33.0249L286.769 31.7701C286.489 31.625 285.867 31.4591 285.048 31.4591C282.932 31.4591 281.231 32.7864 281.231 35.1717C281.231 37.1627 282.476 38.6662 284.892 38.6662C285.743 38.6662 286.396 38.5105 286.686 38.3654L286.448 37.1314ZM289.268 38.5627H290.855V32.9006H292.763V31.5732H287.391V32.9006H289.268V38.5627ZM296.455 36.7685L296.994 38.5627H298.695L296.527 31.5732H294.453L292.317 38.5627H293.956L294.453 36.7685H296.455ZM294.681 35.5863L295.096 34.1036C295.21 33.6992 295.314 33.1701 295.418 32.7555H295.438C295.542 33.1701 295.667 33.6886 295.791 34.1036L296.227 35.5863H294.681ZM299.628 31.5732V38.5627H301.215V35.6381H303.817V38.5627H305.394V31.5732H303.817V34.259H301.215V31.5732H299.628Z" fill="#fff"/>
<path d="M139.485 29.7409C140.366 31.0808 140.459 32.6587 139.373 34.5632C141.922 34.4404 144.069 32.4524 146.912 29.7065L154.067 29.6676C153.674 31.7308 152.75 33.4883 151.34 35.1219C149.361 37.4175 146.822 38.489 143.678 38.4985L139.479 38.5113L124.67 38.5846C121.231 38.5846 118.309 37.4428 115.902 35.1589C113.496 32.8749 112.292 30.0138 112.292 26.5752V12.6506C112.292 9.21241 113.496 6.35132 115.902 4.06735C118.309 1.78338 121.231 0.641602 124.67 0.641602H153.993L153.919 0.714904C153.526 2.72901 152.603 4.53298 151.194 6.16687C149.214 8.46293 146.674 9.48946 143.531 9.48643L124.67 9.48267C122.312 9.48267 121.133 10.5386 121.133 12.6506V26.5752C121.133 28.6876 122.312 29.7436 124.67 29.7436C129.608 29.7436 134.547 29.7409 139.485 29.7409ZM109.05 0.714904C109.05 6.60908 106.201 9.55634 100.504 9.55634H91.9575V31.0698C91.9575 36.1287 89.0102 38.6583 83.116 38.6583V9.55634H66.0231C66.0231 3.66217 68.5773 0.714904 73.6857 0.714904H109.05ZM49.8143 31.2909C49.8143 36.2024 46.8677 38.6583 40.9732 38.6583V15.5239L25.2065 31.9535L9.43983 15.5239V31.0698C9.43983 36.1287 6.49294 38.6583 0.598389 38.6583V8.00902C0.598389 3.14628 3.69307 0.714904 9.88167 0.714904L25.2065 18.0289L40.6047 0.714904C46.7445 0.714904 49.8143 3.07256 49.8143 7.7879V31.2909Z" fill="#fff"/>
<path d="M49.8142 31.2883V7.76675C49.8138 7.56152 49.8055 7.10798 49.7205 6.44354C49.6003 6.55466 41.2067 15.2778 40.9731 15.522V38.6561C46.8677 38.6561 49.8142 36.2001 49.8142 31.2883Z" fill="url(#paint0_linear_412_669)"/>
<path d="M112.311 22.3232V26.5718C112.311 30.0081 113.514 32.8681 115.92 35.1509C118.325 37.4338 121.247 38.5752 124.683 38.5752L139.485 38.5019L143.683 38.5034C146.824 38.5049 149.362 37.4085 151.341 35.1143C152.75 33.4812 153.673 31.7244 154.066 29.6627L146.91 29.6997C144.629 31.882 142.09 34.4324 139.43 34.5311C140.3 32.9887 140.535 31.2191 139.485 29.7383C139.242 29.7383 138.999 29.7383 138.756 29.7383C134.065 29.7383 129.374 29.7383 124.683 29.7383C121.044 29.7383 115.1 24.8298 112.311 22.3232Z" fill="url(#paint1_linear_412_669)"/>
<path d="M62.3959 38.582C56.5018 38.582 53.5545 36.1261 53.5545 31.2138V14.4901C59.4491 14.4901 62.3959 16.9215 62.3959 21.7839V38.582Z" fill="#fff"/>
<path d="M62.3959 13.1087C56.5018 13.1087 53.5545 10.6524 53.5545 5.74094V0.882324C59.4491 0.882324 62.3959 2.62508 62.3959 7.48782V13.1087Z" fill="#fff"/>
<defs>
<linearGradient id="paint0_linear_412_669" x1="173.767" y1="0.623047" x2="173.767" y2="38.6765" gradientUnits="userSpaceOnUse">
<stop stop-color="#191F4E"/>
<stop offset="1" stop-color="#fff"/>
</linearGradient>
<linearGradient id="paint1_linear_412_669" x1="173.767" y1="0.623047" x2="173.767" y2="38.6765" gradientUnits="userSpaceOnUse">
<stop stop-color="#191F4E"/>
<stop offset="1" stop-color="#fff"/>
</linearGradient>
</defs>
</svg>
