<svg width="381" height="280" viewBox="0 0 381 381" fill="none" xmlns="http://www.w3.org/2000/svg">
<path fill-rule="evenodd" clip-rule="evenodd" d="M168.768 211.252C168.768 225.801 169.931 240.933 189.717 240.933C205.429 240.933 215.323 225.801 211.25 211.252C225.799 215.325 240.93 205.432 240.93 189.72C240.93 174.588 225.216 164.695 211.25 168.768C215.323 154.221 205.429 139.089 189.717 139.089C174.586 139.089 164.693 154.221 168.768 168.768C154.219 164.113 139.087 174.588 139.087 189.72C139.087 205.432 154.219 215.325 168.768 211.252ZM206.012 174.006L189.717 182.737L174.004 174.006L182.734 189.72L174.004 206.014L189.717 197.286L206.012 206.014L197.283 189.72L206.012 174.006Z" fill="#fff"/>
<path fill-rule="evenodd" clip-rule="evenodd" d="M359.648 20.3696H20.3674V359.65H359.648V20.3696ZM225.216 161.204C239.183 163.532 249.659 175.753 249.659 189.72C249.659 204.269 239.183 216.49 225.216 218.818L232.782 232.784L218.816 225.219C218.816 225.219 214.16 249.661 189.717 249.661C175.751 249.661 163.53 239.185 161.202 225.801L146.653 232.784L154.219 218.818C140.833 216.49 130.357 204.269 130.357 189.72C130.357 175.753 140.25 163.532 154.219 161.204L146.653 146.655L161.202 154.221C164.693 140.252 175.169 130.359 189.717 130.359C214.16 130.359 218.816 154.221 218.816 154.221L232.782 146.655L225.216 161.204ZM204.267 123.958L165.275 85.5491C163.53 83.2213 160.62 83.2213 158.292 85.5491C156.546 87.2945 156.546 90.2047 158.292 92.5325L182.734 116.975L153.054 146.073L93.1127 86.1315C91.3674 84.3842 87.8747 84.3842 86.1293 86.1315C84.3839 87.8769 84.3839 91.3695 86.1293 93.1149L146.071 153.056L120.465 179.244L125.701 185.064C128.012 171.772 138.358 161.352 151.039 158.357L151.309 158.876V158.294C151.219 158.314 151.129 158.335 151.039 158.357L143.16 143.163L158.874 151.311C161.202 137.344 173.423 126.286 187.972 125.704L189.717 123.958L191.463 125.704C194.956 125.704 197.864 126.286 200.774 127.451L204.267 123.958ZM86.1293 122.213C83.8015 124.541 83.8015 127.451 86.1293 129.779L123.956 167.605L130.939 160.622L93.1127 122.213C90.7849 120.467 87.8747 120.467 86.1293 122.213ZM165.858 243.26C171.676 249.661 179.242 253.734 187.972 254.317L221.143 287.488C223.471 289.235 223.471 292.726 221.143 294.471C219.398 296.218 216.488 296.218 214.16 294.471L189.717 270.029L165.275 294.471C163.53 296.218 160.62 296.218 158.292 294.471C156.546 292.726 156.546 289.235 158.292 287.488L182.734 263.045L171.676 251.989L129.776 293.891C127.449 296.218 124.538 296.218 122.211 293.891C120.465 292.143 120.465 288.653 122.211 286.905L165.858 243.26ZM93.1127 257.227L135.014 215.325L146.071 226.384L86.1293 286.905C84.3839 288.653 84.3839 291.563 86.1293 293.891C87.8747 295.636 91.3674 295.636 93.1127 293.891L153.054 233.367L160.62 240.933L162.947 239.185C160.62 235.695 159.455 232.202 158.874 228.129L143.16 236.275L151.309 221.146C142.578 219.398 134.432 214.162 129.776 206.014L128.029 208.342L125.701 210.087L86.1293 250.244C83.8015 251.989 83.8015 255.482 86.1293 257.227C87.8747 259.555 90.7849 259.555 93.1127 257.227ZM200.774 112.902L193.791 105.918L214.16 85.5491C216.488 83.2213 219.398 83.2213 221.143 85.5491C223.471 87.2945 223.471 90.2047 221.143 92.5325L200.774 112.902ZM274.101 186.227L266.536 179.244L287.486 158.294C289.233 156.549 292.724 156.549 294.469 158.294C296.216 160.622 296.216 163.532 294.469 165.277L274.101 186.227ZM215.323 135.014L257.225 93.1149C259.553 90.7871 259.553 87.8769 257.225 86.1315C255.479 83.8037 251.987 83.8037 250.241 86.1315L211.832 124.541L206.012 129.779C214.16 134.434 219.398 142.58 221.143 151.311L228.127 147.818L215.323 135.014ZM200.774 259.555L208.34 251.989L250.241 293.891C251.987 296.218 255.479 296.218 257.225 293.891C259.553 292.143 259.553 288.653 257.225 286.905L215.323 245.006L226.382 233.367L286.905 293.891C288.65 295.636 291.561 295.636 293.888 293.891C295.634 291.563 295.634 288.653 293.888 286.905L233.365 226.384L245.004 215.325L286.905 257.227C288.65 259.555 292.141 259.555 293.888 257.227C296.216 255.482 296.216 251.989 293.888 250.244L251.987 208.342L263.043 196.703L287.486 221.146C289.233 223.473 292.724 223.473 294.469 221.146C296.216 219.398 296.216 216.49 294.469 214.162L251.987 171.678L293.888 129.779C295.634 127.451 296.216 124.541 293.888 122.213C292.141 120.467 288.65 120.467 286.905 122.213L245.004 164.695L243.258 165.86C249.659 171.098 253.732 179.244 254.314 187.975L256.06 189.72L254.314 191.465C253.152 206.597 242.676 218.818 228.127 221.146L236.275 236.275L221.143 228.129C218.816 241.513 208.34 251.989 194.956 253.734L200.774 259.555ZM237.438 149.563L234.528 147.236L236.275 143.163L232.782 145.491L230.454 142.58L286.905 86.1315C288.65 84.3842 291.561 84.3842 293.888 86.1315C295.634 87.8769 295.634 91.3695 293.888 93.1149L237.438 149.563ZM160.62 130.941L122.211 93.1149C120.465 90.7871 120.465 87.8769 122.211 86.1315C124.538 83.8037 127.449 83.8037 129.776 86.1315L167.603 123.958L160.62 130.941ZM228.127 158.294V158.876L228.418 158.377C232.367 159.513 235.776 160.677 239.183 162.95L240.93 160.622L232.2 151.891L228.418 158.377L228.127 158.294ZM85.5469 158.294C87.2923 156.549 90.2025 156.549 92.5299 158.294L125.701 191.465C125.701 194.958 126.284 197.866 127.449 200.776L123.956 204.269L116.973 196.703L92.5299 221.146C90.2025 223.473 87.2923 223.473 85.5469 221.146C83.2191 219.398 83.2191 216.49 85.5469 214.162L109.407 189.72L85.5469 165.277C83.2191 163.532 83.2191 160.622 85.5469 158.294Z" fill="#fff"/>
<path fill-rule="evenodd" clip-rule="evenodd" d="M0 0H380.018V380.019H0V0ZM12.8015 12.8037H367.214V367.216H12.8015V12.8037Z" fill="#fff"/>
</svg>
