<svg width="441" height="100" viewBox="0 0 441 128" fill="none" xmlns="http://www.w3.org/2000/svg">
<path d="M72.8925 12.6506C71.3474 10.1531 69.3485 7.99126 66.9897 6.2625C64.5923 4.6305 61.9825 3.34997 59.2182 2.4856C56.2256 1.50519 53.1328 0.853614 49.9859 0.538401C46.3115 0.189551 42.637 0.00625706 38.9444 0.022887H7.00477C3.87494 -0.25831 1.13327 2.085 0.931818 5.21483C0.931818 5.21483 0.931818 5.39849 0.931818 5.496V57.3643C5.35727 66.8596 12.7073 74.6961 21.9263 79.7214V69.305C21.6255 65.9288 24.1207 62.9509 27.514 62.6697H37.0962C50.1526 62.6697 60.1355 59.9235 67.0199 54.4526C73.8933 48.9795 77.3852 40.8796 77.4831 30.1132C77.5001 27.0231 77.1343 23.928 76.4014 20.9161C75.6739 17.99 74.4894 15.2086 72.8925 12.6506ZM54.1808 39.3126C53.0655 41.2296 51.3995 42.7746 49.4235 43.7539C47.2613 44.7884 44.9304 45.4029 42.5501 45.5669C39.9403 45.8999 37.2954 46.0666 34.6686 46.0496H25.4693C23.2552 46.0496 21.8935 44.2728 21.8935 41.6411V20.2509C21.7438 18.2557 23.4737 16.6233 25.4693 16.8577H34.6686C37.6443 16.8577 40.4555 16.9423 43.0822 17.1256C45.446 17.2235 47.7587 17.7908 49.888 18.7878C51.8689 19.6511 53.5134 21.1323 54.5936 22.9937C55.8117 25.4897 56.3741 28.2711 56.2255 31.0475C56.2751 33.9241 55.5762 36.7693 54.1808 39.2827V39.3126ZM21.9396 82.8478C14.0751 80.0026 6.90347 75.4966 0.931818 69.624V94.6898C0.646842 96.7047 2.09441 98.5529 4.12591 98.7521H18.5629C22.3908 98.7521 21.9396 94.6596 21.9396 94.6596V82.8478ZM220.342 27.3379H207.899C205.438 27.1716 203.229 28.8191 202.661 31.1949L188.188 71.0723C188.188 71.0723 175.412 34.7571 174.448 31.9455C173.899 29.267 171.571 27.3379 168.845 27.3042H157.365C153.272 27.3042 153.272 30.4983 153.822 31.7452C154.37 32.9936 170.042 75.977 176.179 92.4289C177.145 94.4604 177.826 96.6057 178.192 98.8171C177.792 100.996 176.978 103.092 175.761 104.957C175.297 105.736 174.765 106.486 174.167 107.184C185.993 103.676 199.718 90.8657 206.622 77.0417C213.571 57.8784 222.741 32.3284 223.154 31.0124C223.604 29.0028 223.604 27.3379 220.342 27.3379ZM164.851 111.077C163.769 111.06 162.704 110.962 161.657 110.826C160.341 110.629 157.846 110.826 157.846 113.056V122.638C157.846 126.314 159.642 126.582 160.559 126.829C163.521 127.48 166.545 127.794 169.573 127.778C173.149 127.876 176.692 127.143 179.955 125.649C182.915 124.15 185.559 122.055 187.706 119.508C190.15 116.732 192.216 113.641 193.847 110.31C195.609 106.783 197.288 102.874 198.886 98.5986L200.749 93.5106C197.04 97.1851 180.688 112.605 164.851 111.077ZM146.001 38.7974C145.322 37.1832 144.388 35.6876 143.26 34.355C142.093 33.1418 140.782 32.0604 139.351 31.162C137.801 30.1132 136.157 29.2152 134.441 28.4873C132.677 27.8017 130.881 27.2691 129.036 26.8564C126.942 26.3881 124.796 26.0899 122.648 25.9402C120.354 25.707 117.773 25.5744 114.928 25.5744C95.8845 25.5744 85.0554 31.5801 82.4109 43.5884C81.9256 45.5042 83.2567 47.3823 85.2221 47.5489H96.9492C100.143 47.5489 100.143 46.5689 101.355 43.8227C101.888 42.3271 102.838 41.0111 104.099 40.0454C107.096 38.1152 110.639 37.2002 114.182 37.4682C117.508 37.1182 120.835 37.9512 123.611 39.7979C125.724 41.7776 126.972 44.5023 127.089 47.3993C127.089 51.3598 125.877 53.9696 120.95 53.9696C109.307 53.552 96.7829 54.868 89.7258 58.926C82.6399 63.2536 78.4333 71.0217 78.6673 79.3037C78.5996 82.4631 79.2334 85.6243 80.5627 88.502C81.7937 90.9984 83.6071 93.1943 85.8174 94.889C88.1637 96.789 90.8593 98.2025 93.7551 99.0333C97.0123 99.9313 100.39 100.362 103.766 100.315C108.328 100.396 112.867 99.7491 117.223 98.3994C121.069 96.8192 124.709 94.7745 128.052 92.2962V94.5402C128.052 96.7372 128.721 98.7192 131.247 98.7192H144.822C147.566 98.7192 148.199 96.7724 148.199 94.341V52.5394C148.217 49.9297 148.034 47.3305 147.667 44.7377C147.352 42.7059 146.804 40.7129 146.001 38.7974ZM127.439 79.8699C127.439 79.8699 123.931 87.2215 111.47 87.2215C108.493 87.3579 105.529 86.5382 103.035 84.8952C100.806 83.1619 99.6111 80.4191 99.8405 77.609C99.5593 73.7981 101.655 70.22 105.117 68.6062C110.154 66.6605 115.528 65.7621 120.936 65.9446C124.447 65.4291 127.589 68.1594 127.572 71.7024L127.439 79.8699Z" fill="#fff"/>
<path d="M369.257 55.0005C370.339 46.6315 375.28 41.5434 382.599 41.5434C390.815 41.5434 394.775 47.6803 395.439 55.0005H369.257Z" fill="#fff"/>
<path fill-rule="evenodd" clip-rule="evenodd" d="M437.858 69.8543C441.069 64.6839 441.069 58.1438 437.858 52.9855C435.546 49.5284 418.398 28.1669 412.594 22.3305C405.954 15.4945 400.035 12.1001 393.431 12.1001H252.133C239.322 12.1001 235.017 16.3577 235.017 30.9482V89.0524C235.017 103.292 236.129 109.678 254.845 109.678H393.114C399.782 109.678 406.519 104.437 411.511 99.267C417.251 93.2919 434.664 74.6959 437.858 69.8543ZM410.42 75.0346C410.429 75.0111 410.438 74.9875 410.446 74.9639L410.412 75.0785C410.415 75.0638 410.418 75.0492 410.42 75.0346ZM383.183 92.88C395.185 93.5088 406.209 86.2882 410.42 75.0346C410.623 73.7885 409.614 72.6662 408.352 72.7151H398.285C396.824 72.6981 395.439 73.3973 394.609 74.6151C392.496 78.886 388.089 81.5645 383.298 81.45C374.483 81.45 369.539 75.7943 369.274 65.4807H408.317C411.408 65.4807 412.009 63.2995 412.009 60.8394C411.278 41.5786 399.782 29.6327 382.532 29.6327C365.28 29.6327 352.505 42.7915 352.505 61.5708C352.505 80.3528 364.782 92.88 383.183 92.88ZM266.407 34.2066V34.5551C259.403 38.0678 253.345 43.2382 248.773 49.5961V34.2739C248.773 31.9612 248.904 30.4982 251.617 30.4982H263.214C266.407 30.4982 266.407 32.3282 266.407 34.2066ZM344.056 52.1892V90C344.056 90.0878 344.06 90.1866 344.064 90.294C344.103 91.4081 344.174 93.4442 340.731 93.608H328.687C325.721 93.608 325.804 91.1826 325.838 90.2189C325.841 90.1336 325.843 90.0597 325.843 90V54.0046C326.09 50.959 325.478 47.9146 324.096 45.1854C322.781 43.3588 320.618 42.3568 318.375 42.5394C312.519 42.5394 308.534 47.7198 306.198 50.7554C305.919 51.1179 305.664 51.4498 305.432 51.7387V90.2487C305.432 90.3245 305.434 90.4079 305.436 90.4975C305.461 91.6306 305.509 93.7444 302.056 93.7444H290.144C287.178 93.7444 287.26 91.3118 287.293 90.3496C287.296 90.265 287.298 90.1919 287.298 90.1327V54.1361C287.534 51.0917 286.933 48.0461 285.57 45.3207C284.323 43.4892 282.158 42.4766 279.945 42.6754C273.656 42.6754 269.666 48.2097 267.511 51.2005C267.335 51.4437 267.172 51.67 267.021 51.8752V90.2015C267.021 90.2748 267.023 90.3558 267.025 90.4429C267.05 91.5581 267.097 93.6768 263.625 93.6768H251.584C248.616 93.6768 248.699 91.244 248.732 90.2825C248.735 90.1978 248.738 90.1246 248.738 90.0654V66.3958C248.738 52.1909 264.686 38.5226 268.291 35.4333C268.641 35.1331 268.875 34.9328 268.966 34.8416C273.642 31.2295 279.365 29.2502 285.285 29.2147C289.296 29.0484 293.287 29.9997 296.812 31.9454C299.908 33.9081 302.255 36.8671 303.451 40.3472C306.113 37.1362 309.273 34.3718 312.816 32.1627C316.027 30.1131 319.737 29.0158 323.547 28.9697C337.222 28.9697 344.056 36.703 344.056 52.1892Z" fill="#fff"/>
</svg>
