<svg width="455" height="130" viewBox="0 0 455 153" fill="none" xmlns="http://www.w3.org/2000/svg">
<path fill-rule="evenodd" clip-rule="evenodd" d="M46.9297 0.139648L60.1611 30.5441L93.1666 33.7329L68.3385 55.7119L75.5056 88.0866L46.9297 71.2658L18.3538 88.0866L25.521 55.7119L0.692871 33.7329L33.6984 30.5441L46.9297 0.139648ZM238.071 106.768H254.035C263.219 106.768 270.733 114.282 270.733 123.465C270.733 132.988 262.942 140.78 253.419 140.78H239.246V150.456C239.246 151.105 238.72 151.63 238.071 151.63H233.148C232.5 151.63 231.974 151.105 231.974 150.456V107.942C231.974 107.294 232.5 106.768 233.148 106.768H238.071V106.768ZM239.246 114.04H253.744C259.098 114.04 263.477 118.42 263.477 123.774C263.477 129.128 259.098 133.508 253.744 133.508H239.246V114.04ZM203.228 105.761C209.679 105.761 215.439 108.37 219.598 112.59C223.782 116.837 226.339 122.712 226.339 129.199L226.319 131.702C226.297 132.334 225.777 132.835 225.149 132.835C223.507 132.835 221.864 132.835 220.222 132.835H187.962C188.164 133.716 188.437 134.568 188.775 135.386C189.592 137.356 190.794 139.136 192.289 140.631C193.784 142.126 195.564 143.329 197.534 144.144C199.434 144.931 201.524 145.366 203.721 145.366C205.919 145.366 208.008 144.931 209.908 144.144C211.878 143.329 213.658 142.126 215.153 140.631C215.528 140.256 216.093 140.188 216.537 140.426L221.117 142.658C221.699 142.942 221.941 143.645 221.658 144.227C221.503 144.543 220.584 145.481 220.294 145.772C218.138 147.928 215.555 149.668 212.68 150.86C209.915 152.005 206.888 152.638 203.721 152.638C200.554 152.638 197.528 152.005 194.762 150.86C191.887 149.668 189.304 147.928 187.148 145.772C184.992 143.616 183.252 141.033 182.061 138.158C180.915 135.393 180.283 132.366 180.283 129.199C180.283 122.703 182.805 116.819 186.958 112.572C191.076 108.362 196.788 105.761 203.228 105.761V105.761ZM218.674 125.563C218.007 122.531 216.52 119.826 214.447 117.713C211.609 114.82 207.667 113.033 203.228 113.033C198.804 113.033 194.912 114.809 192.117 117.686C190.061 119.803 188.594 122.517 187.938 125.563H218.674V125.563ZM437.319 105.912C440.486 105.912 443.512 106.544 446.278 107.69C449.154 108.881 451.737 110.621 453.893 112.777C454.351 113.236 454.351 113.979 453.893 114.437L450.411 117.918C449.953 118.377 449.21 118.377 448.751 117.918C447.256 116.423 445.476 115.221 443.506 114.405C441.606 113.618 439.516 113.183 437.319 113.183C435.122 113.183 433.032 113.618 431.132 114.405C429.162 115.221 427.383 116.423 425.887 117.918C424.392 119.414 423.19 121.193 422.374 123.164C421.586 125.064 421.152 127.153 421.152 129.35C421.152 131.548 421.586 133.637 422.374 135.537C423.19 137.507 424.392 139.287 425.887 140.782C427.383 142.278 429.162 143.48 431.132 144.296C433.032 145.083 435.122 145.517 437.319 145.517C439.516 145.517 441.606 145.083 443.506 144.296C445.476 143.48 447.256 142.277 448.751 140.782C449.21 140.324 449.953 140.324 450.411 140.782L453.893 144.263C454.351 144.722 454.351 145.465 453.893 145.924C451.737 148.08 449.154 149.82 446.278 151.011C443.513 152.157 440.486 152.789 437.319 152.789C434.152 152.789 431.126 152.156 428.36 151.011C425.485 149.82 422.902 148.08 420.746 145.924C418.59 143.768 416.849 141.185 415.658 138.309C414.513 135.544 413.88 132.517 413.88 129.35C413.88 126.183 414.513 123.157 415.658 120.391C416.849 117.516 418.59 114.933 420.746 112.777C422.902 110.621 425.485 108.881 428.36 107.69C431.126 106.544 434.152 105.912 437.319 105.912V105.912ZM407.42 107.942V150.456C407.42 151.105 406.895 151.63 406.246 151.63H401.322C400.674 151.63 400.148 151.105 400.148 150.456V107.942C400.148 107.294 400.674 106.768 401.322 106.768H406.246C406.895 106.768 407.42 107.294 407.42 107.942ZM374.089 107.942V144.358H393.323C393.972 144.358 394.498 144.884 394.498 145.532V150.456C394.498 151.105 393.972 151.63 393.323 151.63C384.88 151.63 376.436 151.63 367.992 151.63C367.344 151.63 366.818 151.105 366.818 150.456V107.942C366.818 107.294 367.344 106.768 367.992 106.768H372.916C373.564 106.768 374.089 107.294 374.089 107.942ZM283.772 107.942V133.402C283.772 135.037 284.099 136.596 284.69 138.018C285.306 139.496 286.21 140.833 287.333 141.956C288.457 143.079 289.793 143.983 291.272 144.598C292.692 145.19 294.253 145.517 295.888 145.517C297.523 145.517 299.083 145.19 300.504 144.599C301.983 143.984 303.319 143.079 304.442 141.956C305.565 140.833 306.47 139.496 307.085 138.018C307.676 136.596 308.004 135.037 308.004 133.402V107.942C308.004 107.294 308.529 106.768 309.178 106.768H314.101C314.749 106.768 315.275 107.294 315.275 107.942V133.402C315.275 136.014 314.75 138.513 313.8 140.799C312.813 143.173 311.37 145.31 309.583 147.097C307.796 148.884 305.659 150.327 303.285 151.314C301 152.264 298.5 152.789 295.888 152.789C293.276 152.789 290.776 152.264 288.491 151.314C286.116 150.327 283.979 148.884 282.192 147.097C280.406 145.31 278.962 143.174 277.976 140.799C277.025 138.514 276.5 136.014 276.5 133.402V107.942C276.5 107.294 277.026 106.768 277.674 106.768H282.598C283.246 106.768 283.772 107.294 283.772 107.942V107.942ZM143.473 116.432V133.508H145.168H155.926H157.667C158.828 133.508 159.943 133.304 160.98 132.929C162.18 132.415 163.27 131.735 164.207 130.924C164.671 130.524 165.096 130.091 165.479 129.633C166.755 127.972 167.515 125.9 167.515 123.66C167.515 121.745 166.958 119.952 166 118.435C165.497 117.719 164.893 117.057 164.207 116.463C163.085 115.493 161.745 114.709 160.26 114.175C159.53 113.917 158.441 113.813 157.667 113.813H143.473V116.432V116.432ZM143.473 140.78V150.456C143.473 151.105 142.947 151.63 142.299 151.63H137.375C136.727 151.63 136.201 151.105 136.201 150.456V107.942C136.201 107.294 136.727 106.768 137.375 106.768H157.667C162.316 106.768 166.54 108.668 169.6 111.728C170.433 112.561 171.179 113.48 171.826 114.47C172.464 115.323 173.017 116.23 173.474 117.181C174.442 119.194 174.977 121.395 174.977 123.694C174.977 125.993 174.442 128.193 173.474 130.207C172.93 131.338 172.252 132.405 171.455 133.395C170.899 134.179 170.278 134.915 169.6 135.593C167.628 137.565 165.173 139.055 162.432 139.865L173.067 149.928C173.525 150.387 173.525 151.13 173.067 151.589C172.838 151.818 172.537 151.932 172.237 151.932L165.275 151.933C165.135 151.933 165 151.908 164.876 151.863L152.975 140.78H143.473ZM329.07 124.073H344.258C344.921 124.069 345.553 123.935 346.127 123.696C346.734 123.443 347.286 123.069 347.751 122.604C348.216 122.138 348.591 121.587 348.844 120.979C349.087 120.396 349.221 119.753 349.221 119.078C349.221 118.404 349.087 117.762 348.844 117.178C348.591 116.571 348.216 116.02 347.751 115.554L347.698 115.497C347.248 115.061 346.716 114.707 346.127 114.462C345.544 114.219 344.902 114.084 344.227 114.084H329.07V124.073V124.073ZM354.179 126.231C355.032 126.775 355.819 127.408 356.529 128.117C357.797 129.386 358.822 130.905 359.524 132.593C360.199 134.218 360.573 135.996 360.573 137.852C360.573 139.708 360.199 141.485 359.524 143.11C358.822 144.798 357.797 146.317 356.529 147.585C355.26 148.853 353.741 149.88 352.053 150.581C350.428 151.257 348.651 151.63 346.795 151.63H322.972C322.323 151.63 321.798 151.105 321.798 150.456V130.171V125.247V107.987C321.798 107.338 322.323 106.812 322.972 106.812H344.227C345.879 106.812 347.461 107.145 348.909 107.747C350.406 108.369 351.757 109.283 352.89 110.415L352.893 110.413C355.114 112.634 356.493 115.702 356.493 119.078C356.493 120.73 356.16 122.313 355.559 123.76C355.193 124.641 354.728 125.469 354.179 126.231V126.231ZM329.07 144.358H339.682H346.795C347.674 144.358 348.511 144.182 349.272 143.866C350.068 143.534 350.787 143.049 351.39 142.447C351.992 141.844 352.477 141.126 352.809 140.329C353.126 139.568 353.301 138.73 353.301 137.852C353.301 136.973 353.126 136.136 352.809 135.375C352.477 134.578 351.992 133.859 351.39 133.257C350.787 132.655 350.068 132.169 349.272 131.837C348.511 131.521 347.674 131.345 346.795 131.345H344.227H329.07V144.358V144.358ZM158.262 33.7272C167.446 33.7272 174.96 41.2405 174.96 50.4244C174.96 59.9469 167.169 67.7388 157.646 67.7388H143.472V77.4144C143.472 78.0629 142.947 78.589 142.299 78.589H137.375C136.727 78.589 136.201 78.0629 136.201 77.4144V67.7388V34.9007C136.201 34.2529 136.727 33.7272 137.375 33.7272H158.262V33.7272ZM143.473 40.999H157.971C163.325 40.999 167.705 45.3791 167.705 50.7332C167.705 56.0869 163.324 60.4666 157.971 60.4666H143.473V40.999ZM220.735 32.7192C227.185 32.7192 232.946 35.3286 237.104 39.5492C241.288 43.7955 243.845 49.6707 243.845 56.1579L243.825 58.6607C243.803 59.2927 243.283 59.7938 242.656 59.7935C241.013 59.7935 239.37 59.7935 237.728 59.7935H205.468C205.67 60.6745 205.943 61.5271 206.282 62.3446C207.098 64.3149 208.3 66.0943 209.795 67.5895C211.29 69.085 213.07 70.2869 215.04 71.1033C216.94 71.8902 219.03 72.3245 221.227 72.3245C223.424 72.3245 225.514 71.8902 227.414 71.1033C229.384 70.2869 231.164 69.085 232.659 67.5895C233.034 67.2149 233.599 67.1469 234.044 67.385L238.623 69.6176C239.206 69.901 239.448 70.6036 239.164 71.1861C239.01 71.502 238.091 72.4401 237.8 72.7308C235.645 74.8866 233.062 76.6271 230.186 77.8184C227.42 78.9636 224.394 79.5963 221.227 79.5963C218.06 79.5963 215.034 78.9636 212.268 77.8184C209.393 76.6267 206.81 74.8866 204.654 72.7308C202.498 70.5749 200.758 67.992 199.567 65.1165C198.421 62.3511 197.788 59.3248 197.788 56.1579C197.788 49.6617 200.311 43.7781 204.464 39.531C208.582 35.3202 214.294 32.7192 220.735 32.7192V32.7192ZM236.18 52.522C235.513 49.4893 234.026 46.7843 231.954 44.6719C229.115 41.7787 225.173 39.991 220.735 39.991C216.31 39.991 212.419 41.7681 209.624 44.6447C207.567 46.7609 206.1 49.4761 205.444 52.522H236.18V52.522ZM189.238 34.9007V77.4147C189.238 78.0629 188.713 78.589 188.064 78.589H183.141C182.492 78.589 181.967 78.0629 181.967 77.4147V34.9007C181.967 34.2525 182.492 33.7272 183.141 33.7272H188.064C188.713 33.7272 189.238 34.2525 189.238 34.9007Z" fill="#fff"/>
</svg>
