<svg width="417" height="120" viewBox="0 0 417 138" fill="none" xmlns="http://www.w3.org/2000/svg">
<path fill-rule="evenodd" clip-rule="evenodd" d="M79.1265 4.02649C79.1265 11.3448 79.1265 18.6631 79.1265 25.981C76.6834 25.981 74.2407 25.981 71.7976 25.981C67.7493 16.3122 59.5066 11.996 48.5785 11.1055C14.7936 7.01722 2.94783 27.2407 40.567 25.981C86.1383 25.981 99.731 55.9874 65.959 68.114C48.5667 73.7043 33.7839 71.1441 19.6556 66.5361C13.543 63.8662 11.1044 65.0564 11.5088 69.2332C8.29397 69.2332 5.07911 69.2332 1.86425 69.2332C1.86425 61.1794 1.86425 53.1259 1.86425 45.0725C4.58097 45.0725 7.29806 45.0725 10.0152 45.0725C19.495 61.9927 39.0873 65.1014 57.133 60.8721C74.9025 56.4497 68.3586 42.6476 43.2826 45.0725C-6.80637 44.2025 -10.3992 13.9402 18.1623 4.02608C32.1401 0.0832772 46.954 -1.02259 64.1936 6.1022C67.8174 8.50522 70.5311 9.18063 70.1683 4.02649C73.1545 4.02649 76.1403 4.02649 79.1265 4.02649Z" fill="#fff"/>
<path fill-rule="evenodd" clip-rule="evenodd" d="M148.475 72.3309C175.337 72.3309 197.112 56.4553 197.112 36.8717C197.112 17.2888 175.337 1.4133 148.475 1.4133C121.614 1.4133 99.8384 17.2888 99.8384 36.8717C99.8384 56.4553 121.614 72.3309 148.475 72.3309ZM148.475 62.7361C164.06 62.7361 176.695 50.9614 176.695 36.4359C176.695 21.9108 164.06 10.1365 148.475 10.1365C132.89 10.1365 120.256 21.9108 120.256 36.4359C120.256 50.9614 132.89 62.7361 148.475 62.7361Z" fill="#fff"/>
<path fill-rule="evenodd" clip-rule="evenodd" d="M207.173 4.91504H239.904L284.17 43.7777V16.5231C284.089 13.8298 282.589 12.5123 279.883 12.3656H270.178V4.91504H308.334V12.29H302.094C299.213 12.5334 297.319 13.7338 297.2 16.6546V68.1144H283.763L233.115 23.8962V53.6524C233.119 57.0404 233.869 59.7586 237.053 60.8721H245.743V68.114H207.173V60.8721C210.072 60.8721 212.971 60.8721 215.87 60.8721C218.755 60.2269 219.76 57.737 219.944 54.4424V18.1029C220.089 14.3521 218.255 12.5266 214.784 12.29H207.173V4.91504Z" fill="#fff"/>
<path fill-rule="evenodd" clip-rule="evenodd" d="M316.888 4.91504H361.29V12.29H357.262C353.95 12.5599 354.192 14.7176 358.484 19.0248L370.569 32.4546L384.997 17.1815C388.245 14.097 388.334 12.4779 385.336 12.29H379.893V4.91504H416.927V12.29H406.553L376.748 43.3169V56.4175C377.092 59.4721 378.871 60.6706 381.387 60.9159H388.584V68.1144H345.268V60.8721H353.461C356.08 60.6646 357.247 59.2578 357.421 57.0321V43.7777L327.458 12.29H316.888V4.91504Z" fill="#fff"/>
<path fill-rule="evenodd" clip-rule="evenodd" d="M25.8787 137.654H29.0017V117.282C29.7379 114.462 32.384 112.359 35.513 112.359H37.0472C41.5758 112.359 45.2831 115.946 45.296 120.335V137.654H48.419V118.87C48.419 115.289 51.44 112.359 55.1341 112.359H56.6682C61.2048 112.359 64.9174 115.958 64.9174 120.358V137.654H68.04V119.484C68.04 113.836 63.2737 109.215 57.4487 109.215H55.4792C51.6936 109.215 47.925 110.991 46.7738 114.297C45.0326 110.924 41.9628 109.215 37.8276 109.215H35.8581C33.0692 109.215 30.58 110.515 29.0017 112.521V109.215H25.8787V137.654Z" fill="#fff"/>
<path fill-rule="evenodd" clip-rule="evenodd" d="M104.091 109.215H100.969V115.537C98.2936 111.74 93.7476 109.241 88.5897 109.241C80.3594 109.241 73.687 115.602 73.687 123.448C73.687 131.294 80.3594 137.654 88.5897 137.654C93.7476 137.654 98.2936 135.156 100.969 131.359V137.654H104.091V109.215ZM89.0935 134.757C95.6517 134.757 100.969 129.694 100.969 123.448C100.969 117.202 95.6517 112.138 89.0935 112.138C82.5349 112.138 77.2179 117.202 77.2179 123.448C77.2179 129.694 82.5349 134.757 89.0935 134.757Z" fill="#fff"/>
<path fill-rule="evenodd" clip-rule="evenodd" d="M116.053 137.654H111.708V99.8277H116.053V125.568L129.36 109.215H134.384L122.928 123.344L135.266 137.654H129.767L120.227 126.674L116.053 131.822V137.654Z" fill="#fff"/>
<path fill-rule="evenodd" clip-rule="evenodd" d="M151.086 137.654C157.582 137.654 163.118 133.778 165.236 128.342L161.409 128.311C159.513 131.877 155.602 134.324 151.086 134.324C145.304 134.324 140.515 130.313 139.675 125.078H166.057C166.123 124.539 166.158 123.99 166.158 123.434C166.158 115.581 159.41 109.215 151.086 109.215C142.762 109.215 136.014 115.581 136.014 123.434C136.014 131.288 142.762 137.654 151.086 137.654ZM162.336 120.993C161.161 116.154 156.57 112.545 151.086 112.545C145.601 112.545 141.011 116.154 139.836 120.993H162.336Z" fill="#fff"/>
<path fill-rule="evenodd" clip-rule="evenodd" d="M179.941 137.648C182.903 137.648 185.304 135.319 185.304 132.447C185.304 129.575 182.903 127.246 179.941 127.246C176.979 127.246 174.577 129.575 174.577 132.447C174.577 135.319 176.979 137.648 179.941 137.648Z" fill="#fff"/>
<path fill-rule="evenodd" clip-rule="evenodd" d="M196.438 137.655H199.561V131.333C202.237 135.129 206.782 137.628 211.94 137.628C220.171 137.628 226.843 131.267 226.843 123.421C226.843 115.575 220.171 109.215 211.94 109.215C206.782 109.215 202.237 111.714 199.561 115.51C199.561 110.269 199.561 105.027 199.561 99.7857H196.438C196.438 112.409 196.438 125.032 196.438 137.655ZM211.437 112.112C204.879 112.112 199.561 117.175 199.561 123.421C199.561 129.667 204.879 134.731 211.437 134.731C217.995 134.731 223.312 129.667 223.312 123.421C223.312 117.175 217.995 112.112 211.437 112.112Z" fill="#fff"/>
<path fill-rule="evenodd" clip-rule="evenodd" d="M246.136 137.654C252.632 137.654 258.168 133.778 260.286 128.342L256.459 128.311C254.563 131.877 250.652 134.324 246.136 134.324C240.354 134.324 235.566 130.313 234.725 125.078H261.108C261.174 124.539 261.209 123.99 261.209 123.434C261.209 115.581 254.46 109.215 246.136 109.215C237.812 109.215 231.064 115.581 231.064 123.434C231.064 131.288 237.812 137.654 246.136 137.654ZM257.386 120.993C256.211 116.154 251.621 112.545 246.136 112.545C240.652 112.545 236.061 116.154 234.886 120.993H257.386Z" fill="#fff"/>
<path fill-rule="evenodd" clip-rule="evenodd" d="M271.263 99.7865H268.141V137.654H271.263V99.7865Z" fill="#fff"/>
<path fill-rule="evenodd" clip-rule="evenodd" d="M283.044 109.215H279.921V137.655H283.044V109.215ZM283.044 99.7857H279.921V106.084H283.044V99.7857Z" fill="#fff"/>
<path fill-rule="evenodd" clip-rule="evenodd" d="M304.796 137.654C311.292 137.654 316.828 133.778 318.946 128.342L315.118 128.311C313.222 131.877 309.312 134.324 304.796 134.324C299.014 134.324 294.225 130.313 293.385 125.078H319.767C319.833 124.539 319.868 123.99 319.868 123.434C319.868 115.581 313.12 109.215 304.796 109.215C296.472 109.215 289.724 115.581 289.724 123.434C289.724 131.288 296.472 137.654 304.796 137.654ZM316.046 120.993C314.871 116.154 310.28 112.545 304.796 112.545C299.312 112.545 294.721 116.154 293.546 120.993H316.046Z" fill="#fff"/>
<path fill-rule="evenodd" clip-rule="evenodd" d="M337.427 137.654H333.15L320.59 109.215H325.309L335.289 132.219L345.268 109.215H349.988L337.427 137.654Z" fill="#fff"/>
<path fill-rule="evenodd" clip-rule="evenodd" d="M365.805 137.654C372.301 137.654 377.837 133.778 379.956 128.342L376.128 128.311C374.232 131.877 370.321 134.324 365.805 134.324C360.024 134.324 355.235 130.313 354.394 125.078H380.777C380.843 124.539 380.878 123.99 380.878 123.434C380.878 115.581 374.13 109.215 365.805 109.215C357.481 109.215 350.733 115.581 350.733 123.434C350.733 131.288 357.481 137.654 365.805 137.654ZM377.056 120.993C375.881 116.154 371.29 112.545 365.805 112.545C360.321 112.545 355.73 116.154 354.555 120.993H377.056Z" fill="#fff"/>
</svg>
