<svg width="213" height="50" viewBox="0 0 213 50" fill="none" xmlns="http://www.w3.org/2000/svg">
<path d="M51.1256 46.981C51.4858 46.981 51.7953 46.8457 52.0546 46.5758C52.3139 46.3056 52.4469 45.9438 52.4541 45.4903C52.058 45.4109 51.691 45.3713 51.3524 45.3713C51.0065 45.3713 50.7314 45.4449 50.5262 45.5927C50.3209 45.7405 50.2181 45.9404 50.2181 46.1922C50.2181 46.4371 50.2975 46.6298 50.4558 46.7701C50.6142 46.9107 50.8376 46.981 51.1256 46.981V46.981ZM2.32585 20.5655H0.341227C0.195337 20.5655 0.0766602 20.4464 0.0766602 20.3005V15.7258C0.0766602 15.5799 0.195337 15.4608 0.341227 15.4608H2.32585V10.6695C2.32585 10.5236 2.44489 10.4046 2.59078 10.4046H8.01518C8.16145 10.4046 8.28012 10.5236 8.28012 10.6695V15.4608H12.63C12.7759 15.4608 12.8949 15.5799 12.8949 15.7258V20.3005C12.8949 20.4464 12.7759 20.5655 12.63 20.5655H8.28012V28.3101C8.28012 30.6024 9.38071 31.0453 11.4254 30.3885C11.744 30.286 12.0574 30.1677 12.3692 30.0472C12.4531 30.0147 12.54 30.0249 12.6145 30.0755C12.6889 30.1265 12.7297 30.204 12.7297 30.294V34.6926C12.7297 34.8029 12.6659 34.8974 12.5635 34.9386C7.78765 36.8545 2.32585 36.1968 2.32585 29.9251V20.5655V20.5655ZM192.806 7.62814L195.207 3.47029C195.313 3.28698 195.549 3.22347 195.733 3.32929L199.793 5.67374V0.985248C199.793 0.773216 199.967 0.600098 200.178 0.600098H204.979C205.191 0.600098 205.365 0.773216 205.365 0.985248V5.67374L209.425 3.32929C209.608 3.22347 209.845 3.28698 209.951 3.47029L212.352 7.62814C212.457 7.81144 212.394 8.04842 212.211 8.15424L208.15 10.4987L212.211 12.8427C212.394 12.9486 212.457 13.1856 212.352 13.3693L209.951 17.5267C209.845 17.71 209.608 17.7735 209.425 17.6677L205.365 15.3232V20.0121C205.365 20.2238 205.191 20.3973 204.979 20.3973H200.178C199.967 20.3973 199.793 20.2238 199.793 20.0121V15.3232L195.733 17.6677C195.549 17.7735 195.313 17.71 195.207 17.5267L192.806 13.3693C192.7 13.1856 192.764 12.9486 192.947 12.8427L197.007 10.4983L192.947 8.15424C192.764 8.04842 192.7 7.81144 192.806 7.62814ZM169.057 18.8159C170.137 17.5539 171.12 15.1554 175.553 15.2046V21.208C170.784 21.0009 169.093 24.625 169.093 27.8837V35.3151C169.093 35.4613 168.975 35.58 168.828 35.58H163.459C163.313 35.58 163.194 35.4613 163.194 35.3151V15.841C163.194 15.6948 163.313 15.5761 163.459 15.5761H168.732C168.875 15.5761 168.992 15.6895 168.997 15.8324L169.057 18.8159V18.8159ZM179.671 20.5655H177.687C177.541 20.5655 177.422 20.4464 177.422 20.3005V15.7258C177.422 15.5799 177.541 15.4608 177.687 15.4608H179.671V10.6695C179.671 10.5236 179.791 10.4046 179.936 10.4046H185.361C185.507 10.4046 185.626 10.5236 185.626 10.6695V15.4608H189.976C190.122 15.4608 190.241 15.5799 190.241 15.7258V20.3005C190.241 20.4464 190.122 20.5655 189.976 20.5655H185.626V28.3101C185.626 30.6024 186.727 31.0453 188.771 30.3885C189.09 30.286 189.403 30.1677 189.715 30.0472C189.799 30.0147 189.886 30.0249 189.96 30.0755C190.035 30.1265 190.075 30.204 190.075 30.294V34.6926C190.075 34.8029 190.012 34.8974 189.909 34.9386C185.133 36.8545 179.671 36.1968 179.671 29.9251V20.5655ZM123.792 18.1054C125.555 16.3872 127.036 15.7617 127.77 15.482C129.465 14.8364 131.328 14.7575 133.088 15.5901C133.312 15.6959 133.529 15.8157 133.739 15.9492C136.266 17.5547 136.976 20.2083 136.976 23.0671V35.3151C136.976 35.4613 136.857 35.58 136.711 35.58H131.341C131.195 35.58 131.076 35.4613 131.076 35.3151V23.8619C131.076 21.0137 128.846 19.9898 126.978 20.4959C126.444 20.6407 124.922 21.2598 124.922 23.0671V35.3151C124.922 35.4613 124.803 35.58 124.657 35.58H119.287C119.142 35.58 119.023 35.4613 119.023 35.3151V23.8619C119.023 18.9625 112.421 19.4599 112.421 23.8619V35.3151C112.421 35.4613 112.302 35.58 112.156 35.58H106.787C106.641 35.58 106.522 35.4613 106.522 35.3151V15.841C106.522 15.6948 106.641 15.5761 106.787 15.5761H112.06C112.203 15.5761 112.32 15.6895 112.325 15.8324L112.385 17.6598C114.646 15.4344 117.993 14.1512 121.034 15.5901C121.258 15.6959 121.476 15.8157 121.685 15.9492C122.615 16.5399 123.299 17.2727 123.792 18.1054ZM152.96 33.6834C152.407 34.2504 151.768 34.7156 151.053 35.0819C149.931 35.6564 148.731 35.9357 147.471 35.9357C145.575 35.9357 143.742 35.4848 142.282 34.2217C140.909 33.0334 140.284 31.4894 140.284 29.6824C140.284 27.7333 140.9 25.9328 142.524 24.7536C145.414 22.6548 149.798 23.0063 153.178 23.6216C153.067 22.5153 152.684 21.4472 151.701 20.8149C149.662 19.5019 145.933 20.6282 143.79 21.2926C143.653 21.335 143.507 21.2613 143.461 21.126L142.1 17.1711C142.055 17.038 142.12 16.8933 142.25 16.84C146.468 15.1033 152.834 14.2253 156.554 17.4885C158.258 18.9826 158.768 20.9521 158.768 23.1559V35.312C158.768 35.4583 158.649 35.577 158.503 35.577H153.228C153.083 35.577 152.964 35.4587 152.963 35.3128L152.96 33.6834V33.6834ZM153.219 27.4381C151.409 26.8293 148.631 26.4638 147.012 27.5916C146.393 28.0225 146.019 28.8045 146.07 29.557C146.108 30.1137 146.307 30.6175 146.694 31.0246C147.705 32.0889 149.53 32.1081 150.806 31.576C152.556 30.8465 153.346 29.2659 153.219 27.4381ZM91.918 35.8673C88.9987 35.8673 86.2813 35.0788 84.1413 33.0258C82.0418 31.0121 81.1713 28.4272 81.1713 25.537C81.1713 22.6559 82.0501 20.09 84.1413 18.0842C86.2813 16.0312 88.9987 15.2427 91.918 15.2427C94.8298 15.2427 97.5268 16.0387 99.6589 18.0842C101.75 20.09 102.629 22.6559 102.629 25.537C102.629 28.4272 101.758 31.0121 99.6589 33.0258C97.5268 35.0709 94.8298 35.8673 91.918 35.8673ZM91.918 30.9191C93.3006 30.9191 94.4995 30.4867 95.4387 29.453C96.4285 28.3641 96.7849 26.9891 96.7849 25.537C96.7849 24.0853 96.4285 22.7107 95.4387 21.6215C94.4995 20.5874 93.3006 20.1554 91.918 20.1554C90.5317 20.1554 89.3105 20.5715 88.3604 21.6052C87.3618 22.6922 87.0152 24.0853 87.0152 25.537C87.0152 26.9891 87.3618 28.3823 88.3604 29.4693C89.3105 30.503 90.5317 30.9191 91.918 30.9191ZM65.0112 17.6598C67.2729 15.4344 70.6193 14.1512 73.6607 15.5901C73.8848 15.6959 74.1025 15.8157 74.3119 15.9492C76.8389 17.5547 77.5483 20.2083 77.5483 23.0671V35.3151C77.5483 35.4613 77.4296 35.58 77.2837 35.58H71.9141C71.7678 35.58 71.6492 35.4613 71.6492 35.3151V23.8619C71.6492 18.9625 65.0478 19.4599 65.0478 23.8619V35.3151C65.0478 35.4613 64.9288 35.58 64.7829 35.58H59.4133C59.2674 35.58 59.1484 35.4613 59.1484 35.3151V15.841C59.1484 15.6948 59.2674 15.5761 59.4133 15.5761H64.6865C64.8294 15.5761 64.9466 15.6895 64.9515 15.8324L65.0112 17.6598ZM46.0455 29.3177L42.0547 35.3684C42.0041 35.4447 41.9251 35.4874 41.8332 35.4874H36.3745C36.2736 35.4874 36.1866 35.4353 36.1398 35.3457C36.0929 35.2569 36.0993 35.156 36.1568 35.0736L42.9943 25.2645L36.5604 15.9253C36.5034 15.8422 36.4977 15.742 36.5446 15.6532C36.5914 15.5644 36.678 15.5126 36.7789 15.5126H42.2377C42.3303 15.5126 42.41 15.5557 42.4603 15.6335L46.0455 21.1705L49.6304 15.6335C49.6807 15.5557 49.7604 15.5126 49.853 15.5126H55.3118C55.4127 15.5126 55.4993 15.5644 55.5461 15.6532C55.5934 15.742 55.5873 15.8422 55.5303 15.9253L49.0967 25.2645L55.9339 35.0736C55.9914 35.156 55.9978 35.2569 55.9509 35.3457C55.9041 35.4353 55.8175 35.4874 55.7162 35.4874H50.2574C50.1656 35.4874 50.0866 35.4447 50.036 35.3684L46.0455 29.3177V29.3177ZM21.016 27.5731C21.4718 29.6598 23.4541 31.1678 25.5847 31.1678C27.4026 31.1678 29.0921 30.6844 30.2845 29.2349C30.3322 29.1771 30.3945 29.145 30.469 29.1393C30.5438 29.1337 30.6103 29.1559 30.6659 29.2062L33.5765 31.8175C33.6751 31.9059 33.6937 32.0514 33.62 32.1618C32.0125 34.5663 28.1782 35.8408 25.3931 35.8408C22.6079 35.8408 20.0775 35.0395 18.0933 33.0424C16.1033 31.0397 15.3134 28.4892 15.3134 25.6977C15.3134 22.8872 16.0569 20.2586 18.0173 18.1787C19.9282 16.1514 22.3823 15.304 25.1444 15.304C27.8815 15.304 30.1609 16.0924 32.0919 18.049C34.0368 20.0197 34.7999 22.5323 34.7999 25.2679C34.7999 25.9566 34.7761 26.6569 34.6911 27.341C34.6744 27.4744 34.5626 27.5731 34.428 27.5731H21.016ZM21.0266 23.9243H29.379C29.0112 21.5171 27.8248 19.6633 25.1444 19.6633C24.0521 19.6633 23.0743 19.9785 22.3139 20.7797C21.564 21.57 21.1963 22.8351 21.0266 23.9243V23.9243ZM126.223 46.812C126.679 46.812 127.048 46.6559 127.328 46.3441C127.608 46.0323 127.749 45.623 127.749 45.1173C127.749 44.6112 127.608 44.2019 127.328 43.89C127.048 43.5782 126.679 43.4221 126.223 43.4221C125.759 43.4221 125.387 43.5764 125.107 43.8848C124.827 44.1936 124.687 44.604 124.687 45.1173C124.687 45.6302 124.827 46.041 125.107 46.3494C125.387 46.6578 125.759 46.812 126.223 46.812V46.812ZM123.231 45.369H123.231C122.791 41.0758 124.548 40.4824 128.624 39.9726C128.703 40.837 128.742 41.165 128.742 41.165C126.013 41.478 124.588 42.0562 124.468 42.8991C124.895 42.5782 125.407 42.3533 125.963 42.294C126.936 42.1897 127.703 42.3533 128.387 43.0166C128.937 43.5503 129.212 44.2506 129.212 45.1173C129.212 45.9904 128.937 46.6941 128.387 47.2278C127.837 47.7618 127.116 48.0286 126.223 48.0286C125.323 48.0286 124.598 47.7618 124.049 47.2278C123.552 46.7463 123.28 46.1268 123.231 45.369V45.369ZM43.7392 47.9168H42.269V42.0895C44.0152 42.0895 45.7617 42.0895 47.5082 42.0895V47.9168H46.0376C46.0376 46.3781 46.0376 44.8391 46.0376 43.3005H43.7392C43.7392 44.8391 43.7392 46.3781 43.7392 47.9168V47.9168ZM83.3139 45.5708H82.5675V47.9168H81.0973V42.0895H82.5675V44.3599H83.3139H84.8658V42.0895H86.3364V47.9168H84.8658V45.5708H83.3139ZM72.4641 44.8791C73.5779 45.1845 74.0889 46.7069 73.0948 47.5233C72.732 47.8215 72.2516 47.9708 71.6549 47.9708H68.3561V42.1568H71.594C73.5284 42.1568 73.9645 44.1811 72.4641 44.8791ZM71.2452 43.2676H69.8233V44.4373H71.2236C72.1851 44.4373 72.1742 43.2676 71.2452 43.2676V43.2676ZM71.4285 46.7266C72.421 46.7266 72.3881 45.5221 71.4069 45.5221H69.8233V46.7266H71.4285ZM59.3347 47.9206L57.4865 45.5447L56.7715 46.3339V47.9206H55.3065V42.1152H56.7715L56.773 44.6985L59.0721 42.1152H60.7056L58.467 44.5828L61.1874 47.9206H59.3347V47.9206ZM35.6885 49.2876L36.1851 48.0449C36.8613 48.5672 37.5212 48.2675 37.6799 47.6783L35.2644 42.1152H36.8227L38.412 46.1268L39.8966 42.1152H41.4443L38.7885 48.4595C38.1966 49.8742 36.6118 49.8341 35.6885 49.2876V49.2876ZM119.354 46.7648C119.802 46.7648 120.164 46.6026 120.439 46.2787C120.714 45.9548 120.851 45.5296 120.851 45.0043C120.851 44.4785 120.714 44.0537 120.439 43.7294C120.164 43.4055 119.802 43.2434 119.354 43.2434C118.899 43.2434 118.533 43.4036 118.258 43.7241C117.983 44.0446 117.846 44.4714 117.846 45.0043C117.846 45.5372 117.983 45.9639 118.258 46.284C118.533 46.6045 118.899 46.7648 119.354 46.7648ZM116.447 45.5708H115.632V47.9168H114.162V42.0895H115.632V44.3599H116.46C116.561 43.7502 116.814 43.2377 117.219 42.8223C117.759 42.2675 118.47 41.9905 119.354 41.9905C120.23 41.9905 120.938 42.2675 121.478 42.8223C122.018 43.3768 122.288 44.104 122.288 45.0043C122.288 45.9114 122.018 46.6423 121.478 47.1968C120.938 47.7512 120.23 48.0286 119.354 48.0286C118.47 48.0286 117.759 47.7512 117.219 47.1968C116.796 46.7629 116.539 46.2209 116.447 45.5708V45.5708ZM146.838 44.1701C147.443 44.1701 147.93 44.3357 148.297 44.6671C149.032 45.3301 149.04 46.7602 148.303 47.425C147.939 47.7527 147.458 47.9168 146.86 47.9168H143.789V42.0895H145.259V44.1701H146.838V44.1701ZM146.6 46.6956C147.633 46.6956 147.662 45.251 146.578 45.251H145.259V46.6956H146.6ZM141.565 44.8791C142.679 45.1845 143.19 46.7069 142.196 47.5233C141.833 47.8215 141.353 47.9708 140.756 47.9708H137.457V42.1568H140.695C142.629 42.1568 143.066 44.1811 141.565 44.8791ZM140.346 43.2676H138.924V44.4373H140.325C141.286 44.4373 141.275 43.2676 140.346 43.2676V43.2676ZM140.53 46.7266C141.522 46.7266 141.489 45.5221 140.508 45.5221H138.924V46.7266H140.53ZM108.121 42.1409H112.668V47.8828H111.271V43.3235H109.444L109.27 46.1888C109.236 46.7285 109.038 47.1643 108.675 47.4938C108.348 47.7909 107.973 47.9016 107.447 47.9701C107.396 47.9769 106.791 47.9833 106.737 47.9893V46.6359C107.074 46.6359 107.487 46.7111 107.73 46.4439C107.847 46.3165 107.915 46.1495 107.925 45.9435L108.121 42.1409V42.1409ZM100.881 48.0608C99.9454 48.0608 99.1914 47.7818 98.6188 47.2236C98.0458 46.665 97.7593 45.9291 97.7593 45.0152C97.7593 44.1089 98.0492 43.3764 98.6294 42.8182C99.2095 42.26 99.9707 41.9806 100.914 41.9806C101.682 41.9806 102.59 42.2932 103.189 42.9266L102.193 43.8398C101.874 43.4414 101.385 43.2422 100.935 43.2422C100.442 43.2422 100.045 43.4055 99.7443 43.7317C99.4435 44.0583 99.293 44.4861 99.293 45.0152C99.293 45.5519 99.4435 45.9816 99.7443 46.3044C100.045 46.6268 100.446 46.7882 100.946 46.7882C101.504 46.7882 102.105 46.3777 102.431 46.0296L103.216 46.9394C102.821 47.492 101.823 48.0608 100.881 48.0608V48.0608ZM154.98 46.7648C155.428 46.7648 155.79 46.6026 156.065 46.2787C156.34 45.9548 156.478 45.5296 156.478 45.0043C156.478 44.4785 156.34 44.0537 156.065 43.7294C155.79 43.4055 155.428 43.2434 154.98 43.2434C154.525 43.2434 154.16 43.4036 153.885 43.7241C153.61 44.0446 153.472 44.4714 153.472 45.0043C153.472 45.5372 153.61 45.9639 153.885 46.284C154.16 46.6045 154.525 46.7648 154.98 46.7648ZM152.074 45.5708H151.259V47.9168H149.789V42.0895H151.259V44.3599H152.086C152.188 43.7502 152.441 43.2377 152.846 42.8223C153.385 42.2675 154.097 41.9905 154.98 41.9905C155.856 41.9905 156.565 42.2675 157.105 42.8223C157.645 43.3768 157.915 44.104 157.915 45.0043C157.915 45.9114 157.645 46.6423 157.105 47.1968C156.565 47.7512 155.856 48.0286 154.98 48.0286C154.097 48.0286 153.385 47.7512 152.846 47.1968C152.423 46.7629 152.166 46.2209 152.074 45.5708V45.5708ZM133.184 46.7648C133.66 46.7648 134.043 46.6026 134.335 46.2787C134.626 45.9548 134.772 45.5296 134.772 45.0043C134.772 44.4785 134.626 44.0537 134.335 43.7294C134.043 43.4055 133.66 43.2434 133.184 43.2434C132.702 43.2434 132.315 43.4036 132.023 43.7241C131.732 44.0446 131.586 44.4714 131.586 45.0043C131.586 45.5372 131.732 45.9639 132.023 46.284C132.315 46.6045 132.702 46.7648 133.184 46.7648ZM133.184 48.0286C132.248 48.0286 131.494 47.7512 130.921 47.1968C130.349 46.6423 130.063 45.9114 130.063 45.0043C130.063 44.104 130.349 43.3768 130.921 42.8223C131.494 42.2675 132.248 41.9905 133.184 41.9905C134.113 41.9905 134.864 42.2675 135.436 42.8223C136.009 43.3768 136.295 44.104 136.295 45.0043C136.295 45.9114 136.009 46.6423 135.436 47.1968C134.864 47.7512 134.113 48.0286 133.184 48.0286ZM90.5714 46.7648C91.0465 46.7648 91.4301 46.6026 91.7219 46.2787C92.0133 45.9548 92.1592 45.5296 92.1592 45.0043C92.1592 44.4785 92.0133 44.0537 91.7219 43.7294C91.4301 43.4055 91.0465 43.2434 90.5714 43.2434C90.0887 43.2434 89.7017 43.4036 89.4103 43.7241C89.1186 44.0446 88.9727 44.4714 88.9727 45.0043C88.9727 45.5372 89.1186 45.9639 89.4103 46.284C89.7017 46.6045 90.0887 46.7648 90.5714 46.7648ZM90.5714 48.0286C89.6352 48.0286 88.8808 47.7512 88.3086 47.1968C87.736 46.6423 87.4495 45.9114 87.4495 45.0043C87.4495 44.104 87.736 43.3768 88.3086 42.8223C88.8808 42.2675 89.6352 41.9905 90.5714 41.9905C91.5004 41.9905 92.251 42.2675 92.8236 42.8223C93.3958 43.3768 93.6823 44.104 93.6823 45.0043C93.6823 45.9114 93.3958 46.6423 92.8236 47.1968C92.251 47.7512 91.5004 48.0286 90.5714 48.0286ZM64.0693 46.7648C64.5448 46.7648 64.9281 46.6026 65.2198 46.2787C65.5112 45.9548 65.6571 45.5296 65.6571 45.0043C65.6571 44.4785 65.5112 44.0537 65.2198 43.7294C64.9281 43.4055 64.5448 43.2434 64.0693 43.2434C63.5867 43.2434 63.1997 43.4036 62.9083 43.7241C62.6165 44.0446 62.4706 44.4714 62.4706 45.0043C62.4706 45.5372 62.6165 45.9639 62.9083 46.284C63.1997 46.6045 63.5867 46.7648 64.0693 46.7648ZM64.0693 48.0286C63.1332 48.0286 62.3788 47.7512 61.8065 47.1968C61.2339 46.6423 60.9475 45.9114 60.9475 45.0043C60.9475 44.104 61.2339 43.3768 61.8065 42.8223C62.3788 42.2675 63.1332 41.9905 64.0693 41.9905C64.9983 41.9905 65.749 42.2675 66.3216 42.8223C66.8942 43.3768 67.1803 44.104 67.1803 45.0043C67.1803 45.9114 66.8942 46.6423 66.3216 47.1968C65.749 47.7512 64.9983 48.0286 64.0693 48.0286ZM76.8653 46.981C77.2255 46.981 77.535 46.8457 77.7943 46.5758C78.0536 46.3056 78.1866 45.9438 78.1942 45.4903C77.7981 45.4109 77.4307 45.3713 77.0921 45.3713C76.7466 45.3713 76.4711 45.4449 76.2659 45.5927C76.0607 45.7405 75.9582 45.9404 75.9582 46.1922C75.9582 46.4371 76.0372 46.6298 76.1959 46.7701C76.3543 46.9107 76.5773 46.981 76.8653 46.981V46.981ZM77.1677 41.9905C77.9168 41.9905 78.52 42.1976 78.9773 42.6114C79.4343 43.0257 79.6629 43.5744 79.6629 44.2589V47.9206H78.2483L78.2157 47.0891C78.0211 47.3842 77.7675 47.6144 77.4541 47.7803C77.1408 47.9459 76.8041 48.0286 76.4443 48.0286C75.8392 48.0286 75.3512 47.8631 74.9805 47.5316C74.6097 47.2006 74.4241 46.7648 74.4241 46.2247C74.4241 45.663 74.6513 45.2129 75.1048 44.8746C75.5584 44.536 76.1597 44.367 76.9088 44.367C77.3264 44.367 77.7546 44.4101 78.1942 44.4967V44.3886C78.1942 43.9997 78.0699 43.6954 77.8215 43.4758C77.5728 43.2558 77.2293 43.1462 76.7897 43.1462C76.2568 43.1462 75.8033 43.3012 75.4287 43.6108L75.4265 43.6074L75.0492 42.5578C75.6256 42.1794 76.332 41.9905 77.1677 41.9905V41.9905ZM31.1311 41.8563L31.5563 41.1193C31.5752 41.0868 31.6172 41.0758 31.6497 41.0943L32.3697 41.5097V40.679C32.3697 40.6412 32.4003 40.6106 32.4377 40.6106H33.2889C33.3263 40.6106 33.3569 40.6412 33.3569 40.679V41.5097L34.0765 41.0943C34.1094 41.0758 34.151 41.0868 34.1699 41.1193L34.5954 41.8563C34.6143 41.8888 34.603 41.9307 34.5705 41.9496L33.8509 42.365L34.5705 42.7808C34.603 42.7993 34.6143 42.8412 34.5954 42.8741L34.1699 43.6108C34.151 43.6433 34.1094 43.6546 34.0765 43.6357L33.3569 43.2203V44.0515C33.3569 44.0889 33.3263 44.1198 33.2889 44.1198H32.4377C32.4003 44.1198 32.3697 44.0889 32.3697 44.0515V43.2203L31.6497 43.6357C31.6172 43.6546 31.5752 43.6433 31.5563 43.6108L31.1311 42.8741C31.1122 42.8412 31.1236 42.7993 31.1561 42.7808L31.8757 42.365L31.1561 41.9496C31.1236 41.9307 31.1122 41.8888 31.1311 41.8563ZM51.428 41.9905C52.1771 41.9905 52.7799 42.1976 53.2372 42.6114C53.6946 43.0257 53.9232 43.5744 53.9232 44.2589V47.9206H52.5082L52.4756 47.0891C52.2814 47.3842 52.0274 47.6144 51.7145 47.7803C51.4011 47.9459 51.0643 48.0286 50.7045 48.0286C50.0994 48.0286 49.6115 47.8631 49.2407 47.5316C48.87 47.2006 48.6844 46.7648 48.6844 46.2247C48.6844 45.663 48.9112 45.2129 49.3651 44.8746C49.8186 44.536 50.42 44.367 51.1687 44.367C51.5867 44.367 52.0149 44.4101 52.4541 44.4967V44.3886C52.4541 43.9997 52.3301 43.6954 52.0814 43.4758C51.8331 43.2558 51.4892 43.1462 51.05 43.1462C50.5171 43.1462 50.0636 43.3012 49.689 43.6108L49.6864 43.6074L49.3091 42.5578C49.8859 42.1794 50.5919 41.9905 51.428 41.9905V41.9905Z" fill="#fff"/>
</svg>
