<svg width="634" height="104" viewBox="0 0 634 104" fill="none" xmlns="http://www.w3.org/2000/svg">
<path fill-rule="evenodd" clip-rule="evenodd" d="M575.91 39.1751C577.696 41.331 579.249 44.0235 580.765 46.4428L595.253 68.9446L602.198 68.9076L611.946 53.7668C613.576 51.2485 615.201 48.7222 616.825 46.2179C618.02 44.3758 620.272 40.4375 621.639 39.1154L621.717 68.9446L633.025 68.9049L632.964 23.1722L617.972 23.1976C617.389 24.525 616.26 26.0886 615.577 27.2481L601.158 50.4552C600.473 51.5803 599.508 53.3382 598.753 54.153C597.584 53.0003 590.601 41.2611 589.046 38.7911L579.475 23.1696L564.43 23.1673L564.495 68.9673L575.854 68.8947L575.91 39.1751ZM514.341 49.6033C514.068 46.3196 514.229 39.0709 515.016 36.1175C515.693 33.5739 516.862 33.837 519.481 33.5002C525.138 32.773 534.909 32.7919 540.322 33.411C542.534 33.6642 544.813 33.4288 545.542 35.3435C546.12 36.8651 546.375 39.7357 546.442 41.5181C546.599 45.6344 546.688 51.425 545.736 55.0061C545.093 57.4242 543.64 57.3097 541.162 57.5728C538.94 57.8082 536.795 57.9643 534.392 58.0305C529.665 58.1601 522.035 58.1858 517.429 57.2171C514.576 56.6169 514.747 54.4686 514.341 49.6033ZM310.275 34.0633L342.839 33.9983L342.836 23.1658L298.785 23.2868L298.827 68.7968C301.457 69.2356 340.487 68.9979 342.846 68.8898L342.799 58.0664L310.264 57.9685L310.341 51.2254L341.718 51.1771L341.601 40.3343L310.247 40.2761L310.275 34.0633ZM210.727 57.9708C211.464 56.7579 216.671 52.8185 218.178 51.4824C223.733 46.5562 231.51 40.6155 236.827 35.9066C238.184 34.7051 239.184 33.7595 240.647 32.8478L240.618 23.1798L235.279 23.1673C224.039 23.1496 203.984 22.7361 193.707 23.3083L193.735 34.0494C202.755 34.0429 214.055 33.8003 222.816 34.1586L192.372 59.438L192.375 68.9318L240.66 68.9026L240.538 58.0762L210.727 57.9708ZM440.582 68.6419L440.362 58.0649L407.894 57.9772L407.982 51.2266L439.384 51.1963L439.22 40.3358L407.889 40.2569L407.912 34.0633L440.496 33.9897L440.451 23.1685L396.731 23.1647C396.147 23.6693 396.226 22.2709 396.189 24.1081L396.345 68.8807C398.388 69.6094 434.482 69.1162 439.921 69.1974L440.582 68.6419ZM485.667 48.9906C485.57 50.9813 485.721 52.7486 485.338 54.6058C484.935 56.5701 484.735 57.3645 482.778 57.6378C477.773 58.3343 466.235 58.2478 461.323 57.3505C459.206 56.9628 458.825 56.7617 458.329 54.7839C457.477 51.3781 457.597 42.4868 457.954 39.0618C458.452 34.264 458.604 33.8623 463.237 33.261C467.938 32.6509 480.652 32.7995 484.735 34.015C485.905 36.6807 485.519 38.852 485.665 42.141L497.101 42.099C497.203 34.4791 496.682 27.3929 491.091 24.4906C486.569 22.1427 476.038 21.9137 470.03 22.0535C463.214 22.2126 454.965 22.4961 450.937 26.4676C444.118 33.1899 445.004 59.2611 450.765 64.5154C454.82 68.2121 463.1 68.793 470.03 68.9484C491.944 69.4352 497.127 67.4139 497.124 48.8863L485.667 48.9906ZM137.026 22.6231C136.665 25.8077 136.852 54.9694 137.269 58.3128C137.998 64.1631 140.459 66.7695 145.746 67.9249C153.044 69.5202 172.04 69.3577 179.259 67.6044C184.732 66.2759 186.781 63.9953 187.452 58.018C187.81 54.8258 187.933 25.5965 187.585 22.6167L176.301 22.6397C175.734 27.5327 176.175 35.0982 176.175 40.2761C176.175 42.8133 176.875 55.9725 175.271 57.1139C174.011 58.0104 150.458 59.4482 148.84 56.4465C147.919 54.7355 148.887 27.2326 148.395 22.6204L137.026 22.6231ZM245.98 34.052L263.985 34.0671L264.019 68.9242L275.464 68.9026L275.498 34.0709L293.484 34.0188L293.448 23.1647L245.909 23.2804L245.98 34.052ZM349.033 68.9597L391.325 68.821L391.267 58.0637L360.41 58.0611L360.429 23.1976L348.973 23.2055L349.033 68.9597ZM557.895 51.4696C559.072 28.7482 557.218 23.218 536.79 22.0993C530.302 21.7432 518.836 21.9303 513.015 23.5309C505.29 25.655 503.323 30.1338 502.939 39.0315C501.937 62.2628 502.943 67.7635 524.13 68.8645C531.577 69.2507 541.623 69.2319 548.137 67.3961C555.919 65.2018 557.431 60.446 557.895 51.4696Z" fill="#FEFEFE"/>
<path d="M9.38041 20.9972C8.35313 20.9972 7.32661 21.0576 6.32202 21.1812C18.6773 22.7002 28.2625 33.2288 28.2625 45.9957C28.2625 58.7822 18.6773 69.3116 6.32202 70.8299C7.32661 70.9534 8.35313 71.0147 9.38041 71.0147C23.1934 71.0147 34.3986 59.8095 34.3986 45.9957C34.3986 32.1819 23.1934 20.9972 9.38041 20.9972ZM0 35.6512C3.14117 38.033 5.15261 41.7876 5.15261 45.9957C5.15261 50.225 3.14117 53.9785 0 56.3607C4.4965 55.0462 7.77939 50.9004 7.77939 45.9957C7.77939 41.1114 4.4965 36.9657 0 35.6512ZM44.9287 0C42.9989 0 41.1315 0.123958 39.264 0.348462C62.0047 3.14153 79.6354 22.5161 79.6354 45.9957C79.6354 69.4957 62.0047 88.8703 39.264 91.6611C41.1315 91.8879 42.9989 92.0115 44.9287 92.0115C70.3181 92.0115 90.9241 71.4058 90.9241 45.9957C90.9241 20.606 70.3181 0 44.9287 0ZM17.4055 12.3764C16.0101 12.3764 14.6351 12.4596 13.2801 12.624C29.9047 14.6547 42.7725 28.8367 42.7725 45.9965C42.7725 63.1737 29.9047 77.3355 13.2801 79.3893C14.6351 79.553 16.0101 79.6339 17.4055 79.6339C35.9803 79.6339 51.0455 64.571 51.0455 45.9965C51.0455 27.442 35.9803 12.3764 17.4055 12.3764ZM28.673 4.88541C26.9696 4.88541 25.2869 5.00865 23.6247 5.2135C43.9427 7.69627 59.6844 25.0193 59.6844 45.9965C59.6844 66.9933 43.9427 84.3137 23.6247 86.7969C25.2869 87.0036 26.9696 87.1068 28.673 87.1068C51.3736 87.1068 69.7837 68.6963 69.7837 45.9965C69.7837 23.2959 51.3736 4.88541 28.673 4.88541ZM3.81769 30.1508C3.16157 30.1508 2.52623 30.2113 1.88786 30.2744C9.70922 31.2378 15.7844 37.9086 15.7844 45.9957C15.7844 54.102 9.70922 60.7733 1.88786 61.717C2.52623 61.7998 3.16157 61.8406 3.81769 61.8406C12.5828 61.8406 19.6626 54.7608 19.6626 45.9957C19.6626 37.2529 12.5828 30.1508 3.81769 30.1508Z" fill="#FEFEFE"/>
<path fill-rule="evenodd" clip-rule="evenodd" d="M472.256 95.4249H476.691V99.8598H472.256V95.4249ZM490.413 102.192L503.662 79.2437L506.153 80.6753L492.904 103.624L490.413 102.192ZM611.066 93.2612H628.528V84.2338H614.946C613.878 84.2338 612.909 84.6699 612.205 85.3729C611.502 86.0763 611.066 87.0465 611.066 88.1142V93.2612ZM628.528 96.1476H611.066V99.8598H608.183V88.1142C608.183 86.2509 608.943 84.5596 610.167 83.335C611.392 82.1104 613.083 81.3511 614.946 81.3511H629.969C630.765 81.3511 631.41 81.9963 631.41 82.7922V99.8598H628.528V96.1476ZM585.674 99.8598V84.2338H575.74V99.8598H572.857V82.7922C572.857 81.9963 573.502 81.3511 574.298 81.3511H599.909C600.705 81.3511 601.35 81.9963 601.35 82.7922V99.8598H598.468V84.2338H588.557V99.8598H585.674ZM561.008 99.8663H545.985C545.189 99.8663 544.544 99.2211 544.544 98.4251V82.7922C544.544 81.9963 545.189 81.3511 545.985 81.3511H561.008C562.871 81.3511 564.562 82.1104 565.787 83.335C567.012 84.5599 567.771 86.2509 567.771 88.1142V93.1032C567.771 94.9665 567.012 96.6578 565.787 97.8824C564.562 99.107 562.871 99.8663 561.008 99.8663ZM547.426 96.9836H561.008C562.076 96.9836 563.046 96.5475 563.749 95.8441C564.452 95.1411 564.889 94.1709 564.889 93.1032V88.1142C564.889 87.0465 564.452 86.0763 563.749 85.3729C563.046 84.6699 562.076 84.2338 561.008 84.2338H547.426V96.9836ZM538.102 93.6021V98.4251C538.102 99.2211 537.456 99.8663 536.66 99.8663H516.316C515.52 99.8663 514.874 99.2211 514.874 98.4251V82.7922C514.874 81.9963 515.52 81.3511 516.316 81.3511H536.66C537.456 81.3511 538.102 81.9963 538.102 82.7922V87.5465H535.219V84.2338H517.757V96.9836H535.219V93.6021H538.102ZM466.6 99.8598V84.2338H456.664V99.8598H453.782V82.7922C453.782 81.9963 454.427 81.3511 455.223 81.3511H480.835C481.631 81.3511 482.276 81.9963 482.276 82.7922V99.8598H479.393V84.2338H469.482V99.8598H466.6ZM429.779 93.7824L429.796 96.9836H444.554V92.5374L428.333 91.4693C427.57 91.4217 426.984 90.7875 426.985 90.0338H426.982V82.7922C426.982 81.9963 427.627 81.3511 428.423 81.3511H445.996C446.792 81.3511 447.437 81.9963 447.437 82.7922V87.5465H444.554V84.2338H429.864V88.6868L446.002 89.7496C446.795 89.7522 447.437 90.3966 447.437 91.1907V98.4251C447.437 99.2211 446.792 99.8663 445.996 99.8663H428.367V99.8606C427.577 99.8606 426.935 99.2219 426.932 98.4308L426.908 93.7937L429.779 93.7824ZM459.451 95.4249H463.886V99.8598H459.451V95.4249ZM459.451 87.1096H463.886V91.5445H459.451V87.1096ZM409.191 90.7259L419.138 90.7251C419.93 90.7251 420.573 91.368 420.573 92.1609H420.579V98.4251C420.579 99.2211 419.933 99.8663 419.138 99.8663H398.793C397.997 99.8663 397.352 99.2211 397.352 98.4251V82.7922C397.352 81.9963 397.997 81.3511 398.793 81.3511H419.138C419.933 81.3511 420.579 81.9963 420.579 82.7922V87.5465H417.696V84.2338H400.234V96.9836H417.696V93.5964L409.191 93.5971V90.7259Z" fill="#FEFEFE"/>
</svg>
