<svg width="681" height="500" viewBox="0 0 681 815" fill="none" xmlns="http://www.w3.org/2000/svg">
<path d="M680.062 278.016C680.062 376.411 600.295 456.178 501.9 456.178C403.504 456.178 323.739 376.411 323.739 278.016C323.739 179.618 403.504 99.8569 501.9 99.8569C600.295 99.8569 680.062 179.618 680.062 278.016Z" fill="#fff"/>
<path d="M648.877 449.74C648.877 533.356 581.094 601.142 497.476 601.142C413.859 601.142 342.133 546.684 342.133 463.067C342.133 379.451 438.308 448.819 487.185 335.301C506.703 289.968 526.915 300.511 540.575 304.56C603.194 323.121 648.877 381.096 648.877 449.74Z" fill="#fff"/>
<path d="M501.9 178.163C501.9 276.558 422.134 356.323 323.739 356.323C225.343 356.323 145.577 276.558 145.577 178.163C145.577 79.7665 225.343 0 323.739 0C422.134 0 501.9 79.7665 501.9 178.163Z" fill="#fff"/>
<path d="M279.592 257.257C281.169 361.841 254.122 441.988 163.709 441.988C73.2948 441.988 0 368.693 0 278.279C0 187.864 73.2948 114.572 163.709 114.572C221.96 114.572 281.33 153.725 310.347 199.547C326.368 224.851 279.107 225.096 279.592 257.257Z" fill="#fff"/>
<path d="M333.724 463.769C333.724 538.605 290.575 605.872 215.738 605.872C140.901 605.872 80.2344 545.204 80.2344 470.367C80.2344 427.366 100.264 389.042 131.505 364.219C154.632 345.842 154.632 345.842 177.11 373.204C224.615 431.03 333.724 388.932 333.724 463.769Z" fill="#fff"/>
<path d="M509.836 384.55C494.041 407.56 478.784 431.423 465.351 455.892C443.607 495.497 431.178 541.196 422.016 585.112C377.514 569.747 324.049 568.63 279.838 585.301C261.461 525.549 200.18 456.137 156.873 417.797C129.285 393.374 123.24 339.105 170.54 352.118C196.254 359.193 225.987 419.914 249.234 393.976C266.347 374.883 264.047 313.025 264.254 284.359C264.377 267.444 244.686 178.735 302.979 194.188C321.814 199.186 312.678 239.788 312.709 257.474C312.749 280.545 311.042 307.33 315.856 330.045C324.379 370.273 341.063 306.372 341.87 297.724C343.745 277.637 349.753 193.667 363.418 187.358C390.95 174.654 408.09 183.943 401.783 233.869C397.773 265.615 389.278 292.702 386.279 324.527C382.107 368.805 414.671 290.786 417.777 284.089C424.595 269.384 453.54 193.999 481.929 232.031C495.856 250.689 465.067 299.709 455.34 323.782C447.241 343.823 431.838 404.824 464.325 360.862C474.541 347.036 510.956 280.258 535.272 306.658C553.667 326.629 519.027 371.159 509.836 384.55Z" fill="black"/>
<path d="M280.118 585.113C280.118 585.113 292.031 616.996 280.118 667.799C268.206 718.602 223.359 772.208 223.359 772.208C223.359 772.208 246.133 814.252 351.242 814.252C463.71 814.252 479.126 771.857 479.126 771.857C479.126 771.857 438.133 729.813 425.87 670.602C413.607 611.39 422.016 585.112 422.016 585.112C422.016 585.112 397.14 572.85 351.242 572.85C305.344 572.85 280.118 585.113 280.118 585.113Z" fill="#fff"/>
</svg>
