<svg width="311" height="104" viewBox="0 0 311 104" fill="none" xmlns="http://www.w3.org/2000/svg">
<path fill-rule="evenodd" clip-rule="evenodd" d="M277.864 102.85C277.281 103.043 276.657 103.151 276.01 103.151H269.091C268.62 103.151 268.157 103.097 267.717 102.989C267.273 103.097 266.806 103.151 266.325 103.151H261.485C260.978 103.151 260.484 103.088 260.017 102.971C259.555 103.088 259.065 103.151 258.567 103.151H251.648C250.93 103.151 250.243 103.021 249.61 102.787C248.959 103.03 248.258 103.151 247.517 103.151H239.44C238.793 103.151 238.169 103.047 237.586 102.854C237.002 103.047 236.378 103.151 235.731 103.151H227.551C226.81 103.151 226.109 103.03 225.463 102.787C224.83 103.021 224.143 103.151 223.429 103.151H215.513C214.413 103.151 213.381 102.845 212.496 102.316C211.89 102.522 211.257 102.679 210.606 102.783C209.636 102.94 208.639 103.016 207.656 103.065C206.435 103.128 205.209 103.146 203.988 103.146H202.753C202.232 103.146 201.729 103.079 201.244 102.949C200.751 103.079 200.234 103.146 199.7 103.146H192.399C191.726 103.146 191.106 103.047 190.518 102.85C189.939 103.043 189.319 103.146 188.673 103.146H180.757C179.859 103.146 179.006 102.944 178.243 102.581C177.479 102.944 176.626 103.146 175.728 103.146H162.007C158.757 103.146 156.103 100.488 156.103 97.2241V92.8689C156.09 92.8734 156.076 92.8779 156.067 92.8824C155.317 93.1383 154.545 93.3224 153.764 93.4571V97.2241C153.764 100.484 151.11 103.146 147.86 103.146H139.944C136.693 103.146 134.04 100.488 134.04 97.2241V75.9106C133.622 75.933 133.205 75.942 132.787 75.942H127.853C128.252 77.3249 128.414 78.7931 128.414 80.2568C128.414 81.9001 128.239 83.5703 127.687 85.0969C127.794 85.3528 127.893 85.6177 127.974 85.8916C128.221 86.7178 128.311 87.5843 128.356 88.4464C128.405 89.3084 128.414 90.1795 128.414 91.0415V97.1882C128.414 100.448 125.76 103.11 122.51 103.11H115.523C115.137 103.11 114.756 103.074 114.388 103.003C114.019 103.074 113.642 103.11 113.252 103.11H105.713C104.936 103.11 104.195 102.958 103.518 102.684C102.84 102.958 102.099 103.11 101.322 103.11H88.2609C86.6221 103.11 85.1359 102.437 84.0628 101.346C82.9897 102.432 81.5036 103.11 79.8648 103.11H72.3262C70.674 103.11 69.1743 102.423 68.1013 101.319C67.0282 102.423 65.5285 103.11 63.8763 103.11H57.2896C56.5937 103.11 55.9292 102.998 55.3096 102.783C54.7034 102.994 54.0524 103.11 53.3744 103.11H47.0796C46.3028 103.11 45.562 102.958 44.884 102.684C44.2061 102.958 43.4652 103.11 42.6885 103.11H29.6274C27.818 103.11 26.1971 102.289 25.1106 101C24.8367 101.189 24.5583 101.364 24.2754 101.539C21.7252 103.07 18.8382 103.681 15.8883 103.681C13.0821 103.681 10.2625 103.223 7.74367 101.93C5.09014 100.565 3.04275 98.4319 2.03253 95.5988C1.16598 93.1697 0.995361 90.3097 0.995361 87.7459V79.9694C0.995361 78.2723 1.0223 76.4628 1.27373 74.7791C1.58354 72.6958 2.48151 70.8101 3.79256 69.1758C5.20239 67.4157 7.04773 66.1451 9.12206 65.301C11.2054 64.4524 13.4324 64.1067 15.6773 64.1067C17.9357 64.1067 20.1896 64.421 22.2864 65.2246V61.3095C22.2864 58.0498 24.9399 55.3873 28.1906 55.3873H28.8057V20.5592H28.1906C24.9399 20.5592 22.2864 17.9012 22.2864 14.637V5.92217C22.2864 2.66251 24.9399 0 28.1906 0H72.883C76.1337 0 78.7872 2.65802 78.7872 5.92217V22.7009H94.0887C98.5652 22.7009 103.037 23.8458 106.09 27.3434C106.144 27.4063 106.198 27.4692 106.252 27.532C109.583 23.8413 114.509 22.7054 119.331 22.7054H132.159C137.174 22.7054 142.297 23.9356 145.628 27.9855C146.028 28.4749 146.387 28.9822 146.706 29.5121C147.029 28.9194 147.406 28.3447 147.842 27.8014C150.958 23.8907 155.834 22.7099 160.606 22.7099H183.159C185.454 22.7099 187.452 24.0344 188.426 25.9605V20.3841C185.274 20.2719 182.737 17.6543 182.737 14.4664V5.93115C182.737 2.67149 185.391 0.00897978 188.641 0.00897978H204.158C207.409 0.00897978 210.063 2.667 210.063 5.93115V29.9072L214.844 24.6405C216.003 23.3609 217.489 22.7054 219.209 22.7054H231.776C234.312 22.7054 236.486 24.3262 237.316 26.5891C240.473 23.6078 244.945 22.7054 249.255 22.7054H262.082C266.218 22.7054 270.672 23.3789 274.012 26.0189C277.604 28.8565 278.848 33.1893 278.848 37.6163V55.971C281.807 56.2898 284.123 58.8086 284.123 61.8572V64.6499H286.633C289.444 64.6499 291.81 66.639 292.398 69.288C292.986 66.639 295.348 64.6499 298.163 64.6499H305.087C308.337 64.6499 310.991 67.308 310.991 70.5721V97.2331C310.991 100.493 308.337 103.155 305.087 103.155H298.163C297.077 103.155 296.062 102.859 295.186 102.343C294.773 102.486 294.347 102.607 293.911 102.697C292.977 102.895 292.012 102.994 291.06 103.056C289.947 103.128 288.824 103.151 287.706 103.151H279.714C279.068 103.151 278.444 103.047 277.86 102.85H277.864ZM64.5991 68.0353V61.8572C64.5991 58.5976 67.2482 55.9396 70.4944 55.9351V42.7168C70.3956 42.7168 70.2968 42.7123 70.198 42.7078C69.5156 45.2177 67.2167 47.072 64.5004 47.072H51.4752V55.3873H53.123C56.3737 55.3873 59.0272 58.0453 59.0272 61.3095V67.9904H63.8718C64.1187 67.9904 64.3612 68.0039 64.5991 68.0353ZM103.257 68.5247C103.603 68.3676 103.966 68.2374 104.344 68.1476C103.226 65.8308 102.772 63.2311 102.772 60.5821V50.6145H94.0887C93.4018 50.6145 92.7463 50.4978 92.1311 50.2778V55.9306H92.432C95.6826 55.9306 98.3362 58.5886 98.3362 61.8527V67.9859H100.801C101.677 67.9859 102.507 68.179 103.253 68.5202L103.257 68.5247ZM233.536 42.4474C232.983 42.618 232.395 42.7123 231.785 42.7123H230.411C231.825 44.5307 232.57 46.7892 232.97 49.0835C233.239 47.9386 233.666 46.8385 234.268 45.8148C233.801 44.9663 233.536 43.9964 233.536 42.9638V42.4429V42.4474ZM188.43 45.1818C188.363 45.3165 188.291 45.4467 188.21 45.5769C188.287 45.6936 188.358 45.8104 188.43 45.9271V45.1818ZM211.351 46.1247C211.347 46.1112 211.342 46.0977 211.338 46.0887L211.302 46.1247H211.351V46.1247ZM56.4275 20.5592H51.4797V26.5128H56.8361C56.5712 25.8438 56.4275 25.1165 56.4275 24.3532V20.5592Z" fill="#FEFEFE"/>
<path d="M265.374 53.3169V61.8521H260.879V53.3169L263.129 51.1931L265.378 53.3169H265.374ZM260.879 53.3169C260.879 52.145 261.885 51.1931 263.129 51.1931C264.368 51.1931 265.378 52.145 265.378 53.3169H260.884H260.879ZM250.817 51.1931H263.129V55.4361H250.817V51.1931ZM250.584 55.4047H246.089L246.094 55.1981L246.107 54.9916L246.125 54.7895L246.157 54.574L246.197 54.3675L246.247 54.161L246.309 53.9544L246.381 53.7524L246.467 53.5458L246.574 53.3348L246.691 53.1373L246.817 52.9487L246.96 52.7601L247.118 52.5805L247.279 52.4144L247.454 52.2572L247.647 52.1046L247.841 51.9699L248.034 51.8487L248.245 51.7364L248.451 51.6376L248.662 51.5523L248.873 51.476L249.089 51.4086L249.304 51.3548L249.52 51.3099L249.735 51.274L249.951 51.2425L250.166 51.2201L250.382 51.2066L250.597 51.1976L250.813 51.1931V55.4361H250.723L250.642 55.4406L250.57 55.4451L250.512 55.4496L250.463 55.4585L250.422 55.4675L250.391 55.4765L250.368 55.481L250.355 55.4855H250.35L250.359 55.481L250.382 55.4675L250.395 55.4585L250.418 55.4406L250.449 55.4136L250.472 55.3912L250.494 55.3687L250.516 55.3418L250.539 55.3149L250.552 55.2924L250.566 55.27L250.579 55.243L250.584 55.2295L250.579 55.243L250.575 55.261L250.57 55.2789L250.566 55.3149L250.561 55.3598V55.4091L250.584 55.4047ZM246.089 59.67V55.4047H250.584V59.67H246.089ZM250.822 59.7284V63.9714L250.602 63.9669L250.386 63.9579L250.166 63.9399L249.946 63.9175L249.731 63.886L249.511 63.8456L249.291 63.7963L249.075 63.7379L248.855 63.666L248.64 63.5852L248.433 63.4954L248.222 63.3922L248.016 63.2754L247.818 63.1497L247.625 63.0105L247.436 62.8534L247.261 62.6917L247.1 62.5211L246.947 62.337L246.808 62.1485L246.687 61.9554L246.574 61.7489L246.471 61.5378L246.386 61.3313L246.314 61.1293L246.251 60.9182L246.202 60.7117L246.161 60.5007L246.13 60.2852L246.112 60.0786L246.098 59.8721L246.094 59.6656H250.588V59.7239L250.593 59.7733L250.597 59.8182L250.602 59.8452L250.606 59.8676L250.611 59.8856V59.8901V59.8945L250.606 59.8901L250.597 59.8721L250.584 59.8496L250.575 59.8317L250.557 59.8092L250.534 59.7823L250.512 59.7598L250.49 59.7374L250.458 59.7149L250.436 59.697L250.418 59.688L250.4 59.679L250.386 59.67H250.395L250.418 59.679L250.445 59.6835L250.481 59.688L250.53 59.697L250.584 59.7015L250.651 59.706L250.732 59.7105H250.817L250.822 59.7284ZM263.133 63.9714H250.822V59.7284H263.133L265.383 61.8521L263.133 63.9759V63.9714ZM263.133 59.7284C264.372 59.7284 265.383 60.6803 265.383 61.8521C265.383 63.024 264.377 63.9759 263.133 63.9759V59.7329V59.7284ZM246.372 67.9H278.237V72.143H246.372V67.9ZM236.261 62.7277H240.755L240.76 63.1048L240.778 63.464L240.809 63.8052L240.854 64.1285L240.908 64.4338L240.971 64.7212L241.043 64.9906L241.124 65.2375L241.213 65.4665L241.312 65.682L241.415 65.8796L241.523 66.0636L241.644 66.2343L241.77 66.3959L241.905 66.5441L242.049 66.6833L242.201 66.8135L242.363 66.9347L242.538 67.0514L242.727 67.1637L242.929 67.2669L243.149 67.3657L243.387 67.46L243.638 67.5453L243.912 67.6216L244.204 67.689L244.518 67.7474L244.85 67.7967L245.2 67.8372L245.573 67.8641L245.968 67.8821L246.381 67.8865V72.1295L245.825 72.1205L245.281 72.0936L244.747 72.0532L244.222 71.9948L243.71 71.9185L243.207 71.8197L242.718 71.7029L242.237 71.5683L241.77 71.4111L241.317 71.2315L240.877 71.0295L240.45 70.805L240.037 70.558L239.642 70.2886L239.265 69.9968L238.91 69.687L238.578 69.3547L238.264 69.0045L237.976 68.6364L237.711 68.2547L237.469 67.8551L237.253 67.442L237.06 67.0155L236.89 66.5755L236.742 66.1265L236.616 65.6685L236.513 65.2016L236.427 64.7212L236.364 64.2318L236.319 63.7334L236.293 63.226L236.284 62.7097L236.261 62.7277ZM240.755 52.347V62.7277H236.261V52.347H240.755ZM247.333 43.475V47.718L246.848 47.7224L246.386 47.7404L245.941 47.7673L245.524 47.8078L245.124 47.8571L244.747 47.9155L244.392 47.9829L244.06 48.0592L243.75 48.1445L243.458 48.2388L243.189 48.3376L242.938 48.4453L242.709 48.5576L242.498 48.6743L242.304 48.7955L242.129 48.9212L241.968 49.0559L241.82 49.1951L241.68 49.3388L241.555 49.487L241.438 49.6486L241.33 49.8192L241.231 49.9988L241.137 50.1964L241.052 50.4029L240.975 50.6274L240.908 50.8699L240.854 51.1258L240.809 51.3997L240.778 51.696L240.76 52.0103L240.751 52.3381H236.257L236.266 51.8397L236.297 51.3503L236.351 50.8699L236.427 50.3939L236.526 49.927L236.652 49.469L236.8 49.02L236.975 48.5845L237.177 48.1625L237.406 47.7494L237.662 47.3543L237.94 46.9726L238.246 46.609L238.573 46.2632L238.924 45.94L239.296 45.6346L239.691 45.3518L240.1 45.0914L240.526 44.8534L240.971 44.6379L241.429 44.4403L241.9 44.2652L242.385 44.1081L242.884 43.9689L243.396 43.8477L243.921 43.7444L244.455 43.6591L245.003 43.5917L245.569 43.5379L246.143 43.502L246.732 43.4795L247.333 43.4705V43.475ZM263.129 47.718H247.333V43.475H263.129L265.378 45.5987L263.129 47.7224V47.718ZM263.129 43.475C264.368 43.475 265.378 44.4269 265.378 45.5987C265.378 46.7706 264.372 47.7224 263.129 47.7224V43.4795V43.475ZM265.378 38.8639V45.5987H260.884V38.8639H265.378ZM260.628 38.9133V34.6703L260.848 34.6748L261.063 34.6838L261.279 34.7018L261.494 34.7242L261.71 34.7556L261.925 34.7916L262.141 34.8365L262.347 34.8903L262.563 34.9532L262.783 35.0295L262.994 35.1148L263.196 35.2091L263.402 35.3169L263.609 35.4426L263.798 35.5728L263.982 35.7165L264.161 35.8781L264.327 36.0487L264.48 36.2238L264.624 36.4124L264.754 36.6055L264.871 36.803L264.974 37.0051L265.064 37.2071L265.14 37.4137L265.203 37.6202L265.252 37.8267L265.293 38.0333L265.324 38.2443L265.347 38.4463L265.36 38.6529L265.365 38.8594H260.87V38.81L260.866 38.7696L260.861 38.7337L260.857 38.7157L260.852 38.7023V38.6933L260.857 38.7023L260.861 38.7157L260.87 38.7382L260.884 38.7651L260.902 38.7921L260.924 38.8235L260.947 38.8504L260.973 38.8774L261.005 38.9043L261.027 38.9223L261.045 38.9357L261.072 38.9537L261.086 38.9627L261.068 38.9582L261.036 38.9492L261.005 38.9402L260.96 38.9312L260.906 38.9223L260.843 38.9178L260.771 38.9133L260.691 38.9088H260.601L260.628 38.9133ZM251.248 34.6703H260.628V38.9133H251.248V34.6703ZM251.203 38.8819H246.709L246.714 38.6843L246.723 38.4823L246.74 38.2847L246.767 38.0871L246.803 37.8851L246.848 37.6786L246.902 37.481L246.969 37.2835L247.05 37.0814L247.14 36.8839L247.243 36.6863L247.36 36.4977L247.49 36.3136L247.638 36.1296L247.796 35.9589L247.957 35.8018L248.141 35.6446L248.325 35.5055L248.514 35.3797L248.721 35.2585L248.923 35.1552L249.129 35.0654L249.34 34.9846L249.551 34.9173L249.762 34.8589L249.973 34.8095L250.184 34.7691L250.395 34.7377L250.606 34.7152L250.817 34.6973L251.028 34.6883L251.239 34.6838V38.9268H251.168L251.105 38.9312L251.051 38.9357L251.006 38.9402L250.97 38.9447L250.943 38.9492L250.925 38.9537H250.916L250.925 38.9492L250.939 38.9447L250.957 38.9357L250.988 38.9178L251.015 38.8998L251.042 38.8774L251.078 38.8459L251.1 38.8235L251.127 38.7965L251.154 38.7606L251.172 38.7337L251.185 38.7112L251.199 38.6888L251.208 38.6753L251.212 38.6663L251.208 38.6753L251.203 38.6888L251.199 38.7067L251.194 38.7427L251.19 38.7876V38.837V38.8953L251.203 38.8819ZM246.709 42.9677V38.8819H251.203V42.9677L248.954 45.0914L246.705 42.9677H246.709ZM251.203 42.9677C251.203 44.1395 250.198 45.0914 248.954 45.0914C247.715 45.0914 246.705 44.1395 246.705 42.9677H251.199H251.203ZM239.44 40.8439H248.959V45.0869H239.44L237.19 42.9632L239.44 40.8394V40.8439ZM239.44 45.0869C238.201 45.0869 237.19 44.135 237.19 42.9632C237.19 41.7913 238.196 40.8394 239.44 40.8394V45.0824V45.0869ZM241.689 35.9724V42.9632H237.195V35.9724H241.689V35.9724ZM249.268 26.4987V30.7417L248.721 30.7462L248.195 30.7641L247.692 30.7956L247.216 30.8405L246.763 30.8943L246.332 30.9617L245.923 31.038L245.537 31.1278L245.178 31.2266L244.841 31.3343L244.527 31.4466L244.235 31.5678L243.966 31.698L243.719 31.8327L243.49 31.9764L243.279 32.1246L243.09 32.2772L242.915 32.4344L242.753 32.6005L242.605 32.7756L242.466 32.9597L242.34 33.1528L242.224 33.3593L242.116 33.5793L242.017 33.8173L241.932 34.0687L241.855 34.3381L241.793 34.6254L241.743 34.9352L241.707 35.263L241.685 35.6087L241.676 35.9769H237.182L237.195 35.4381L237.231 34.9083L237.289 34.3875L237.375 33.8756L237.482 33.3728L237.617 32.8834L237.779 32.4029L237.972 31.936L238.192 31.4825L238.439 31.0425L238.713 30.6205L239.018 30.2164L239.35 29.8302L239.705 29.4666L240.086 29.1208L240.491 28.7976L240.913 28.5012L241.357 28.2273L241.82 27.9714L242.3 27.7424L242.798 27.5359L243.31 27.3473L243.84 27.1812L244.383 27.033L244.94 26.9073L245.51 26.7996L246.098 26.7098L246.7 26.6379L247.315 26.584L247.944 26.5436L248.59 26.5212L249.255 26.5122L249.268 26.4987ZM262.096 30.7417H249.268V26.4987H262.096V30.7417ZM271.817 29.0355L268.93 32.2907L268.822 32.2099L268.71 32.1291L268.593 32.0527L268.467 31.9764L268.337 31.9001L268.198 31.8237L268.054 31.7519L267.906 31.6801L267.749 31.6127L267.583 31.5454L267.407 31.478L267.228 31.4152L267.039 31.3523L266.846 31.2939L266.644 31.2401L266.433 31.1862L266.213 31.1368L265.989 31.0874L265.76 31.0425L265.522 31.0021L265.275 30.9617L265.023 30.9258L264.763 30.8943L264.494 30.8629L264.215 30.836L263.932 30.8135L263.64 30.7956L263.344 30.7776L263.039 30.7641L262.729 30.7552L262.41 30.7507H262.087V26.5077H262.469L262.841 26.5122L263.209 26.5212L263.573 26.5391L263.932 26.5571L264.287 26.5796L264.637 26.6065L264.978 26.6379L265.32 26.6738L265.656 26.7187L265.989 26.7681L266.312 26.822L266.631 26.8804L266.949 26.9432L267.259 27.0106L267.565 27.0824L267.865 27.1588L268.162 27.2441L268.454 27.3339L268.741 27.4281L269.024 27.5269L269.302 27.6302L269.576 27.7424L269.845 27.8592L270.11 27.9849L270.366 28.1151L270.618 28.2498L270.865 28.3935L271.107 28.5416L271.345 28.6988L271.574 28.8604L271.799 29.031L271.817 29.0355ZM275.206 37.6067H270.712V37.3373L270.703 37.0724L270.694 36.8165L270.681 36.5696L270.663 36.3271L270.64 36.0936L270.613 35.8646L270.582 35.6402L270.546 35.4291L270.505 35.2181L270.461 35.0161L270.416 34.823L270.366 34.6389L270.312 34.4593L270.259 34.2842L270.2 34.1181L270.137 33.9609L270.074 33.8128L270.007 33.6646L269.94 33.5254L269.868 33.3952L269.796 33.2695L269.72 33.1483L269.643 33.0315L269.563 32.9238L269.477 32.816L269.392 32.7172L269.307 32.6229L269.217 32.5331L269.127 32.4478L269.033 32.367L268.934 32.2862L271.821 29.031L272.041 29.2106L272.257 29.3992L272.463 29.5968L272.661 29.7988L272.854 30.0098L273.038 30.2298L273.213 30.4498L273.383 30.6788L273.545 30.9168L273.698 31.1592L273.841 31.4062L273.976 31.6576L274.102 31.9135L274.223 32.174L274.335 32.4434L274.439 32.7127L274.537 32.9866L274.627 33.265L274.713 33.5479L274.789 33.8352L274.861 34.1271L274.924 34.4234L274.982 34.7197L275.031 35.025L275.076 35.3304L275.112 35.6402L275.144 35.9589L275.17 36.2777L275.188 36.601L275.202 36.9288L275.211 37.261L275.215 37.5977L275.206 37.6067ZM270.712 61.8476V37.6067H275.206V61.8476L272.957 63.9714L270.708 61.8476H270.712ZM275.206 61.8476C275.206 63.0195 274.201 63.9714 272.957 63.9714C271.718 63.9714 270.708 63.0195 270.708 61.8476H275.202H275.206ZM278.233 63.9714H272.957V59.7284H278.233L280.482 61.8521L278.233 63.9759V63.9714ZM278.233 59.7284C279.472 59.7284 280.482 60.6803 280.482 61.8521C280.482 63.024 279.476 63.9759 278.233 63.9759V59.7329V59.7284ZM275.983 70.0237V61.8521H280.478V70.0237L278.228 72.1475L275.979 70.0237H275.983ZM280.478 70.0237C280.478 71.1956 279.472 72.1475 278.228 72.1475C276.989 72.1475 275.979 71.1956 275.979 70.0237H280.473H280.478ZM230.33 67.9H234.573V72.143H230.33V67.9ZM215.356 59.4905H219.851L219.86 60.0607L219.891 60.6039L219.945 61.1248L220.017 61.6187L220.111 62.0856L220.223 62.5301L220.353 62.9477L220.502 63.3428L220.663 63.7154L220.843 64.0656L221.036 64.3979L221.247 64.7122L221.471 65.004L221.714 65.2824L221.979 65.5473L222.262 65.7987L222.562 66.0322L222.886 66.2567L223.236 66.4677L223.609 66.6653L224.008 66.8494L224.439 67.02L224.897 67.1816L225.382 67.3253L225.894 67.4555L226.437 67.5723L227.007 67.671L227.609 67.7518L228.242 67.8147L228.902 67.8596L229.594 67.8865L230.312 67.8955V72.1385L229.463 72.1295L228.637 72.0936L227.834 72.0352L227.048 71.9544L226.285 71.8511L225.539 71.7254L224.816 71.5727L224.111 71.3931L223.429 71.1866L222.769 70.9531L222.131 70.6927L221.512 70.4054L220.919 70.0911L220.353 69.7499L219.81 69.3772L219.294 68.9731L218.809 68.5421L218.351 68.0841L217.924 67.5992L217.529 67.0918L217.17 66.562L216.842 66.0098L216.55 65.4351L216.29 64.8424L216.066 64.2273L215.873 63.5987L215.711 62.9522L215.581 62.2876L215.482 61.6097L215.41 60.9137L215.37 60.2043L215.356 59.477V59.4905ZM219.851 54.4977V59.4905H215.356V54.4977H219.851ZM215.432 54.143L218.499 51.036L218.463 51.0046L218.566 51.0944L218.67 51.1931L218.768 51.2919L218.854 51.3862L218.944 51.4895L219.024 51.5927L219.105 51.7005L219.182 51.8172L219.244 51.916L219.307 52.0283L219.366 52.1405L219.415 52.2483L219.464 52.365L219.509 52.4772L219.55 52.585L219.59 52.7017L219.626 52.8185L219.657 52.9262L219.689 53.043L219.716 53.1597L219.738 53.2675L219.761 53.3842L219.779 53.4964L219.797 53.6042L219.81 53.712L219.824 53.8287L219.833 53.9454L219.842 54.0532L219.846 54.161L219.851 54.2777L219.855 54.3944V54.5067H215.361V54.4483V54.3989V54.354L215.356 54.3046L215.352 54.2552L215.347 54.2193L215.343 54.1834L215.338 54.143L215.334 54.1071L215.329 54.0801L215.325 54.0577L215.32 54.0307L215.316 54.0173L215.311 54.0038L215.307 53.9858V53.9814V53.9769L215.302 53.9679L215.307 53.9724L215.311 53.9858L215.32 53.9993L215.325 54.0038L215.338 54.0263L215.352 54.0487L215.365 54.0667L215.383 54.0891L215.401 54.1071L215.424 54.1295L215.45 54.152L215.473 54.1744L215.437 54.143H215.432ZM215.468 54.1744C214.543 53.3932 214.458 52.0552 215.284 51.1797C216.11 50.3041 217.534 50.2278 218.459 51.009L215.468 54.1744V54.1744ZM214.759 54.1654V49.9225H214.885H215.006L215.127 49.927L215.244 49.9315L215.365 49.936L215.491 49.9449L215.612 49.9539L215.724 49.9629L215.846 49.9764L215.967 49.9898L216.084 50.0078L216.2 50.0258L216.317 50.0482L216.434 50.0707L216.55 50.0976L216.667 50.1245L216.775 50.1515L216.896 50.1874L217.022 50.2278L217.139 50.2682L217.246 50.3086L217.363 50.3535L217.48 50.4029L217.601 50.4568L217.713 50.5107L217.83 50.5735L217.951 50.6409L218.059 50.7082L218.162 50.7801L218.275 50.8609L218.391 50.9507L218.495 51.0405L215.428 54.1475L215.455 54.1699L215.486 54.1969L215.509 54.2148L215.522 54.2238L215.536 54.2328L215.558 54.2463L215.572 54.2552L215.576 54.2597L215.585 54.2642H215.59L215.576 54.2597L215.567 54.2552H215.563L215.549 54.2508L215.522 54.2418L215.5 54.2373L215.473 54.2328L215.441 54.2283L215.41 54.2238L215.374 54.2193L215.334 54.2148L215.289 54.2103L215.244 54.2059L215.186 54.2014L215.132 54.1969L215.082 54.1924L215.024 54.1879L214.957 54.1834H214.889H214.822H214.75L214.759 54.1654ZM204.154 49.9225H214.759V54.1654H204.154L201.904 52.0417L204.154 49.918V49.9225ZM204.154 54.1654C202.915 54.1654 201.904 53.2136 201.904 52.0417C201.904 50.8699 202.91 49.918 204.154 49.918V54.161V54.1654ZM201.904 61.8521V52.0462H206.399V61.8521L204.149 63.9759L201.9 61.8521H201.904ZM206.399 61.8521C206.399 63.024 205.393 63.9759 204.149 63.9759C202.91 63.9759 201.9 63.024 201.9 61.8521H206.394H206.399ZM210.359 63.9759H204.154V59.7329H210.359L212.608 61.8566L210.359 63.9803V63.9759ZM210.359 59.7329C211.598 59.7329 212.608 60.6848 212.608 61.8566C212.608 63.0285 211.603 63.9803 210.359 63.9803V59.7374V59.7329ZM208.109 70.0282V61.8566H212.604V70.0282L210.354 72.1519L208.105 70.0282H208.109ZM212.604 70.0282C212.604 71.2001 211.598 72.1519 210.354 72.1519C209.115 72.1519 208.105 71.2001 208.105 70.0282H212.599H212.604ZM188.426 67.9045H210.359V72.1475H188.426L186.176 70.0237L188.426 67.9V67.9045ZM188.426 72.1475C187.187 72.1475 186.176 71.1956 186.176 70.0237C186.176 68.8519 187.182 67.9 188.426 67.9V72.143V72.1475ZM190.675 61.8521V70.0237H186.181V61.8521L188.43 59.7284L190.68 61.8521H190.675ZM186.181 61.8521C186.181 60.6803 187.187 59.7284 188.43 59.7284C189.67 59.7284 190.68 60.6803 190.68 61.8521H186.185H186.181ZM194.326 63.9759H188.43V59.7329H194.326L196.575 61.8566L194.326 63.9803V63.9759ZM194.326 59.7329C195.565 59.7329 196.575 60.6848 196.575 61.8566C196.575 63.0285 195.569 63.9803 194.326 63.9803V59.7374V59.7329ZM196.575 14.4569V61.8521H192.081V14.4569L194.33 12.3331L196.579 14.4569H196.575ZM192.081 14.4569C192.081 13.285 193.086 12.3331 194.33 12.3331C195.569 12.3331 196.579 13.285 196.579 14.4569H192.085H192.081ZM188.637 12.3331H194.326V16.5761H188.637L186.387 14.4524L188.637 12.3286V12.3331ZM188.637 16.5761C187.398 16.5761 186.387 15.6242 186.387 14.4524C186.387 13.2805 187.393 12.3286 188.637 12.3286V16.5716V16.5761ZM190.886 5.92157V14.4569H186.392V5.92157L188.641 3.79785L190.891 5.92157H190.886ZM186.392 5.92157C186.392 4.74971 187.398 3.79785 188.641 3.79785C189.881 3.79785 190.891 4.74971 190.891 5.92157H186.396H186.392ZM204.158 8.04529H188.641V3.80234H204.158L206.408 5.92606L204.158 8.04978V8.04529ZM204.158 3.80234C205.398 3.80234 206.408 4.7542 206.408 5.92606C206.408 7.09792 205.402 8.04978 204.158 8.04978V3.80683V3.80234ZM201.909 44.0587V5.92606H206.403V44.0587L204.154 46.1824L201.904 44.0587H201.909ZM206.403 44.0587C206.403 45.2306 205.398 46.1824 204.154 46.1824C202.915 46.1824 201.904 45.2306 201.904 44.0587H206.399H206.403ZM205.191 46.1824H204.158V41.9395H205.191L206.897 45.4416L205.191 46.1824ZM205.191 41.9395C206.43 41.9395 207.44 42.8913 207.44 44.0632C207.44 45.235 206.435 46.1869 205.191 46.1869V41.944V41.9395ZM220.915 30.0053L206.897 45.4416L203.485 42.6803L217.502 27.2441L219.208 26.5032L220.915 30.0053V30.0053ZM217.502 27.2441C218.311 26.3551 219.729 26.2518 220.672 27.0151C221.615 27.7784 221.723 29.1163 220.915 30.0053L217.502 27.2441ZM231.78 30.7462H219.213V26.5032H231.78L234.03 28.6269L231.78 30.7507V30.7462ZM231.78 26.5032C233.019 26.5032 234.03 27.4551 234.03 28.6269C234.03 29.7988 233.024 30.7507 231.78 30.7507V26.5077V26.5032ZM229.531 36.7985V28.6269H234.025V36.7985L231.776 38.9223L229.526 36.7985H229.531ZM234.025 36.7985C234.025 37.9704 233.019 38.9223 231.776 38.9223C230.536 38.9223 229.526 37.9704 229.526 36.7985H234.021H234.025ZM223.707 34.6748H231.776V38.9178H223.707L222.024 35.3887L223.707 34.6748ZM223.707 38.9178C222.468 38.9178 221.458 37.9659 221.458 36.7941C221.458 35.6222 222.464 34.6703 223.707 34.6703V38.9133V38.9178ZM215.199 42.6534L222.028 35.3887L225.391 38.2039L218.562 45.4685L216.878 46.1824L215.195 42.6534H215.199ZM218.562 45.4685C217.74 46.3441 216.317 46.4249 215.388 45.6481C214.458 44.8714 214.373 43.5289 215.199 42.6534L218.562 45.4685ZM227.151 44.6334L223.82 47.48L223.829 47.489L223.784 47.4441L223.73 47.3947L223.671 47.3453L223.6 47.2959L223.519 47.242L223.425 47.1882L223.317 47.1298L223.2 47.0714L223.07 47.013L222.931 46.9547L222.778 46.8963L222.612 46.8379L222.432 46.7796L222.244 46.7257L222.042 46.6718L221.831 46.6224L221.606 46.573L221.368 46.5236L221.117 46.4787L220.856 46.4383L220.587 46.3979L220.304 46.362L220.008 46.3306L219.702 46.2992L219.388 46.2722L219.065 46.2498L218.728 46.2318L218.378 46.2138L218.019 46.2004L217.65 46.1914L217.269 46.1869H216.878V41.944H217.314L217.74 41.9485L218.158 41.9574L218.571 41.9709L218.971 41.9889L219.366 42.0113L219.752 42.0382L220.129 42.0697L220.502 42.1056L220.865 42.146L221.224 42.1909L221.575 42.2403L221.916 42.2942L222.248 42.3525L222.576 42.4199L222.895 42.4917L223.209 42.5681L223.519 42.6534L223.82 42.7432L224.111 42.8375L224.399 42.9407L224.682 43.0485L224.96 43.1652L225.229 43.2909L225.49 43.4211L225.746 43.5603L225.997 43.713L226.24 43.8746L226.478 44.0452L226.707 44.2293L226.922 44.4179L227.129 44.6199L227.138 44.6289L227.151 44.6334ZM227.142 44.6244C227.982 45.4865 227.919 46.829 227.003 47.6237C226.087 48.4139 224.664 48.3555 223.829 47.4935L227.142 44.6244V44.6244ZM225.185 52.6883H229.679L225.185 52.814L225.167 52.5311L225.144 52.2527L225.122 51.9834L225.095 51.7229L225.068 51.467L225.036 51.2201L225.005 50.9776L224.969 50.7441L224.933 50.5196L224.893 50.2996L224.852 50.0886L224.812 49.8821L224.767 49.689L224.722 49.5004L224.673 49.3164L224.623 49.1457L224.574 48.9841L224.525 48.827L224.471 48.6788L224.417 48.5351L224.367 48.4049L224.313 48.2837L224.26 48.1669L224.206 48.0592L224.152 47.9604L224.098 47.8706L224.049 47.7898L223.999 47.7135L223.95 47.6461L223.9 47.5833L223.86 47.5339L223.82 47.489L227.151 44.6424L227.313 44.8175L227.47 45.0016L227.614 45.1857L227.753 45.3742L227.887 45.5718L228.013 45.7738L228.134 45.9804L228.247 46.1869L228.354 46.4024L228.453 46.6179L228.552 46.8424L228.646 47.0714L228.732 47.3004L228.812 47.5339L228.889 47.7718L228.965 48.0143L229.037 48.2657L229.104 48.5172L229.167 48.7731L229.225 49.038L229.279 49.3029L229.333 49.5723L229.383 49.8507L229.427 50.1335L229.468 50.4164L229.508 50.7082L229.544 51.0046L229.58 51.3054L229.612 51.6152L229.639 51.925L229.665 52.2438L229.688 52.567L225.194 52.6928L225.185 52.6883ZM229.679 52.5626C229.751 53.7299 228.808 54.7357 227.569 54.8075C226.329 54.8748 225.265 53.9858 225.189 52.8185L229.679 52.567V52.5626ZM229.683 59.4096H225.189V58.9292V58.4668V58.0223V57.5957V57.1871V56.7965V56.4194V56.0602V55.7189V55.3957V55.0904V54.803V54.5336V54.2822V54.0442V53.8242V53.6222V53.4381V53.272V53.1238V52.9936V52.8813V52.7826V52.7017V52.6389V52.594V52.567V52.5581L229.683 52.567V52.5895V52.6299V52.6883H225.189V52.6299V52.5895V52.567L229.683 52.5581V52.567V52.594V52.6389V52.7017V52.7826V52.8813V52.9936V53.1238V53.272V53.4381V53.6222V53.8242V54.0442V54.2822V54.5336V54.803V55.0904V55.3957V55.7189V56.0602V56.4194V56.7965V57.1871V57.5957V58.0223V58.4668V58.9292V59.4096ZM230.263 59.7374V63.9803L230.02 63.9759L229.782 63.9669L229.549 63.9489L229.311 63.922L229.068 63.886L228.835 63.8456L228.601 63.7963L228.363 63.7334L228.13 63.6616L227.905 63.5763L227.681 63.482L227.452 63.3697L227.232 63.2485L227.025 63.1183L226.819 62.9701L226.621 62.8085L226.437 62.6379L226.262 62.4538L226.1 62.2607L225.952 62.0587L225.818 61.8521L225.696 61.6411L225.589 61.4211L225.499 61.2056L225.418 60.9856L225.351 60.7566L225.297 60.5321L225.256 60.3076L225.225 60.0831L225.202 59.8541L225.189 59.6251L225.185 59.4007H229.679V59.477L229.683 59.5398L229.688 59.5937L229.697 59.6431L229.706 59.6835L229.715 59.7149L229.719 59.7329L229.724 59.7464L229.728 59.7554V59.7509L229.724 59.7419L229.715 59.7284L229.706 59.7149L229.692 59.7015L229.674 59.6835L229.661 59.67L229.647 59.6566L229.634 59.6476H229.63H229.625L229.639 59.6521L229.661 59.6611L229.688 59.67L229.724 59.679L229.773 59.688L229.832 59.697L229.894 59.706L229.971 59.7149L230.065 59.7194L230.159 59.7239H230.263V59.7374ZM234.573 63.9803H230.263V59.7374H234.573L236.822 61.8611L234.573 63.9848V63.9803ZM234.573 59.7374C235.812 59.7374 236.822 60.6892 236.822 61.8611C236.822 63.033 235.817 63.9848 234.573 63.9848V59.7419V59.7374ZM232.323 70.0327V61.8611H236.818V70.0327L234.568 72.1564L232.319 70.0327H232.323ZM236.818 70.0327C236.818 71.2046 235.812 72.1564 234.568 72.1564C233.329 72.1564 232.319 71.2046 232.319 70.0327H236.813H236.818ZM172.294 72.1564V67.9135L172.981 67.9045L173.641 67.8821L174.274 67.8461L174.88 67.7967L175.459 67.7339L176.007 67.6576L176.528 67.5678L177.021 67.4645L177.488 67.3478L177.924 67.222L178.333 67.0873L178.714 66.9437L179.069 66.7865L179.397 66.6249L179.697 66.4543L179.976 66.2747L180.232 66.0906L180.465 65.8975L180.681 65.7L180.874 65.4934L181.053 65.2779L181.215 65.0489L181.363 64.8065L181.498 64.555L181.619 64.2856L181.727 63.9983L181.821 63.693L181.897 63.3697L181.96 63.024L182.005 62.6603L182.032 62.2742L182.041 61.8656H186.536L186.522 62.4628L186.482 63.0509L186.41 63.6301L186.307 64.1959L186.172 64.7481L186.006 65.2914L185.808 65.8212L185.579 66.333L185.314 66.8314L185.018 67.3073L184.69 67.7653L184.331 68.2008L183.94 68.6139L183.523 69.0045L183.078 69.3682L182.607 69.7094L182.113 70.0237L181.597 70.3156L181.058 70.585L180.497 70.8274L179.917 71.0474L179.32 71.245L178.701 71.4246L178.063 71.5817L177.408 71.7164L176.734 71.8332L176.043 71.9319L175.329 72.0128L174.597 72.0756L173.847 72.1205L173.079 72.1475L172.289 72.1564H172.294ZM150.257 67.9135H172.294V72.1564H150.257L148.008 70.0327L150.257 67.909V67.9135ZM150.257 72.1564C149.018 72.1564 148.008 71.2046 148.008 70.0327C148.008 68.8608 149.014 67.909 150.257 67.909V72.1519V72.1564ZM152.507 56.3251V70.0372H148.012V56.3251L150.262 54.2014L152.511 56.3251H152.507ZM148.012 56.3251C148.012 55.1532 149.018 54.2014 150.262 54.2014C151.501 54.2014 152.511 55.1532 152.511 56.3251H148.017H148.012ZM159.776 58.4488H150.257V54.2059H159.776L162.025 56.3296L159.776 58.4533V58.4488ZM159.776 54.2059C161.015 54.2059 162.025 55.1577 162.025 56.3296C162.025 57.5014 161.02 58.4533 159.776 58.4533V54.2103V54.2059ZM157.526 61.8656V56.3251H162.021V61.8656L159.771 63.9893L157.522 61.8656H157.526ZM162.021 61.8656C162.021 63.0375 161.015 63.9893 159.771 63.9893C158.532 63.9893 157.522 63.0375 157.522 61.8656H162.016H162.021ZM171.652 63.9893H159.771V59.7464H171.652V63.9893ZM172.213 59.4141H176.707L176.703 59.6386L176.689 59.8631L176.667 60.0876L176.635 60.3166L176.595 60.5411L176.546 60.7611L176.478 60.9901L176.402 61.2101L176.312 61.4256L176.204 61.6456L176.088 61.8521L175.957 62.0587L175.809 62.2652L175.648 62.4583L175.472 62.6468L175.288 62.8175L175.091 62.9791L174.884 63.1273L174.678 63.2575L174.458 63.3832L174.229 63.4954L174.004 63.5897L173.775 63.675L173.542 63.7469L173.304 63.8097L173.07 63.8591L172.837 63.8995L172.594 63.9354L172.356 63.9624L172.123 63.9803L171.885 63.9893L171.643 63.9938V59.7509H171.746L171.84 59.7464L171.934 59.7419L172.011 59.7329L172.074 59.7239L172.132 59.7149L172.181 59.706L172.217 59.697L172.244 59.688L172.267 59.679L172.276 59.6745H172.271L172.262 59.679H172.258L172.244 59.688L172.231 59.7015L172.217 59.7149L172.199 59.7329L172.186 59.7464L172.172 59.7643L172.168 59.7733V59.7778V59.7823L172.172 59.7733L172.177 59.7598L172.181 59.7419L172.19 59.706L172.199 59.6656L172.204 59.6207L172.208 59.5623L172.213 59.4949V59.4186V59.4141ZM176.707 55.9659V59.4141H172.213V55.9659H176.707ZM171.647 55.6381V51.3952L171.89 51.3997L172.128 51.4086L172.361 51.4266L172.599 51.4535L172.841 51.4895L173.075 51.5299L173.308 51.5793L173.546 51.6421L173.775 51.714L174.009 51.7993L174.238 51.898L174.458 52.0058L174.678 52.1315L174.889 52.2662L175.091 52.4144L175.288 52.576L175.472 52.7466L175.648 52.9307L175.809 53.1238L175.957 53.3258L176.092 53.5324L176.209 53.7434L176.317 53.9634L176.406 54.1834L176.483 54.4034L176.55 54.6279L176.599 54.8479L176.64 55.0724L176.671 55.3014L176.694 55.5259L176.707 55.7504L176.712 55.9749H172.217V55.8985L172.213 55.8312L172.208 55.7728L172.204 55.7279L172.195 55.6875L172.186 55.6516L172.181 55.6336L172.177 55.6202V55.6157V55.6202V55.6247L172.186 55.6381L172.199 55.6516L172.213 55.6651L172.226 55.683L172.24 55.6965L172.253 55.71L172.262 55.7189L172.271 55.7234L172.28 55.7279H172.276L172.271 55.7234L172.253 55.7189L172.222 55.71L172.186 55.701L172.136 55.692L172.078 55.683L172.015 55.674L171.939 55.6651L171.845 55.6606L171.75 55.6561H171.647V55.6381ZM160.113 51.3952H171.647V55.6381H160.113V51.3952ZM148.726 45.6167H153.221L153.23 46.0298L153.252 46.4204L153.288 46.793L153.337 47.1433L153.4 47.4755L153.476 47.7853L153.562 48.0772L153.656 48.351L153.764 48.607L153.881 48.8449L154.006 49.0649L154.141 49.2715L154.285 49.4645L154.437 49.6441L154.603 49.8147L154.779 49.9764L154.967 50.129L155.169 50.2772L155.389 50.4164L155.627 50.5466L155.883 50.6678L156.161 50.7846L156.458 50.8923L156.777 50.9911L157.118 51.0809L157.477 51.1617L157.863 51.2291L158.267 51.2874L158.694 51.3323L159.147 51.3638L159.619 51.3817L160.113 51.3907V55.6336L159.484 55.6247L158.869 55.5977L158.267 55.5528L157.679 55.49L157.104 55.4091L156.543 55.3104L155.995 55.1891L155.461 55.0455L154.94 54.8838L154.433 54.6997L153.943 54.4932L153.468 54.2642L153.01 54.0083L152.57 53.7299L152.147 53.4291L151.748 53.1058L151.371 52.7601L151.016 52.3919L150.688 52.0013L150.387 51.5927L150.109 51.1662L149.858 50.7217L149.633 50.2682L149.436 49.7968L149.265 49.3119L149.117 48.818L148.996 48.3106L148.897 47.7943L148.82 47.2645L148.767 46.7257L148.735 46.1734L148.726 45.6122V45.6167ZM153.221 36.354V45.6167H148.726V36.354H153.221ZM160.593 26.5167V30.7596L160.063 30.7686L159.556 30.7866L159.071 30.818L158.608 30.8629L158.168 30.9213L157.755 30.9886L157.365 31.0694L156.997 31.1592L156.651 31.258L156.328 31.3658L156.027 31.4825L155.748 31.6082L155.492 31.7429L155.254 31.8821L155.034 32.0303L154.832 32.1829L154.648 32.3401L154.473 32.5107L154.312 32.6858L154.163 32.8744L154.024 33.0719L153.894 33.283L153.773 33.5075L153.665 33.7499L153.566 34.0103L153.476 34.2842L153.4 34.5805L153.337 34.8948L153.288 35.2316L153.252 35.5863L153.23 35.9589L153.221 36.354H148.726L148.735 35.7973L148.771 35.2495L148.829 34.7152L148.91 34.1899L149.014 33.6781L149.144 33.1752L149.301 32.6813L149.485 32.2009L149.696 31.7339L149.934 31.2805L150.199 30.8405L150.491 30.4229L150.809 30.0233L151.155 29.6417L151.528 29.2825L151.923 28.9412L152.341 28.6269L152.776 28.3351L153.234 28.0657L153.71 27.8233L154.204 27.6033L154.711 27.4057L155.237 27.2261L155.775 27.069L156.328 26.9343L156.893 26.8175L157.477 26.7187L158.07 26.6424L158.68 26.584L159.304 26.5391L159.942 26.5122L160.593 26.5032V26.5167ZM183.146 30.7596H160.593V26.5167H183.146L185.395 28.6404L183.146 30.7641V30.7596ZM183.146 26.5167C184.385 26.5167 185.395 27.4686 185.395 28.6404C185.395 29.8123 184.389 30.7641 183.146 30.7641V26.5212V26.5167ZM180.896 42.5321V28.6404H185.391V42.5321L183.141 44.6559L180.892 42.5321H180.896ZM185.391 42.5321C185.391 43.704 184.385 44.6559 183.141 44.6559C181.902 44.6559 180.892 43.704 180.892 42.5321H185.386H185.391ZM173.937 40.4084H183.146V44.6514H173.937L171.687 42.5276L173.937 40.4039V40.4084ZM173.937 44.6514C172.698 44.6514 171.687 43.6995 171.687 42.5276C171.687 41.3558 172.693 40.4039 173.937 40.4039V44.6469V44.6514ZM176.186 36.8075V42.5276H171.692V36.8075L173.941 34.6838L176.191 36.8075H176.186ZM171.692 36.8075C171.692 35.6357 172.698 34.6838 173.941 34.6838C175.181 34.6838 176.191 35.6357 176.191 36.8075H171.696H171.692ZM163.61 34.6838H173.937V38.9268H163.61V34.6838ZM163.049 39.259H158.555L158.559 39.0345L158.573 38.81L158.595 38.5855L158.626 38.3565L158.667 38.132L158.716 37.912L158.784 37.6831L158.86 37.4631L158.95 37.2475L159.057 37.0275L159.174 36.821L159.304 36.6145L159.453 36.4079L159.614 36.2149L159.789 36.0263L159.973 35.8557L160.171 35.694L160.377 35.5459L160.584 35.4157L160.804 35.2899L161.033 35.1777L161.257 35.0834L161.486 34.9981L161.72 34.9263L161.958 34.8634L162.191 34.814L162.425 34.7736L162.667 34.7377L162.905 34.7107L163.139 34.6928L163.377 34.6838L163.619 34.6793V38.9223H163.516L163.422 38.9268L163.327 38.9312L163.251 38.9402L163.188 38.9492L163.13 38.9582L163.08 38.9672L163.044 38.9761L163.018 38.9851L162.995 38.9941L162.986 38.9986H162.991L163 38.9941H163.004L163.018 38.9851L163.031 38.9717L163.044 38.9582L163.062 38.9402L163.076 38.9268L163.089 38.9088L163.094 38.8998V38.8953V38.8908L163.089 38.8998L163.085 38.9133L163.08 38.9312L163.071 38.9672L163.062 39.0076L163.058 39.0525L163.053 39.1108L163.049 39.1782V39.2545V39.259ZM158.555 43.1652V39.259H163.049V43.1652H158.555ZM163.615 43.493V47.7359L163.372 47.7314L163.134 47.7224L162.901 47.7045L162.663 47.6776L162.42 47.6416L162.187 47.6012L161.953 47.5518L161.715 47.489L161.482 47.4171L161.253 47.3318L161.028 47.2375L160.8 47.1253L160.58 46.9996L160.373 46.8694L160.166 46.7212L159.969 46.5596L159.785 46.389L159.61 46.2004L159.448 46.0073L159.3 45.8008L159.17 45.5942L159.053 45.3877L158.945 45.1677L158.855 44.9522L158.779 44.7322L158.712 44.5032L158.662 44.2832L158.622 44.0587L158.59 43.8297L158.568 43.6052L158.555 43.3807L158.55 43.1562H163.044V43.2326L163.049 43.2999L163.053 43.3583L163.058 43.4032L163.067 43.4436L163.076 43.4795L163.08 43.4975L163.085 43.5109L163.089 43.5199V43.5154V43.5109L163.085 43.502L163.071 43.484L163.058 43.4705L163.04 43.4526L163.026 43.4391L163.013 43.4256L163 43.4166H162.995L162.986 43.4122H162.982L162.991 43.4166L163.013 43.4256L163.04 43.4346L163.076 43.4436L163.125 43.4526L163.184 43.4615L163.246 43.4705L163.323 43.4795L163.417 43.484L163.511 43.4885H163.615V43.493ZM174.839 47.7359H163.615V43.493H174.839V47.7359ZM186.536 52.787H182.041L182.032 52.4323L182.01 52.0956L181.974 51.7768L181.924 51.476L181.866 51.1976L181.794 50.9372L181.713 50.6948L181.619 50.4658L181.516 50.2503L181.404 50.0527L181.282 49.8641L181.152 49.689L181.009 49.5184L180.856 49.3613L180.69 49.2086L180.51 49.0604L180.313 48.9212L180.097 48.7866L179.864 48.6563L179.612 48.5351L179.338 48.4184L179.042 48.3106L178.723 48.2074L178.382 48.1131L178.018 48.0278L177.632 47.9514L177.224 47.8886L176.792 47.8347L176.339 47.7943L175.859 47.7629L175.356 47.7449L174.835 47.7404V43.4975L175.472 43.5064L176.097 43.5289L176.707 43.5693L177.304 43.6232L177.888 43.695L178.458 43.7848L179.01 43.8926L179.549 44.0183L180.075 44.162L180.586 44.3281L181.085 44.5122L181.57 44.7187L182.037 44.9432L182.486 45.1946L182.917 45.464L183.33 45.7604L183.72 46.0747L184.089 46.4114L184.434 46.7706L184.753 47.1477L185.049 47.5429L185.319 47.9559L185.557 48.387L185.768 48.8315L185.952 49.2894L186.109 49.7609L186.239 50.2413L186.347 50.7307L186.428 51.2291L186.486 51.7364L186.522 52.2527L186.531 52.7781L186.536 52.787ZM182.041 61.8656V52.787H186.536V61.8656H182.041Z" fill="#FEFEFE"/>
<path d="M263.124 61.8524V53.3172H250.813C249.156 53.3172 248.33 54.0131 248.33 55.405V59.6704C248.33 61.1251 249.156 61.848 250.813 61.848H263.124V61.8524ZM278.228 70.024H246.363C241.124 70.024 238.502 67.586 238.502 62.728V52.3473C238.502 47.853 241.451 45.599 247.329 45.599H263.124V38.8642C263.124 37.4858 262.298 36.7899 260.623 36.7899H251.244C249.708 36.7899 248.95 37.4858 248.95 38.8777V42.9635H239.431V35.9727C239.431 31.0698 242.709 28.6183 249.259 28.6183H262.087C265.881 28.6183 268.638 29.3007 270.362 30.6612C272.086 32.0216 272.948 34.3384 272.948 37.607V61.848H278.224V70.0196L278.228 70.024ZM234.573 70.024H230.33C221.849 70.024 217.606 66.513 217.606 59.4908V54.498C217.606 53.591 217.399 52.9535 216.968 52.5898C216.555 52.2261 215.814 52.0465 214.759 52.0465H204.154V61.8524H210.359V70.024H188.426V61.8524H194.321V14.4572H188.632V5.92188H204.149V44.0545H205.182L219.2 28.6183H231.767V36.7899H223.698L216.869 44.0545C221.319 44.0545 224.179 44.719 225.472 46.0525C226.576 47.2019 227.214 49.411 227.421 52.6796C227.421 51.9522 227.421 54.1927 227.421 59.3965C227.421 61.0308 228.368 61.848 230.249 61.848H234.56V70.0196L234.573 70.024ZM184.295 61.8524C184.295 67.2987 180.295 70.024 172.294 70.024H150.257V56.3119H159.776V61.8524H171.656C173.537 61.8524 174.467 61.0353 174.467 59.401V55.9527C174.467 54.3184 173.537 53.5012 171.656 53.5012H160.122C154.038 53.5012 150.985 50.8657 150.985 45.6035V36.3409C150.985 31.1955 154.19 28.6228 160.607 28.6228H183.159V42.5145H173.95V36.7944H163.624C161.742 36.7944 160.813 37.6115 160.813 39.2458V43.152C160.813 44.7864 161.742 45.6035 163.624 45.6035H174.848C181.143 45.6035 184.295 47.9922 184.295 52.7784V61.8569V61.8524Z" fill="#D83823"/>
<path d="M135.441 39.3039V45.4191H130.946V39.3039H135.441ZM130.399 38.9133V34.6703L130.641 34.6748L130.879 34.6838L131.117 34.7018L131.355 34.7287L131.593 34.7646L131.831 34.8095L132.064 34.8634L132.298 34.9263L132.527 34.9981L132.76 35.0879L132.989 35.1912L133.214 35.3034L133.434 35.4291L133.645 35.5683L133.847 35.721L134.04 35.8871L134.224 36.0622L134.395 36.2463L134.556 36.4438L134.7 36.6459L134.83 36.8524L134.951 37.0724L135.05 37.2879L135.14 37.5079L135.216 37.7369L135.279 37.9569L135.333 38.1814L135.373 38.4104L135.405 38.6349L135.427 38.8594L135.441 39.0839L135.445 39.3084H130.951V39.2231L130.946 39.1512L130.942 39.0884L130.933 39.0345L130.924 38.9941L130.915 38.9582L130.906 38.9268L130.901 38.9133L130.897 38.8998L130.892 38.8908L130.897 38.8998L130.901 38.9088L130.91 38.9178L130.924 38.9357L130.937 38.9492L130.951 38.9627L130.964 38.9761L130.978 38.9851L130.987 38.9896L130.991 38.9941H130.987L130.978 38.9896L130.951 38.9806L130.919 38.9717L130.874 38.9627L130.821 38.9537L130.758 38.9447L130.686 38.9357L130.601 38.9312L130.506 38.9268H130.403L130.399 38.9133ZM121.504 34.6703H130.399V38.9133H121.504V34.6703ZM120.961 39.3039H116.466L116.471 39.0794L116.484 38.8549L116.507 38.6304L116.538 38.4059L116.579 38.1769L116.633 37.9524L116.695 37.7324L116.772 37.5035L116.862 37.2835L116.96 37.0679L117.082 36.8479L117.212 36.6414L117.355 36.4394L117.517 36.2418L117.688 36.0577L117.872 35.8826L118.065 35.7165L118.267 35.5638L118.478 35.4246L118.698 35.2989L118.922 35.1867L119.151 35.0834L119.385 34.9936L119.614 34.9218L119.847 34.8589L120.081 34.805L120.319 34.7601L120.557 34.7242L120.795 34.6973L121.033 34.6793L121.271 34.6703L121.513 34.6658V38.9088H121.41L121.315 38.9133L121.23 38.9178L121.158 38.9268L121.095 38.9357L121.042 38.9447L120.997 38.9537L120.965 38.9627L120.938 38.9717L120.929 38.9761H120.925L120.929 38.9717L120.938 38.9672L120.952 38.9582L120.965 38.9447L120.979 38.9312L120.992 38.9178L121.006 38.8998L121.015 38.8908L121.019 38.8819L121.024 38.8729L121.019 38.8819L121.015 38.8953L121.01 38.9088L121.001 38.9402L120.992 38.9761L120.983 39.0166L120.974 39.0704L120.97 39.1333L120.965 39.2051V39.2904L120.961 39.3039ZM116.466 45.4191V39.3039H120.961V45.4191L118.711 47.5429L116.462 45.4191H116.466ZM120.961 45.4191C120.961 46.591 119.955 47.5429 118.711 47.5429C117.472 47.5429 116.462 46.591 116.462 45.4191H120.956H120.961ZM133.196 47.5429H118.711V43.2999H133.196L135.445 45.4236L133.196 47.5473V47.5429ZM133.196 43.2999C134.435 43.2999 135.445 44.2518 135.445 45.4236C135.445 46.5955 134.439 47.5473 133.196 47.5473V43.3044V43.2999ZM132.783 72.1475V67.9045L133.326 67.8955L133.847 67.8731L134.345 67.8327L134.817 67.7788L135.266 67.7114L135.688 67.6261L136.087 67.5318L136.464 67.4241L136.815 67.3029L137.147 67.1727L137.457 67.0335L137.744 66.8808L138.013 66.7192L138.265 66.5486L138.498 66.3645L138.718 66.1669L138.925 65.9604L139.118 65.7404L139.302 65.5024L139.473 65.2465L139.634 64.9771L139.787 64.6897L139.926 64.3799L140.052 64.0477L140.169 63.693L140.272 63.3158L140.357 62.9207L140.429 62.4987L140.487 62.0542L140.528 61.5872L140.555 61.0978L140.564 60.586H145.058L145.049 61.237L145.018 61.8701L144.964 62.4942L144.883 63.1003L144.78 63.693L144.649 64.2722L144.497 64.8379L144.317 65.3902L144.111 65.9245L143.877 66.4453L143.617 66.9482L143.325 67.4331L143.006 67.9L142.66 68.3445L142.288 68.7666L141.888 69.1662L141.462 69.5433L141.013 69.8935L140.537 70.2168L140.043 70.5131L139.531 70.787L138.997 71.034L138.444 71.254L137.874 71.447L137.291 71.6176L136.689 71.7613L136.074 71.8825L135.441 71.9813L134.799 72.0577L134.139 72.1115L133.465 72.143L132.774 72.1519L132.783 72.1475ZM118.716 67.9045H132.783V72.1475H118.716V67.9045ZM106.431 60.5815H110.926L110.935 61.0933L110.962 61.5827L111.002 62.0497L111.061 62.4942L111.132 62.9162L111.218 63.3113L111.321 63.6885L111.438 64.0432L111.563 64.3755L111.703 64.6853L111.855 64.9726L112.017 65.242L112.188 65.4979L112.372 65.7359L112.565 65.9559L112.771 66.1624L112.991 66.36L113.225 66.5441L113.476 66.7147L113.746 66.8763L114.033 67.029L114.343 67.1682L114.67 67.2984L115.025 67.4196L115.402 67.5273L115.802 67.6216L116.224 67.7069L116.673 67.7743L117.144 67.8282L117.643 67.8686L118.164 67.891L118.707 67.9V72.143L118.015 72.134L117.342 72.1025L116.682 72.0487L116.04 71.9723L115.407 71.8736L114.792 71.7523L114.19 71.6087L113.606 71.438L113.036 71.245L112.484 71.025L111.95 70.778L111.433 70.5041L110.939 70.2078L110.463 69.8845L110.014 69.5343L109.588 69.1572L109.188 68.7576L108.816 68.3355L108.47 67.891L108.151 67.4241L107.864 66.9392L107.603 66.4363L107.37 65.9155L107.163 65.3812L106.984 64.8289L106.831 64.2632L106.701 63.684L106.598 63.0913L106.517 62.4852L106.463 61.8611L106.431 61.228L106.423 60.577L106.431 60.5815ZM110.926 37.4271V60.5815H106.431V37.4271H110.926ZM119.331 26.4987V30.7417L118.738 30.7507L118.173 30.7731L117.629 30.809L117.113 30.8629L116.619 30.9303L116.152 31.0111L115.712 31.1054L115.299 31.2086L114.908 31.3254L114.545 31.4511L114.203 31.5903L113.885 31.7384L113.588 31.8956L113.314 32.0617L113.059 32.2368L112.821 32.4209L112.601 32.614L112.394 32.8205L112.205 33.036L112.03 33.265L111.864 33.5075L111.712 33.7679L111.572 34.0418L111.442 34.3336L111.325 34.6434L111.222 34.9757L111.132 35.3304L111.056 35.7075L110.998 36.1026L110.953 36.5247L110.926 36.9692L110.917 37.4316H106.423L106.436 36.812L106.472 36.2059L106.53 35.6132L106.616 35.0295L106.728 34.4593L106.867 33.9026L107.038 33.3593L107.235 32.8295L107.46 32.3131L107.716 31.8148L107.998 31.3343L108.313 30.8719L108.658 30.4274L109.031 30.0053L109.431 29.6102L109.857 29.2331L110.306 28.8829L110.778 28.5596L111.272 28.2633L111.788 27.9894L112.322 27.7424L112.874 27.5179L113.445 27.3204L114.033 27.1453L114.639 26.9926L115.259 26.8624L115.896 26.7547L116.547 26.6649L117.216 26.5975L117.903 26.5481L118.604 26.5212L119.322 26.5122L119.331 26.4987ZM132.159 30.7417H119.331V26.4987H132.159V30.7417ZM145.063 37.4271H140.568L140.559 36.9647L140.532 36.5202L140.487 36.0981L140.429 35.703L140.353 35.3259L140.263 34.9712L140.16 34.6389L140.043 34.3246L139.913 34.0283L139.773 33.7544L139.621 33.494L139.455 33.2515L139.28 33.0225L139.091 32.807L138.884 32.6005L138.664 32.4074L138.426 32.2233L138.171 32.0482L137.897 31.8821L137.6 31.725L137.282 31.5768L136.94 31.4376L136.572 31.3074L136.182 31.1907L135.768 31.0874L135.328 30.9931L134.861 30.9123L134.368 30.8449L133.851 30.7911L133.308 30.7552L132.742 30.7327L132.15 30.7237V26.4808L132.868 26.4898L133.568 26.5167L134.255 26.5661L134.924 26.6334L135.575 26.7232L136.213 26.831L136.833 26.9612L137.439 27.1139L138.027 27.289L138.597 27.4865L139.149 27.711L139.684 27.958L140.2 28.2318L140.694 28.5282L141.165 28.8514L141.614 29.2017L142.041 29.5788L142.44 29.9739L142.813 30.396L143.159 30.8405L143.473 31.3029L143.756 31.7833L144.012 32.2817L144.236 32.7936L144.434 33.3234L144.605 33.8711L144.744 34.4279L144.856 34.9981L144.941 35.5818L145 36.1745L145.036 36.7806L145.049 37.4002L145.063 37.4271ZM140.568 53.1373V37.4271H145.063V53.1373L142.813 55.261L140.564 53.1373H140.568ZM145.063 53.1373C145.063 54.3091 144.057 55.261 142.813 55.261C141.574 55.261 140.564 54.3091 140.564 53.1373H145.058H145.063ZM118.711 51.0135H142.818V55.2565H118.711L116.462 53.1328L118.711 51.009V51.0135ZM118.711 55.2565C117.472 55.2565 116.462 54.3046 116.462 53.1328C116.462 51.9609 117.468 51.009 118.711 51.009V55.252V55.2565ZM116.462 59.4007V53.1373H120.956V59.4007H116.462ZM121.504 59.7284V63.9714L121.262 63.9669L121.024 63.9579L120.795 63.9399L120.557 63.913L120.314 63.8771L120.081 63.8367L119.847 63.7873L119.614 63.7244L119.38 63.6526L119.156 63.5673L118.931 63.473L118.702 63.3607L118.487 63.2395L118.28 63.1048L118.074 62.9566L117.881 62.795L117.697 62.6244L117.522 62.4403L117.36 62.2472L117.212 62.0452L117.082 61.8387L116.96 61.6231L116.857 61.4076L116.767 61.1921L116.686 60.9676L116.624 60.7476L116.57 60.5231L116.529 60.2941L116.498 60.0696L116.475 59.8452L116.462 59.6207L116.457 59.3962H120.952V59.4725L120.956 59.5398L120.961 59.5982L120.965 59.6476L120.97 59.6835L120.979 59.7149L120.983 59.7374L120.988 59.7464L120.992 59.7554V59.7598L120.988 59.7509L120.983 59.7419L120.974 59.7284L120.961 59.7105L120.943 59.6925L120.925 59.679L120.911 59.67L120.898 59.6611L120.893 59.6566H120.889L120.884 59.6521L120.893 59.6566L120.911 59.6656L120.934 59.6745L120.965 59.6835L121.01 59.6925L121.069 59.7015L121.127 59.7105L121.199 59.7194L121.289 59.7284L121.383 59.7329H121.486L121.504 59.7284ZM130.399 63.9714H121.504V59.7284H130.399V63.9714ZM130.942 60.1235H135.436L135.382 60.5905L135.333 60.7746L135.275 60.9631L135.207 61.1472L135.135 61.3268L135.05 61.5109L134.956 61.6905L134.852 61.8656L134.736 62.0452L134.615 62.2068L134.484 62.3685L134.336 62.5301L134.188 62.6783L134.031 62.8175L133.865 62.9522L133.69 63.0779L133.519 63.1901L133.335 63.2979L133.146 63.3967L132.967 63.482L132.774 63.5628L132.576 63.6346L132.383 63.6975L132.19 63.7514L131.988 63.8007L131.79 63.8412L131.602 63.8771L131.4 63.9085L131.198 63.9309L131.005 63.9489L130.803 63.9624L130.601 63.9714H130.399V59.7284H130.493L130.574 59.7239L130.65 59.7194L130.726 59.7105L130.789 59.706L130.843 59.697L130.897 59.688L130.937 59.679L130.969 59.67L131 59.6611L131.027 59.6521L131.041 59.6476L131.05 59.6431L131.063 59.6386L131.059 59.6431L131.054 59.6476L131.045 59.6566L131.032 59.6656L131.023 59.6745L131.014 59.6835L131 59.697L130.991 59.706L130.987 59.7105L130.978 59.7239L130.973 59.7284L130.978 59.7149L130.982 59.7015L130.987 59.688L130.991 59.6611L130.937 60.128L130.942 60.1235ZM130.996 59.6566C131.27 58.5117 132.473 57.7978 133.685 58.0582C134.897 58.3186 135.656 59.4545 135.382 60.595L130.996 59.6566ZM133.187 54.5516V58.7945L135.436 56.6708V56.8773V57.0794V57.2724V57.461V57.6406V57.8157V57.9863V58.148V58.3051V58.4533V58.597V58.7317V58.8619V58.9876V59.1043V59.2166V59.3198V59.4186V59.5084V59.5937V59.6745V59.7464V59.8137V59.8721V59.926V59.9754V60.0158V60.0517V60.0786V60.1011V60.1145V60.1235H130.942V60.1145V60.1011V60.0786V60.0517V60.0158V59.9754V59.926V59.8721V59.8137V59.7464V59.6745V59.5937V59.5084V59.4186V59.3198V59.2166V59.1043V58.9876V58.8619V58.7317V58.597V58.4533V58.3051V58.148V57.9863V57.8157V57.6406V57.461V57.2724V57.0794V56.8773V56.6708L133.191 54.5471L133.187 54.5516ZM130.937 56.6753C130.937 55.5034 131.943 54.5516 133.187 54.5516C134.426 54.5516 135.436 55.5034 135.436 56.6753H130.942H130.937ZM142.809 58.799H133.187V54.5561H142.809L145.058 56.6798L142.809 58.8035V58.799ZM142.809 54.5561C144.048 54.5561 145.058 55.5079 145.058 56.6798C145.058 57.8516 144.052 58.8035 142.809 58.8035V54.5606V54.5561ZM140.559 60.5815V56.6753H145.054V60.5815H140.559ZM94.0843 42.5725H103.396V46.8155H94.0843L91.8349 44.6918L94.0843 42.5681V42.5725ZM94.0843 46.8155C92.8451 46.8155 91.8349 45.8636 91.8349 44.6918C91.8349 43.5199 92.8406 42.5681 94.0843 42.5681V46.811V46.8155ZM96.3337 39.2455V44.6918H91.8394V39.2455H96.3337ZM91.2602 38.9178V34.6748L91.5026 34.6793L91.7406 34.6883L91.974 34.7063L92.212 34.7332L92.4545 34.7691L92.6879 34.8095L92.9214 34.8589L93.1594 34.9218L93.3929 34.9936L93.6173 35.0789L93.8418 35.1732L94.0708 35.2855L94.2908 35.4067L94.4974 35.5369L94.7039 35.6851L94.9015 35.8467L95.0855 36.0173L95.2606 36.2014L95.4223 36.3945L95.5705 36.5965L95.7051 36.803L95.8264 37.0141L95.9341 37.2341L96.0239 37.4496L96.1048 37.6696L96.1721 37.8986L96.226 38.1231L96.2664 38.3476L96.2978 38.5721L96.3203 38.801L96.3337 39.03L96.3382 39.2545H91.8438V39.1782L91.8394 39.1153L91.8349 39.0615L91.8259 39.0121L91.8169 38.9717L91.8079 38.9402L91.8034 38.9223L91.7989 38.9088L91.7945 38.8998V38.9043L91.7989 38.9133L91.8079 38.9268L91.8169 38.9402L91.8304 38.9537L91.8483 38.9717L91.8618 38.9851L91.8753 38.9986L91.8887 39.0076H91.8932H91.8977L91.8842 39.0031L91.8618 38.9941L91.8349 38.9851L91.7989 38.9761L91.7496 38.9672L91.6912 38.9582L91.6283 38.9492L91.552 38.9402L91.4577 38.9357L91.3634 38.9312H91.2602V38.9178ZM86.227 34.6748H91.2602V38.9178H86.227L83.9776 36.7941L86.227 34.6703V34.6748ZM86.227 38.9178C84.9878 38.9178 83.9776 37.9659 83.9776 36.7941C83.9776 35.6222 84.9833 34.6703 86.227 34.6703V38.9133V38.9178ZM83.9776 61.8566V36.7985H88.4719V61.8566L86.2225 63.9803L83.9731 61.8566H83.9776ZM88.4719 61.8566C88.4719 63.0285 87.4662 63.9803 86.2225 63.9803C84.9833 63.9803 83.9731 63.0285 83.9731 61.8566H88.4674H88.4719ZM92.432 63.9803H86.227V59.7374H92.432L94.6814 61.8611L92.432 63.9848V63.9803ZM92.432 59.7374C93.6712 59.7374 94.6814 60.6892 94.6814 61.8611C94.6814 63.033 93.6757 63.9848 92.432 63.9848V59.7419V59.7374ZM90.1826 70.0327V61.8611H94.677V70.0327L92.4275 72.1564L90.1781 70.0327H90.1826ZM94.677 70.0327C94.677 71.2046 93.6712 72.1564 92.4275 72.1564C91.1883 72.1564 90.1781 71.2046 90.1781 70.0327H94.6725H94.677ZM70.4989 67.909H92.4275V72.1519H70.4989L68.2495 70.0282L70.4989 67.9045V67.909ZM70.4989 72.1519C69.2597 72.1519 68.2495 71.2001 68.2495 70.0282C68.2495 68.8564 69.2552 67.9045 70.4989 67.9045V72.1475V72.1519ZM72.7483 61.8566V70.0282H68.254V61.8566L70.5034 59.7329L72.7528 61.8566H72.7483ZM68.254 61.8566C68.254 60.6848 69.2597 59.7329 70.5034 59.7329C71.7426 59.7329 72.7528 60.6848 72.7528 61.8566H68.2584H68.254ZM76.3986 63.9803H70.5034V59.7374H76.3986L78.6481 61.8611L76.3986 63.9848V63.9803ZM76.3986 59.7374C77.6378 59.7374 78.6481 60.6892 78.6481 61.8611C78.6481 63.033 77.6423 63.9848 76.3986 63.9848V59.7419V59.7374ZM78.6481 36.7985V61.8566H74.1537V36.7985L76.4031 34.6748L78.6525 36.7985H78.6481ZM74.1537 36.7985C74.1537 35.6267 75.1594 34.6748 76.4031 34.6748C77.6423 34.6748 78.6525 35.6267 78.6525 36.7985H74.1582H74.1537ZM70.5034 34.6748H76.3986V38.9178H70.5034L68.254 36.7941L70.5034 34.6703V34.6748ZM70.5034 38.9178C69.2642 38.9178 68.254 37.9659 68.254 36.7941C68.254 35.6222 69.2597 34.6703 70.5034 34.6703V38.9133V38.9178ZM72.7528 28.6225V36.7941H68.2584V28.6225L70.5079 26.4987L72.7573 28.6225H72.7528ZM68.2584 28.6225C68.2584 27.4506 69.2642 26.4987 70.5079 26.4987C71.7471 26.4987 72.7573 27.4506 72.7573 28.6225H68.2629H68.2584ZM94.0933 30.7462H70.5079V26.5032H94.0933V30.7462ZM105.65 36.7941H101.156L101.147 36.363L101.124 35.9544L101.089 35.5683L101.039 35.2001L100.976 34.8544L100.9 34.5312L100.81 34.2258L100.711 33.9385L100.604 33.6691L100.482 33.4221L100.352 33.1887L100.213 32.9687L100.065 32.7666L99.9077 32.5736L99.7371 32.394L99.553 32.2233L99.3599 32.0617L99.1489 31.9091L98.9244 31.7654L98.6819 31.6262L98.4215 31.496L98.1387 31.3748L97.8378 31.2625L97.5146 31.1592L97.1689 31.065L96.8007 30.9841L96.4101 30.9123L95.997 30.8539L95.5615 30.8045L95.1035 30.7686L94.6186 30.7462L94.1157 30.7372V26.4942L94.7578 26.5032L95.3819 26.5302L95.997 26.5751L96.5986 26.6379L97.1823 26.7232L97.7525 26.8265L98.3093 26.9522L98.8526 27.0959L99.3824 27.2665L99.8987 27.4596L100.397 27.6751L100.882 27.9131L101.349 28.178L101.793 28.4653L102.22 28.7751L102.624 29.1119L103.006 29.4666L103.365 29.8437L103.697 30.2433L104.002 30.6609L104.281 31.0964L104.532 31.5499L104.757 32.0213L104.954 32.5017L105.125 32.9956L105.273 33.503L105.394 34.0238L105.493 34.5536L105.569 35.0969L105.623 35.6491L105.655 36.2149L105.664 36.7896L105.65 36.7941ZM101.156 44.6918V36.7941H105.65V44.6918L103.401 46.8155L101.151 44.6918H101.156ZM105.65 44.6918C105.65 45.8636 104.645 46.8155 103.401 46.8155C102.162 46.8155 101.151 45.8636 101.151 44.6918H105.646H105.65ZM62.3318 22.2333H72.883V26.4763H62.3318L60.0824 24.3526L62.3318 22.2289V22.2333ZM62.3318 26.4763C61.0926 26.4763 60.0824 25.5244 60.0824 24.3526C60.0824 23.1807 61.0881 22.2289 62.3318 22.2289V26.4718V26.4763ZM64.5812 14.6409V24.3571H60.0869V14.6409L62.3363 12.5172L64.5857 14.6409H64.5812ZM60.0869 14.6409C60.0869 13.4691 61.0926 12.5172 62.3363 12.5172C63.5755 12.5172 64.5857 13.4691 64.5857 14.6409H60.0913H60.0869ZM45.5755 12.5172H62.3363V16.7602H45.5755L43.3261 14.6364L45.5755 12.5127V12.5172ZM45.5755 16.7602C44.3363 16.7602 43.3261 15.8083 43.3261 14.6364C43.3261 13.4646 44.3318 12.5127 45.5755 12.5127V16.7557V16.7602ZM43.3261 32.4344V14.6364H47.8205V32.4344L45.571 34.5581L43.3216 32.4344H43.3261ZM47.8205 32.4344C47.8205 33.6062 46.8147 34.5581 45.571 34.5581C44.3318 34.5581 43.3216 33.6062 43.3216 32.4344H47.816H47.8205ZM64.5049 34.5581H45.5755V30.3151H64.5049L66.7543 32.4389L64.5049 34.5626V34.5581ZM64.5049 30.3151C65.7441 30.3151 66.7543 31.267 66.7543 32.4389C66.7543 33.6107 65.7486 34.5626 64.5049 34.5626V30.3196V30.3151ZM62.2555 41.1537V32.4389H66.7498V41.1537L64.5004 43.2775L62.251 41.1537H62.2555ZM66.7498 41.1537C66.7498 42.3256 65.7441 43.2775 64.5004 43.2775C63.2612 43.2775 62.251 42.3256 62.251 41.1537H66.7454H66.7498ZM45.571 39.03H64.5004V43.273H45.571L43.3216 41.1493L45.571 39.0255V39.03ZM45.571 43.273C44.3318 43.273 43.3216 42.3211 43.3216 41.1493C43.3216 39.9774 44.3273 39.0255 45.571 39.0255V43.2685V43.273ZM43.3216 61.3089V41.1537H47.816V61.3089L45.5665 63.4326L43.3171 61.3089H43.3216ZM47.816 61.3089C47.816 62.4807 46.8102 63.4326 45.5665 63.4326C44.3273 63.4326 43.3171 62.4807 43.3171 61.3089H47.8115H47.816ZM53.1185 63.4326H45.5665V59.1896H53.1185L55.368 61.3133L53.1185 63.4371V63.4326ZM53.1185 59.1896C54.3577 59.1896 55.368 60.1415 55.368 61.3133C55.368 62.4852 54.3622 63.4371 53.1185 63.4371V59.1941V59.1896ZM50.8691 70.0282V61.3133H55.3635V70.0282L53.114 72.1519L50.8646 70.0282H50.8691ZM55.3635 70.0282C55.3635 71.2001 54.3577 72.1519 53.114 72.1519C51.8748 72.1519 50.8646 71.2001 50.8646 70.0282H55.359H55.3635ZM28.1817 67.9045H53.114V72.1475H28.1817L25.9323 70.0237L28.1817 67.9V67.9045ZM28.1817 72.1475C26.9425 72.1475 25.9323 71.1956 25.9323 70.0237C25.9323 68.8519 26.938 67.9 28.1817 67.9V72.143V72.1475ZM30.4311 61.3089V70.0237H25.9367V61.3089L28.1862 59.1851L30.4356 61.3089H30.4311ZM25.9367 61.3089C25.9367 60.137 26.9425 59.1851 28.1862 59.1851C29.4254 59.1851 30.4356 60.137 30.4356 61.3089H25.9412H25.9367ZM34.701 63.4326H28.1817V59.1896H34.701L36.9504 61.3133L34.701 63.4371V63.4326ZM34.701 59.1896C35.9402 59.1896 36.9504 60.1415 36.9504 61.3133C36.9504 62.4852 35.9447 63.4371 34.701 63.4371V59.1941V59.1896ZM36.9504 14.6409V61.3089H32.4561V14.6409L34.7055 12.5172L36.9549 14.6409H36.9504ZM32.4561 14.6409C32.4561 13.4691 33.4618 12.5172 34.7055 12.5172C35.9447 12.5172 36.9549 13.4691 36.9549 14.6409H32.4606H32.4561ZM28.1862 12.5172H34.7055V16.7602H28.1862L25.9367 14.6364L28.1862 12.5127V12.5172ZM28.1862 16.7602C26.947 16.7602 25.9367 15.8083 25.9367 14.6364C25.9367 13.4646 26.9425 12.5127 28.1862 12.5127V16.7557V16.7602ZM30.4356 5.92157V14.6364H25.9412V5.92157L28.1907 3.79785L30.4401 5.92157H30.4356ZM25.9412 5.92157C25.9412 4.74971 26.947 3.79785 28.1907 3.79785C29.4299 3.79785 30.4401 4.74971 30.4401 5.92157H25.9457H25.9412ZM72.8785 8.04529H28.1862V3.80234H72.8785L75.128 5.92606L72.8785 8.04978V8.04529ZM72.8785 3.80234C74.1178 3.80234 75.128 4.7542 75.128 5.92606C75.128 7.09792 74.1222 8.04978 72.8785 8.04978V3.80683V3.80234ZM70.6291 24.3571V5.92606H75.1235V24.3571L72.8741 26.4808L70.6246 24.3571H70.6291ZM75.1235 24.3571C75.1235 25.5289 74.1178 26.4808 72.8741 26.4808C71.6348 26.4808 70.6246 25.5289 70.6246 24.3571H75.119H75.1235Z" fill="#FEFEFE"/>
<path d="M133.196 45.4194V39.3042C133.196 37.625 132.266 36.7944 130.403 36.7944H121.509C119.645 36.7944 118.716 37.625 118.716 39.3042V45.4194H133.2H133.196ZM142.818 60.5818C142.818 66.8766 139.473 70.024 132.783 70.024H118.716C112.026 70.024 108.681 66.8766 108.681 60.5818V37.4274C108.681 31.5547 112.232 28.6228 119.335 28.6228H132.163C139.266 28.6228 142.818 31.5592 142.818 37.4274V53.1376H118.711V59.401C118.711 61.0353 119.641 61.8524 121.504 61.8524H130.399C131.983 61.8524 132.917 61.2777 133.191 60.1283C133.191 60.0655 133.191 58.9161 133.191 56.6801H142.813V60.5863L142.818 60.5818ZM103.405 44.6921H94.0933V39.2458C94.0933 37.6115 93.1459 36.7944 91.2647 36.7944H86.2315V61.8524H92.4365V70.024H70.5079V61.8524H76.4031V36.7944H70.5079V28.6228H94.0933C100.298 28.6228 103.405 31.3481 103.405 36.7944V44.6921V44.6921ZM72.8876 24.3529H62.3363V14.6368H45.5756V32.4347H64.5049V41.1496H45.5756V61.3047H53.1276V70.0196H28.1952V61.3047H34.7145V14.6368H28.1952V5.92188H72.8876V24.3529V24.3529Z" fill="#323C8D"/>
<path d="M113.243 77.8818V83.0631C114.082 83.0631 114.671 82.9688 115.007 82.7847C115.344 82.5961 115.515 81.99 115.515 80.9663V79.6867C115.515 78.9459 115.349 78.461 115.025 78.232C114.702 78.003 114.105 77.8907 113.243 77.8907V77.8818ZM105.704 73.9082H111.029C114.576 73.9082 116.978 74.016 118.236 74.236C119.493 74.456 120.516 75.0217 121.307 75.9287C122.101 76.8311 122.496 78.2769 122.496 80.2614C122.496 82.0708 122.218 83.2876 121.657 83.9117C121.1 84.5358 120 84.9084 118.352 85.0297C119.838 85.3305 120.844 85.7256 121.36 86.2285C121.872 86.7224 122.191 87.1848 122.312 87.6024C122.443 88.0199 122.501 89.1649 122.501 91.0461V97.1928H115.515V89.4477C115.515 88.1995 115.393 87.4318 115.151 87.1309C114.913 86.8301 114.28 86.6864 113.247 86.6864V97.1928H105.709V73.9127L105.704 73.9082Z" fill="#D83823"/>
<path d="M88.2565 73.9082H100.806V78.5597H95.7905V83.0047H100.473V87.4183H95.7905V92.5368H101.318V97.1883H88.2565V73.9082Z" fill="#D83823"/>
<path d="M84.2874 73.9082V78.5597H79.8604V97.1883H72.3218V78.5597H67.8589V73.9082H84.2874Z" fill="#D83823"/>
<path d="M63.8719 73.9082V97.1883H57.2852L53.3745 86.6011V97.1883H47.0797V73.9082H53.3745L57.5816 84.3921V73.9082H63.8719Z" fill="#D83823"/>
<path d="M29.6276 73.9082H42.1768V78.5597H37.1661V83.0047H41.849V87.4183H37.1661V92.5368H42.6887V97.1883H29.6276V73.9082Z" fill="#D83823"/>
<path d="M24.6841 82.1735H17.1456V77.5534C17.1456 76.2064 17.0648 75.3713 16.9077 75.0345C16.7505 74.7023 16.3958 74.5362 15.8525 74.5362C15.2419 74.5362 14.8513 74.7382 14.6896 75.1423C14.5235 75.5509 14.4382 76.4264 14.4382 77.7734V90.1251C14.4382 91.4226 14.5235 92.2623 14.6896 92.6619C14.8558 93.057 15.2239 93.25 15.7986 93.25C16.3554 93.25 16.7191 93.0525 16.8897 92.6574C17.0603 92.2667 17.1456 91.3329 17.1456 89.8691V86.5197H24.6841V87.5568C24.6841 90.3181 24.4686 92.2757 24.0511 93.4251C23.629 94.579 22.6906 95.5893 21.2449 96.4603C19.7946 97.3313 18.0122 97.7624 15.8929 97.7624C13.6929 97.7624 11.8745 97.3987 10.4422 96.6623C9.01442 95.926 8.06257 94.9113 7.60011 93.6092C7.13765 92.3072 6.90417 90.3541 6.90417 87.7499V79.9734C6.90417 78.0562 6.97601 76.6195 7.1152 75.6586C7.26337 74.6978 7.68093 73.7729 8.39482 72.8884C9.09973 72.0039 10.083 71.299 11.3402 70.7916C12.5974 70.2798 14.0431 70.0283 15.6774 70.0283C17.8909 70.0283 19.7183 70.4234 21.1641 71.2137C22.6053 71.9994 23.5482 72.9782 24.0062 74.159C24.4596 75.3354 24.6841 77.1672 24.6841 79.6502V82.178V82.1735Z" fill="#D83823"/>
<path d="M305.096 97.2279H298.172V70.5669H305.096V97.2279ZM288.896 90.1877V86.3354C288.896 85.2129 288.784 84.5305 288.559 84.2925C288.335 84.05 287.697 83.9153 286.642 83.8839V92.6482C287.522 92.6482 288.115 92.5359 288.425 92.3114C288.739 92.0869 288.896 91.3775 288.896 90.1922V90.1877ZM295.82 90.9914C295.82 92.9759 295.564 94.3992 295.047 95.2658C294.536 96.1368 293.754 96.6756 292.713 96.8956C291.666 97.1156 290.001 97.2279 287.715 97.2279H279.723V70.5669H286.647V79.6993H287.715C289.844 79.6993 291.464 79.8251 292.555 80.0765C293.647 80.3279 294.464 80.8847 295.007 81.7512C295.55 82.6088 295.82 83.9647 295.82 85.8056V90.9914V90.9914Z" fill="#013295"/>
<path d="M276.01 73.9123V97.2283H269.091L269.073 81.4867L266.326 97.2283H261.485L258.585 81.8414L258.567 97.2283H251.648V73.9123H261.863C262.15 75.3221 262.464 76.9834 262.805 78.8781L263.928 84.7958L265.728 73.9078H276.015L276.01 73.9123ZM238.793 88.913C238.416 86.2685 238.017 82.9998 237.595 79.0936C236.813 83.5745 236.32 86.8432 236.109 88.913H238.793V88.913ZM242.987 73.9123L247.508 97.2283H239.431L239 93.0437H236.149L235.718 97.2283H227.537L231.547 73.9123H242.978H242.987ZM223.425 97.2283H215.509V78.5728H213.201V91.7731C213.201 93.5107 212.905 94.7589 212.326 95.5177C211.737 96.2809 210.853 96.7524 209.668 96.9409C208.478 97.134 206.588 97.2328 203.988 97.2328H202.753V93.2233C203.718 93.2233 204.378 93.129 204.747 92.9494C205.11 92.7698 205.29 92.1457 205.29 91.0772V73.9168H223.429V97.2328L223.425 97.2283ZM180.753 73.9123H188.668L188.704 83.7586C190.172 83.7272 190.927 83.0941 190.976 81.8594L191.124 77.3111C191.174 75.6364 191.6 74.5005 192.39 73.9168H199.691C198.986 74.4825 198.64 75.6544 198.654 77.4279L198.69 81.4284C198.717 83.8439 196.943 85.2268 193.36 85.5591C196.939 85.8913 198.717 87.2922 198.69 89.7481L198.654 93.4568C198.64 95.2258 198.986 96.483 199.691 97.2283H192.39C191.546 96.6446 191.124 95.5087 191.124 93.8294V89.2857C191.124 88.7065 190.9 88.244 190.451 87.8938C189.997 87.5436 189.414 87.364 188.704 87.355L188.668 97.2283H180.753V73.9123V73.9123ZM162.007 73.9123H175.19V78.5683H169.923V83.0178H174.844V87.4403H169.923V92.5678H175.724V97.2238H162.003V73.9078L162.007 73.9123ZM147.855 77.8903V83.8305C148.08 83.8394 148.273 83.8439 148.43 83.8439C149.153 83.8439 149.651 83.7048 149.934 83.4309C150.208 83.1615 150.352 82.5913 150.352 81.7247V79.803C150.352 79.0083 150.19 78.4875 149.867 78.245C149.548 78.0026 148.874 77.8859 147.855 77.8859V77.8903ZM139.94 73.9123H147.9C150.051 73.9123 151.703 74.038 152.866 74.2984C154.02 74.5588 154.891 74.9315 155.475 75.4164C156.058 75.9058 156.449 76.503 156.66 77.1944C156.866 77.8903 156.97 78.9679 156.97 80.4271V82.4566C156.97 83.9382 156.772 85.0248 156.368 85.7028C155.973 86.3852 155.237 86.9105 154.173 87.2742C153.104 87.6379 151.708 87.8175 149.983 87.8175H147.864V97.2193H139.949V73.9033L139.94 73.9123Z" fill="#013295"/>
<path d="M291.46 12.9301H289.884V11.3811H288.447V18.8254H289.691V20.2172H285.515V18.8254H286.759V11.3811H285.322V12.9301H283.746V9.98926H291.455V12.9301H291.46ZM303.183 20.2127H299.425V18.8209H300.556V12.9256L298.311 17.6894H297.005L294.76 12.9256V18.8209H295.891V20.2127H292.133V18.8209H293.135V11.3766H292.133V9.98926H295.16L297.66 15.5208L300.287 9.98926H303.183V11.3766H302.182V18.8209H303.183V20.2127V20.2127Z" fill="#FEFEFE"/>
</svg>
