<svg width="757" height="150" viewBox="0 0 757 150" fill="none" xmlns="http://www.w3.org/2000/svg">
<path fill-rule="evenodd" clip-rule="evenodd" d="M62.8996 108.885C63.5106 109.946 65.6898 112.874 66.4912 113.63L84.3226 138.241C85.0547 139.25 85.1816 139.353 85.8042 140.31C86.8073 141.844 88.0526 143.4 89.1364 144.778C89.9147 145.77 91.5347 148.347 92.4571 149.2L276.928 149.119C277.262 146.156 277.286 77.9149 276.865 75.2744C276.582 73.5103 276.346 67.3186 276.542 65.5718C277.862 67.261 278.796 68.9847 280.133 70.6566L312.55 118.184C314.96 121.902 317.48 125.223 319.786 128.688C321.913 131.876 324.329 135.583 326.969 139.296C327.753 140.391 332.988 149.039 334.331 149.2L372 149.212L371.85 0.265006L331.708 0.351483L331.621 63.3695C331.639 70.0109 332.405 77.0328 332.227 83.8241C331.368 83.213 323.245 70.9506 321.019 67.7971C320.754 67.4224 320.743 67.359 320.466 66.9439L317.382 62.5567C316.632 61.4671 316.28 60.66 315.612 59.7145C315.093 58.9881 314.447 58.2271 313.796 57.2586L303.004 41.4161C296.743 32.1632 287.691 18.2636 281.465 9.66208C280.312 8.07092 278.813 5.95514 277.799 4.44469C277.199 3.54534 276.64 2.49033 276 1.6025C275.181 0.461019 274.979 0.270772 273.256 0.241946C238.365 -0.317266 201.607 0.316892 166.296 0.259241C159.793 0.247711 135.32 -0.0520729 130.864 0.339952L130.806 140.097L96.9769 95.2735C97.8705 94.7662 98.8102 94.5529 99.7326 94.1147C108.709 89.8486 117.368 81.6794 121.012 72.4207C130.345 48.6917 124.753 20.3332 101.606 7.98445C93.074 3.43003 87.084 2.34043 77.9637 0.789629C73.5246 0.0344034 67.5923 0.357248 62.9226 0.259241C42.4105 -0.178905 21.4083 0.91646 0.994141 0.218886L1.02297 149.206L40.508 149.114L40.6636 101.154L57.2267 101.148L62.8938 108.891L62.8996 108.885ZM418.063 34.6133C422.087 34.5326 426.215 34.6076 430.25 34.6076C434.124 34.6076 438.379 34.2098 442.126 34.8382C449.569 36.0892 453.541 36.1584 460.488 40.5629C467.245 44.8521 469.614 49.2278 472.249 56.2209C472.468 56.8031 472.808 57.6737 472.964 58.3366C474.607 65.3412 474.572 67.088 474.543 74.7268C474.515 82.8786 474.342 88.3093 471.471 95.6655C470.387 98.4328 468.507 101.442 466.962 103.281C463.238 107.709 455.888 112.465 449.88 113.526L447.523 113.929C440.264 115.469 426.146 114.909 418.017 114.823L418.063 34.6018V34.6133ZM554.073 34.6133L620.181 34.7402L620.14 114.846L554.038 114.731L554.107 91.3994L615.609 91.359L615.563 56.7339C612.19 56.3535 590.162 56.659 584.777 56.6648C579.566 56.6705 574.354 56.6244 569.148 56.659C566.162 56.6821 556.275 56.9991 554.038 56.4284L554.067 34.6133H554.073ZM660.11 34.596C672.395 34.8728 692.354 31.7423 699.946 40.1997C706.277 47.2446 705.642 66.1541 689.662 68.0566C680.553 69.1404 669.916 68.3679 660.087 68.6158L660.104 34.596H660.11ZM716.481 95.1928C723.791 92.6446 727.907 88.8973 733.142 83.8298C735.275 81.7602 738.515 76.8368 739.812 74.1733C742.003 69.6996 744.193 61.9456 744.493 56.9588C745.243 44.5754 743.899 30.9756 736.145 21.0539C728.956 11.8586 724.563 9.02793 713.771 4.66953C709.834 3.08413 700.154 0.887635 695.997 0.605146C694.308 0.489844 692.337 0.432194 690.861 0.322657C684.127 -0.178905 675.554 0.247711 668.619 0.259241H558.137C552.378 0.247711 516.951 -0.127019 514.374 0.414898C513.809 8.56672 514.322 18.7478 514.322 27.1245L514.346 50.5826C514.374 52.5197 514.42 52.8022 513.734 53.4421C509.826 41.3297 510.858 40.1593 503.075 28.5369C499.754 23.579 500.919 25.6256 497.875 22.0166C495.107 18.7305 488.841 13.5477 484.776 11.3455C483.376 10.5903 482.24 9.89269 480.879 9.16052C477.293 7.22922 472.699 5.39016 468.605 4.05266C463.959 2.53068 453.576 0.524435 448.37 0.466784L401.477 0.253476C394.017 0.316892 385.519 -0.167374 378.105 0.316892L378.203 149.16C385.698 149.511 394.253 149.275 401.828 149.2C409.629 149.125 417.469 149.2 425.275 149.2C433.046 149.2 441.181 149.477 448.733 149.021C457.756 148.474 469.447 146.219 477.414 142.138C480.032 140.795 482.482 139.647 485.076 138.085C497.085 130.861 506.649 118.622 511.169 105.224L513.181 98.3232C513.192 98.2713 513.498 97.3143 513.51 97.2855C514.034 96.2305 513.561 96.8877 514.328 96.1325L514.374 149.206H660.069L660.214 101.16L676.788 101.212L712.042 149.212L756.9 149.171C756.611 147.632 751.117 141.227 749.434 138.881C744.977 132.666 738.676 125.235 734.231 118.899C731.124 114.471 717.663 97.6775 716.481 95.2101V95.1928ZM170.753 53.0558L170.787 34.6249L237.057 34.6133L237.109 114.84L170.799 114.834L170.764 91.3878H232.237L232.306 56.8089L170.764 56.6648V53.0501L170.753 53.0558ZM40.531 34.5845C46.1924 34.5326 65.9608 34.3366 70.2673 35.1091C79.2608 36.7234 84.017 42.2175 84.0055 51.6319C83.994 60.7522 78.8169 66.9151 70.1117 68.0393C61.6831 69.1289 49.8935 68.5639 40.5195 68.5812L40.531 34.5845Z" fill="#C50C07"/>
</svg>
