<svg width="757" height="285" viewBox="0 0 757 285" fill="none" xmlns="http://www.w3.org/2000/svg">
<path  d="M0.0228271 0.612658H44.8521C45.6456 0.612658 48.4887 10.4645 53.3816 30.1683C79.9618 130.009 94.1776 184.029 96.029 192.228H97.2191C99.0705 183.633 115.931 119.761 147.801 0.612658H193.225C189.919 14.6301 165.323 109.38 119.435 284.862H74.4078C73.7466 284.862 70.1761 271.771 63.6963 245.587C24.6856 96.2882 3.46106 14.6301 0.0228271 0.612658Z" fill="#ffffff"/>
<path d="M287.248 0.0175781H295.777C327.647 0.0175781 352.31 3.65418 369.766 10.9274V56.9468C345.83 49.4092 319.052 45.6403 289.43 45.6403C271.842 45.6403 260.271 53.4425 254.717 69.0468C253.923 70.6337 253.527 73.0801 253.527 76.3861V78.5681C253.527 95.7593 265.494 109.446 289.43 119.629C324.606 131.133 348.541 148.258 361.236 171.004C366.922 181.98 369.766 192.559 369.766 202.741V211.866C369.766 243.603 360.443 264.696 341.797 275.143C329.234 281.622 314.291 284.862 296.967 284.862H287.843C251.741 284.862 225.889 281.226 210.284 273.953V227.933C244.402 235.471 271.379 239.24 291.215 239.24C305.629 239.24 316.473 233.553 323.746 222.181C325.994 217.817 327.118 213.254 327.118 208.494V206.907C327.118 190.509 316.275 177.153 294.587 166.838C257.031 155.201 233.492 143.432 223.971 131.53C214.847 120.29 210.284 105.876 210.284 88.2877V81.5435C210.284 27.1929 235.939 0.0175781 287.248 0.0175781Z" fill="#ffffff"/>
<path d="M533.35 0.414298H540.887C575.534 0.414298 601.255 12.382 618.049 36.3174C624.265 48.4835 627.372 60.8479 627.372 73.4107C627.372 101.049 622.413 121.612 612.495 135.101C609.718 139.597 606.346 143.63 602.379 147.201L511.728 238.446H627.372V284.862H435.757L435.558 243.405L556.161 117.05C567.401 103.561 572.691 90.4697 572.03 77.7746C570.311 58.5999 558.938 48.9463 537.912 48.8141C513.58 51.3267 490.372 61.0463 468.288 77.973C469.478 80.3533 458.634 68.055 435.757 41.0781C447.526 24.9448 467.494 12.911 495.661 4.97657C509.15 1.93506 521.713 0.414298 533.35 0.414298Z" fill="#FFF212"/>
<path d="M708.501 0.811017L756.108 0.215938V284.862H708.501V58.3354L679.938 86.1057C679.541 86.1057 670.086 76.6506 651.572 57.7403C672.598 36.1852 691.575 17.2088 708.501 0.811017Z" fill="#FFF212"/>
</svg>
